<?xml version="1.0" encoding="UTF-8"?>
<svg id="Layer_2" data-name="Layer 2" xmlns="http://www.w3.org/2000/svg" viewBox="0 0 134.31 185.28">
  <defs>
    <style>
      .cls-1 {
        fill: #f8991d;
      }

      .cls-2 {
        fill: #ffe35a;
      }

      .cls-3 {
        fill: #fff;
      }

      .cls-4 {
        fill: #ed1c24;
      }

      .cls-5 {
        fill: #824c9e;
      }

      .cls-6 {
        fill: #3363ac;
      }

      .cls-7 {
        fill: #b3a241;
      }

      .cls-8 {
        fill: #4974ba;
      }

      .cls-9 {
        fill: #fff5e9;
        stroke: #3363ac;
      }

      .cls-9, .cls-10, .cls-11 {
        stroke-miterlimit: 10;
        stroke-width: 2px;
      }

      .cls-10 {
        fill: #231f20;
      }

      .cls-10, .cls-11 {
        stroke: #231f20;
      }

      .cls-11 {
        fill: none;
      }
    </style>
  </defs>
  <g id="blue_bin" data-name="blue bin">
    <g id="_Group_body" data-name="&amp;lt;Group&amp;gt;body">
      <polygon class="cls-6" points="14.49 69.84 28.26 185.28 109.81 185.28 119.34 69.84 14.49 69.84"/>
      <path class="cls-8" d="M0,54.87v8.49c0,3.58,2.15,6.48,4.79,6.48h124.72c2.65,0,4.79-2.9,4.79-6.48v-8.49c0-3.58-2.15-6.48-4.79-6.48H4.79c-2.65,0-4.79,2.9-4.79,6.48Z"/>
      <path class="cls-6" d="M9.77,46.86l3.56-14.66c.14-.56,.63-.95,1.21-.95H117.03c.52,0,.98,.32,1.16,.81l5.47,14.66c.3,.81-.3,1.68-1.16,1.68H10.98c-.8,0-1.4-.75-1.21-1.53Z"/>
    </g>
    <g id="_Group_Crown" data-name="&amp;lt;Group&amp;gt; Crown">
      <polygon class="cls-7" points="27.84 7.37 34.09 0 40.57 5.57 36.52 11.09 27.84 7.37"/>
      <polygon class="cls-2" points="26.3 31.26 66.51 31.26 71.14 3.7 53.78 11.09 44.66 0 36.52 11.09 19.27 3.7 26.3 31.26"/>
      <polygon class="cls-7" points="53.78 11.09 49.22 5.55 55.75 0 62.98 7.17 53.78 11.09"/>
      <polygon class="cls-1" points="25.25 27.12 67.2 27.12 66.51 31.26 26.3 31.26 25.25 27.12"/>
      <polygon class="cls-5" points="40.98 18.14 45.21 12.4 49.22 18.14 45.1 23.55 40.98 18.14"/>
    </g>
    <g id="_Group_face" data-name="&amp;lt;Group&amp;gt;face">
      <polygon class="cls-4" points="61.87 59.12 71.14 59.12 67.16 66.11 61.87 59.12"/>
      <g id="_Group_eye" data-name="&amp;lt;Group&amp;gt;eye">
        <circle class="cls-3" cx="36.52" cy="50.54" r="17.25"/>
        <circle class="cls-10" cx="38.5" cy="46.81" r="6.15"/>
        <path class="cls-11" d="M36.52,33.29c15.37-6.09,11.88-9.97,11.88-9.97"/>
        <path class="cls-11" d="M37.07,32.72c16.44,1.75,15.15-3.3,15.15-3.3"/>
      </g>
      <g id="_Group_eye-2" data-name="&amp;lt;Group&amp;gt;eye">
        <circle class="cls-3" cx="97.16" cy="50.54" r="17.25"/>
        <circle class="cls-10" cx="99.77" cy="46.81" r="6.15"/>
        <path class="cls-11" d="M97.16,33.29c15.37-6.09,11.88-9.97,11.88-9.97"/>
        <path class="cls-11" d="M97.7,32.72c16.44,1.75,15.15-3.3,15.15-3.3"/>
      </g>
    </g>
    <g id="_Group_recycle_symbol" data-name="&amp;lt;Group&amp;gt;recycle symbol">
      <g id="_Group_recycle_arrow" data-name="&amp;lt;Group&amp;gt;recycle arrow">
        <path class="cls-9" d="M45.76,99.78s7.3-13.34,12.47-12.78,20.08-.02,20.08-.02c0,0,3.95,.86,7.91,7.53l6.39-3.06-7.91,13.34h-18.86l7-3.06-4.59-5.84-8.01,11.48-14.47-7.58Z"/>
        <path class="cls-9" d="M68.24,95.88s-5.17-9.03-10.01-8.88"/>
      </g>
      <g id="_Group_recycle_arrow-2" data-name="&amp;lt;Group&amp;gt;recycle arrow">
        <path class="cls-9" d="M94.44,104.22s8.52,12.72,5.27,16.43-10.61,15.57-10.61,15.57c0,0-2.89,2.61-11.18,2.14l-.54,6.57-8.2-13.19,9.99-14.61-.87,7.04,7.85-.46-6.42-12.29,14.7-7.2Z"/>
        <path class="cls-9" d="M86.16,123.7s11.13,.78,13.55-3.06"/>
      </g>
      <g id="_Group_recycle_arrow-3" data-name="&amp;lt;Group&amp;gt;recycle arrow">
        <path class="cls-9" d="M66.36,140.11s-16.26,1.35-18.46-2.96-10.58-15.59-10.58-15.59c0,0-1.28-3.53,2.85-10.1l-6.21-3.35,16.58-.87,9.92,14.65-6.53-3.83-3.03,6.64,14.9,.19,.55,15.23Z"/>
        <path class="cls-9" d="M50.9,124.69s-5.69,8.77-3,12.45"/>
      </g>
    </g>
  </g>
</svg>