<svg width="390" height="293" viewBox="0 0 390 293" fill="none" xmlns="http://www.w3.org/2000/svg">
<rect y="3.05408" width="390" height="288.936" fill="#D5F0F9"/>
<path d="M314.878 247.865C314.878 255.162 309.053 261.061 301.887 261.061C294.721 261.061 288.896 255.162 288.896 247.865C288.896 240.569 294.721 234.669 301.887 234.669C309.053 234.669 314.878 240.569 314.878 247.865Z" fill="#CBBC3D" stroke="black" stroke-width="1.25"/>
<path d="M303.54 243.044C303.54 242.699 303.26 242.419 302.915 242.419C302.57 242.419 302.29 242.699 302.29 243.044H303.54ZM302.29 243.044V291.9H303.54V243.044H302.29Z" fill="black"/>
<path d="M294.438 250.774C294.213 250.513 293.821 250.487 293.563 250.716C293.304 250.945 293.278 251.343 293.503 251.604L294.438 250.774ZM293.503 251.604L302.37 261.89L303.304 261.06L294.438 250.774L293.503 251.604Z" fill="black"/>
<path d="M310.515 244.651L302.915 252.365" stroke="black" stroke-width="1.25" stroke-linecap="round"/>
<path d="M269.947 223.292C271.54 221.847 273.969 221.847 275.562 223.292L279.022 226.431C279.942 227.265 281.12 227.759 282.36 227.829L287.018 228.095C289.141 228.216 290.835 229.913 290.952 232.036L291.221 236.889C291.289 238.104 291.762 239.262 292.567 240.176L295.774 243.819C297.163 245.397 297.163 247.762 295.774 249.341L292.567 252.984C291.762 253.898 291.289 255.055 291.221 256.271L290.952 261.124C290.835 263.247 289.141 264.943 287.018 265.064L282.36 265.33C281.12 265.401 279.942 265.895 279.022 266.729L275.562 269.868C273.969 271.312 271.54 271.312 269.947 269.868L266.487 266.729C265.567 265.895 264.389 265.401 263.149 265.33L258.491 265.064C256.368 264.943 254.674 263.247 254.557 261.124L254.288 256.271C254.22 255.055 253.747 253.898 252.942 252.984L249.735 249.341C248.346 247.762 248.346 245.397 249.735 243.819L252.942 240.176C253.747 239.262 254.22 238.104 254.288 236.889L254.557 232.036C254.674 229.913 256.368 228.216 258.491 228.095L263.149 227.829C264.389 227.759 265.567 227.265 266.487 226.431L269.947 223.292Z" fill="#DF8C20"/>
<path d="M269.947 223.292C271.54 221.847 273.969 221.847 275.562 223.292L279.022 226.431C279.942 227.265 281.12 227.759 282.36 227.829L287.018 228.095C289.141 228.216 290.835 229.913 290.952 232.036L291.221 236.889C291.289 238.104 291.762 239.262 292.567 240.176L295.774 243.819C297.163 245.397 297.163 247.762 295.774 249.341L292.567 252.984C291.762 253.898 291.289 255.055 291.221 256.271L290.952 261.124C290.835 263.247 289.141 264.943 287.018 265.064L282.36 265.33C281.12 265.401 279.942 265.895 279.022 266.729L275.562 269.868C273.969 271.312 271.54 271.312 269.947 269.868L266.487 266.729C265.567 265.895 264.389 265.401 263.149 265.33L258.491 265.064C256.368 264.943 254.674 263.247 254.557 261.124L254.288 256.271C254.22 255.055 253.747 253.898 252.942 252.984L249.735 249.341C248.346 247.762 248.346 245.397 249.735 243.819L252.942 240.176C253.747 239.262 254.22 238.104 254.288 236.889L254.557 232.036C254.674 229.913 256.368 228.216 258.491 228.095L263.149 227.829C264.389 227.759 265.567 227.265 266.487 226.431L269.947 223.292Z" fill="black" fill-opacity="0.2"/>
<path d="M269.947 223.292C271.54 221.847 273.969 221.847 275.562 223.292L279.022 226.431C279.942 227.265 281.12 227.759 282.36 227.829L287.018 228.095C289.141 228.216 290.835 229.913 290.952 232.036L291.221 236.889C291.289 238.104 291.762 239.262 292.567 240.176L295.774 243.819C297.163 245.397 297.163 247.762 295.774 249.341L292.567 252.984C291.762 253.898 291.289 255.055 291.221 256.271L290.952 261.124C290.835 263.247 289.141 264.943 287.018 265.064L282.36 265.33C281.12 265.401 279.942 265.895 279.022 266.729L275.562 269.868C273.969 271.312 271.54 271.312 269.947 269.868L266.487 266.729C265.567 265.895 264.389 265.401 263.149 265.33L258.491 265.064C256.368 264.943 254.674 263.247 254.557 261.124L254.288 256.271C254.22 255.055 253.747 253.898 252.942 252.984L249.735 249.341C248.346 247.762 248.346 245.397 249.735 243.819L252.942 240.176C253.747 239.262 254.22 238.104 254.288 236.889L254.557 232.036C254.674 229.913 256.368 228.216 258.491 228.095L263.149 227.829C264.389 227.759 265.567 227.265 266.487 226.431L269.947 223.292Z" stroke="black" stroke-width="1.25"/>
<path d="M273.774 243.044C273.774 242.699 273.495 242.419 273.149 242.419C272.804 242.419 272.524 242.699 272.524 243.044H273.774ZM272.524 243.044V291.9H273.774V243.044H272.524Z" fill="black"/>
<path d="M264.672 250.774C264.447 250.513 264.055 250.487 263.797 250.716C263.539 250.945 263.512 251.343 263.737 251.604L264.672 250.774ZM263.737 251.604L272.604 261.89L273.538 261.06L264.672 250.774L263.737 251.604Z" fill="black"/>
<path d="M280.749 244.651L273.149 252.365" stroke="black" stroke-width="1.25" stroke-linecap="round"/>
<path d="M31.4102 223.38C32.998 221.955 35.4046 221.955 36.9924 223.38L50.5772 235.574C51.2482 236.176 51.7063 236.979 51.8833 237.863L55.5222 256.041C55.9341 258.098 54.7563 260.142 52.7698 260.817L35.546 266.671C34.674 266.968 33.7286 266.968 32.8566 266.671L15.6328 260.817C13.6463 260.142 12.4685 258.098 12.8804 256.041L16.5193 237.863C16.6963 236.979 17.1544 236.176 17.8254 235.574L31.4102 223.38Z" fill="#DF8C20" stroke="black" stroke-width="1.25"/>
<path d="M35.2212 243.177C35.2212 242.832 34.9414 242.552 34.5962 242.552C34.251 242.552 33.9712 242.832 33.9712 243.177H35.2212ZM33.9712 243.177V292.033H35.2212V243.177H33.9712Z" fill="black"/>
<path d="M26.1188 250.908C25.8934 250.646 25.5015 250.62 25.2434 250.849C24.9853 251.079 24.9588 251.476 25.1842 251.738L26.1188 250.908ZM25.1842 251.738L34.0506 262.023L34.9852 261.193L26.1188 250.908L25.1842 251.738Z" fill="black"/>
<path d="M42.1959 244.785L34.5962 252.499" stroke="black" stroke-width="1.25" stroke-linecap="round"/>
<path d="M379.476 219.581C379.476 231.427 377.792 242.186 374.614 249.96C371.421 257.768 366.826 262.347 361.102 262.347C355.353 262.347 350.368 257.815 346.787 250.094C343.22 242.404 341.144 231.733 341.144 219.902C341.144 208.183 346.218 197.537 351.332 189.791C353.885 185.924 356.439 182.794 358.354 180.631C359.311 179.55 360.107 178.712 360.664 178.145C360.826 177.979 360.968 177.837 361.087 177.718C361.193 177.83 361.317 177.963 361.458 178.116C361.971 178.674 362.706 179.5 363.589 180.565C365.356 182.697 367.713 185.787 370.069 189.614C374.788 197.277 379.476 207.849 379.476 219.581Z" fill="#CBBC3D" stroke="black" stroke-width="1.25"/>
<path d="M361.805 208.332C361.806 207.986 361.526 207.706 361.181 207.706C360.836 207.706 360.556 207.985 360.555 208.33L361.805 208.332ZM360.555 208.33L360.475 291.899L361.725 291.9L361.805 208.332L360.555 208.33Z" fill="black"/>
<path d="M352.703 216.061C352.478 215.8 352.086 215.774 351.828 216.003C351.569 216.232 351.543 216.63 351.768 216.891L352.703 216.061ZM351.768 216.891L360.635 227.177L361.569 226.347L352.703 216.061L351.768 216.891Z" fill="black"/>
<path d="M368.78 209.938L361.18 217.652" stroke="black" stroke-width="1.25" stroke-linecap="round"/>
<path d="M368.702 228.259L361.102 235.973" stroke="black" stroke-width="1.25" stroke-linecap="round"/>
<path d="M369.335 234.044L361.735 241.758" stroke="black" stroke-width="1.25" stroke-linecap="round"/>
<path d="M47.7731 188.969H17.5827C8.67434 184.95 11.9736 177.08 15.603 174.401C17.9787 166.363 23.8518 167.368 26.4914 168.875C27.8112 167.703 31.5725 164.181 35.8949 164.856C42.3291 165.861 43.9787 171.052 45.2985 174.401C50.2477 173.899 53.7122 177.415 53.7122 181.936C53.7122 185.553 49.7528 188.132 47.7731 188.969Z" fill="white" stroke="black" stroke-width="1.25" stroke-linecap="round"/>
<path d="M60.4068 197.092H30.2164C21.308 193.073 24.6073 185.203 28.2367 182.524C30.6123 174.486 36.4854 175.491 39.125 176.998C40.4448 175.826 44.2061 172.304 48.5286 172.979C54.9628 173.984 56.6123 179.175 57.9321 182.524C62.8814 182.021 66.3458 185.538 66.3458 190.059C66.3458 193.676 62.3865 196.255 60.4068 197.092Z" fill="white" stroke="black" stroke-width="1.25" stroke-linecap="round"/>
<path d="M264.55 68.4021H234.359C225.451 64.3831 228.75 56.5127 232.38 53.8335C234.755 45.7956 240.629 46.8004 243.268 48.3076C244.588 47.1354 248.349 43.6136 252.672 44.2886C259.106 45.2932 260.755 50.4844 262.075 53.8335C267.024 53.3311 270.489 56.8477 270.489 61.369C270.489 64.986 266.53 67.5648 264.55 68.4021Z" fill="white" stroke="black" stroke-width="1.25" stroke-linecap="round"/>
<path d="M277.183 76.525H246.993C238.085 72.506 241.384 64.6357 245.013 61.9564C247.389 53.9185 253.262 54.9234 255.902 56.4305C257.222 55.2583 260.983 51.7365 265.305 52.4115C271.739 53.4162 273.389 58.6073 274.709 61.9564C279.658 61.4541 283.123 64.9706 283.123 69.4919C283.123 73.1089 279.163 75.6877 277.183 76.525Z" fill="white" stroke="black" stroke-width="1.25" stroke-linecap="round"/>
<path d="M13.858 98.5439H44.0484C52.9568 94.5249 49.6575 86.6546 46.0281 83.9753C43.6524 75.9375 37.7793 76.9423 35.1397 78.4494C33.8199 77.2772 30.0586 73.7555 25.7362 74.4304C19.302 75.4351 17.6524 80.6262 16.3326 83.9753C11.3834 83.473 7.91892 86.9895 7.91892 91.5108C7.91892 95.1278 11.8783 97.7066 13.858 98.5439Z" fill="white" stroke="black" stroke-width="1.25" stroke-linecap="round"/>
<path d="M39.5939 80.4585C40.0888 80.291 41.2766 80.2575 42.0685 81.4632" stroke="black" stroke-linecap="round"/>
<path d="M19.302 82.8854C19.7969 80.8759 21.5787 78.565 24.7462 77.3594" stroke="black" stroke-linecap="round"/>
<path d="M10.3933 90.9232C10.7233 89.5836 11.7791 86.9043 13.3629 86.9043" stroke="black"/>
<path d="M27.2207 76.8572C27.7156 76.6897 28.9034 76.6562 29.6953 77.8619" stroke="black" stroke-linecap="round"/>
<path d="M328.387 132.705H352.309C359.368 129.52 356.754 123.283 353.878 121.16C351.996 114.791 347.342 115.587 345.25 116.782C344.204 115.853 341.224 113.062 337.799 113.597C332.7 114.393 331.393 118.507 330.347 121.16C326.426 120.762 323.68 123.549 323.68 127.132C323.68 129.998 326.818 132.041 328.387 132.705Z" fill="white" stroke="black" stroke-width="1.25" stroke-linecap="round"/>
<path d="M348.78 118.374C349.172 118.241 350.113 118.214 350.74 119.17" stroke="black" stroke-linecap="round"/>
<path d="M332.7 120.297C333.092 118.704 334.504 116.873 337.014 115.918" stroke="black" stroke-linecap="round"/>
<path d="M325.641 126.666C325.903 125.604 326.739 123.481 327.994 123.481" stroke="black"/>
<path d="M338.975 115.52C339.367 115.387 340.308 115.361 340.936 116.316" stroke="black" stroke-linecap="round"/>
<path d="M356.706 46.175H380.629C387.688 42.9904 385.074 36.754 382.198 34.6309C380.315 28.2617 375.661 29.0579 373.57 30.2522C372.524 29.3233 369.543 26.5327 366.118 27.0675C361.02 27.8636 359.713 31.9771 358.667 34.6309C354.745 34.2328 352 37.0194 352 40.602C352 43.4681 355.137 45.5116 356.706 46.175Z" fill="white" stroke="black" stroke-width="1.25" stroke-linecap="round"/>
<path d="M377.099 31.8442C377.491 31.7115 378.433 31.6849 379.06 32.6403" stroke="black" stroke-linecap="round"/>
<path d="M361.02 33.7672C361.412 32.1749 362.824 30.3438 365.334 29.3884" stroke="black" stroke-linecap="round"/>
<path d="M353.961 40.1364C354.222 39.0748 355.059 36.9518 356.314 36.9518" stroke="black"/>
<path d="M367.295 28.9904C367.687 28.8577 368.628 28.8312 369.256 29.7866" stroke="black" stroke-linecap="round"/>
<path d="M103.502 119.036H86.3822C81.3305 116.787 83.2014 112.382 85.2595 110.882C86.6067 106.383 89.9372 106.945 91.434 107.789C92.1824 107.133 94.3154 105.162 96.7665 105.539C100.415 106.102 101.351 109.007 102.099 110.882C104.906 110.601 106.87 112.569 106.87 115.1C106.87 117.124 104.625 118.568 103.502 119.036Z" fill="white" stroke="black" stroke-width="1.25" stroke-linecap="round"/>
<path d="M121.151 128.13H98.5398C91.8679 125.12 94.3388 119.226 97.0571 117.219C98.8363 111.199 103.235 111.952 105.212 113.08C106.2 112.202 109.017 109.565 112.255 110.07C117.073 110.823 118.309 114.711 119.297 117.219C123.004 116.843 125.599 119.476 125.599 122.863C125.599 125.572 122.633 127.503 121.151 128.13Z" fill="white" stroke="black" stroke-width="1.25" stroke-linecap="round"/>
<path d="M107.272 132.581H116.539H118.021C120.245 132.581 122.099 133.099 122.099 130.324C122.099 127.69 120.369 126.938 119.133 126.938C119.133 125.433 116.909 124.68 115.797 125.433C115.427 124.555 114.092 122.799 111.72 122.799C109.348 122.799 108.755 125.558 108.755 126.938C106.901 126.185 105.048 127.69 104.677 129.571C104.381 131.076 106.283 132.205 107.272 132.581Z" fill="white" stroke="black"/>
<path d="M310.275 191.898H287.416C280.671 188.895 283.169 183.013 285.917 181.01C287.716 175.003 292.162 175.754 294.161 176.881C295.16 176.004 298.008 173.372 301.281 173.877C306.153 174.628 307.402 178.507 308.401 181.01C312.148 180.635 314.772 183.263 314.772 186.642C314.772 189.345 311.774 191.273 310.275 191.898Z" fill="white" stroke="black" stroke-width="1.25" stroke-linecap="round"/>
<path d="M292.266 204.04H262.075C253.167 200.021 256.466 192.151 260.095 189.472C262.471 181.434 268.344 182.439 270.984 183.946C272.304 182.774 276.065 179.252 280.387 179.927C286.822 180.931 288.471 186.123 289.791 189.472C294.74 188.969 298.205 192.486 298.205 197.007C298.205 200.624 294.245 203.203 292.266 204.04Z" fill="white" stroke="black" stroke-width="1.25" stroke-linecap="round"/>
<path d="M280.663 209.984H293.036H295.016C297.986 209.984 300.46 210.675 300.46 206.969C300.46 203.453 298.151 202.448 296.501 202.448C296.501 200.439 293.532 199.434 292.047 200.439C291.552 199.266 289.77 196.922 286.603 196.922C283.435 196.922 282.643 200.606 282.643 202.448C280.169 201.443 277.694 203.453 277.199 205.965C276.803 207.974 279.344 209.481 280.663 209.984Z" fill="white" stroke="black"/>
<path d="M113.295 19.0851H90.436C83.6909 16.0815 86.189 10.1995 88.9371 8.19716C90.7358 2.18997 95.1827 2.94093 97.1813 4.06731C98.1806 3.19124 101.029 0.559236 104.301 1.06366C109.173 1.81453 110.422 5.69418 111.421 8.19716C115.169 7.82172 117.792 10.4498 117.792 13.8289C117.792 16.5321 114.794 18.4594 113.295 19.0851Z" fill="white" stroke="black" stroke-width="1.25" stroke-linecap="round"/>
<path d="M95.2858 31.227H65.0954C56.187 27.208 59.4863 19.3377 63.1157 16.6584C65.4914 8.62056 71.3645 9.62538 74.0041 11.1325C75.3239 9.9603 79.0852 6.43856 83.4076 7.1135C89.8418 8.11819 91.4914 13.3093 92.8112 16.6584C97.7604 16.1561 101.225 19.6726 101.225 24.1939C101.225 27.8109 97.2655 30.3897 95.2858 31.227Z" fill="white" stroke="black" stroke-width="1.25" stroke-linecap="round"/>
<path d="M83.6836 37.1703H96.0567H98.0366C101.006 37.1703 103.481 37.8613 103.481 34.156C103.481 30.6395 101.171 29.6348 99.5213 29.6348C99.5213 27.6253 96.5518 26.6206 95.067 27.6253C94.5721 26.4531 92.7904 24.1088 89.6229 24.1088C86.4553 24.1088 85.6635 27.7928 85.6635 29.6348C83.1888 28.6301 80.7141 30.6395 80.2191 33.1514C79.8232 35.1608 82.3638 36.6679 83.6836 37.1703Z" fill="white" stroke="black"/>
<path d="M225.685 135.719H255.876C264.784 131.7 261.485 123.83 257.855 121.15C255.48 113.112 249.607 114.117 246.967 115.624C245.647 114.452 241.886 110.93 237.564 111.605C231.129 112.61 229.48 117.801 228.16 121.15C223.211 120.648 219.746 124.164 219.746 128.686C219.746 132.303 223.706 134.882 225.685 135.719Z" fill="white" stroke="black" stroke-width="1.25" stroke-linecap="round"/>
<path d="M251.421 117.633C251.916 117.466 253.104 117.432 253.896 118.638" stroke="black" stroke-linecap="round"/>
<path d="M231.129 120.06C231.624 118.051 233.406 115.74 236.574 114.534" stroke="black" stroke-linecap="round"/>
<path d="M222.221 128.098C222.551 126.758 223.606 124.079 225.19 124.079" stroke="black"/>
<path d="M239.048 114.032C239.543 113.865 240.731 113.831 241.523 115.037" stroke="black" stroke-linecap="round"/>
<path d="M231.117 137.643H248.666C253.845 135.307 251.927 130.732 249.817 129.175C248.436 124.502 245.022 125.087 243.488 125.963C242.721 125.281 240.534 123.234 238.022 123.626C234.282 124.21 233.323 127.228 232.556 129.175C229.679 128.883 227.665 130.927 227.665 133.555C227.665 135.657 229.967 137.156 231.117 137.643Z" fill="white" stroke="black" stroke-width="1.25" stroke-linecap="round"/>
<path d="M246.077 127.13C246.365 127.033 247.055 127.014 247.516 127.714" stroke="black" stroke-linecap="round"/>
<path d="M234.282 128.541C234.57 127.373 235.605 126.03 237.446 125.329" stroke="black" stroke-linecap="round"/>
<path d="M229.104 133.213C229.295 132.435 229.909 130.877 230.83 130.877" stroke="black"/>
<path d="M238.885 125.037C239.173 124.94 239.863 124.92 240.323 125.621" stroke="black" stroke-linecap="round"/>
<line y1="291.25" x2="390" y2="291.25" stroke="black" stroke-width="1.5"/>
</svg>
