<svg width="390" height="136" viewBox="0 0 390 136" fill="none" xmlns="http://www.w3.org/2000/svg">
<g id="gameTitle">
<path id="gameTitle__bg-container" d="M0 0H390V55C390 82.6142 367.614 105 340 105H50C22.3858 105 0 82.6142 0 55V0Z" fill="#5AB4AB"/>
<rect id="gameTitle__bgFont" x="128" y="88" width="170" height="32" fill="#5AB4AB"/>
<path id="gameTitle__font--white" d="M180.016 79.0468C179.088 79.0468 178.416 78.6308 178 77.7988C177.584 76.9348 177.376 76.0708 177.376 75.2068C178.08 71.6548 178.528 68.1668 178.72 64.7428C178.912 61.2868 179.024 57.6228 179.056 53.7508C177.808 53.7828 176.768 53.8308 175.936 53.8948C175.104 53.9588 174.272 53.9908 173.44 53.9908H170.368C169.6 53.8308 168.992 53.5428 168.544 53.1268C168.128 52.7108 167.92 52.1028 167.92 51.3028C167.92 50.2148 168.224 49.4948 168.832 49.1428C169.472 48.7588 170.224 48.5668 171.088 48.5668C171.28 48.5668 171.472 48.5668 171.664 48.5668C171.856 48.5668 172.048 48.5828 172.24 48.6148C172.848 48.5508 173.776 48.4708 175.024 48.3748C176.272 48.2468 177.616 48.1348 179.056 48.0388C180.496 47.9108 181.824 47.7988 183.04 47.7028C184.256 47.6068 185.152 47.5268 185.728 47.4628H187.648C188.352 47.4628 189.2 47.5108 190.192 47.6068C191.216 47.7028 192.224 47.9108 193.216 48.2308C194.208 48.5188 195.024 48.9668 195.664 49.5748C196.336 50.1828 196.672 50.9988 196.672 52.0228C196.672 52.6308 196.448 53.2388 196 53.8468C195.552 54.4228 194.976 54.7108 194.272 54.7108C193.888 54.7108 193.488 54.5828 193.072 54.3268C192.656 54.0388 192.256 53.8468 191.872 53.7508C191.04 53.4948 190.176 53.3508 189.28 53.3188C188.384 53.2868 187.52 53.2708 186.688 53.2708H184.816L184.624 53.4148C184.624 53.8308 184.608 54.5028 184.576 55.4308C184.544 56.3588 184.512 57.4148 184.48 58.5988C184.448 59.7508 184.416 60.9028 184.384 62.0548C184.384 63.2068 184.384 64.1988 184.384 65.0308C184.384 66.4068 184.288 67.7988 184.096 69.2068C183.936 70.5828 183.808 71.6228 183.712 72.3268C183.648 72.8388 183.52 73.4628 183.328 74.1988C183.136 74.9028 182.928 75.5748 182.704 76.2148C182.48 76.8548 182.24 77.3668 181.984 77.7508C181.76 78.1348 181.488 78.4548 181.168 78.7108C180.848 78.9348 180.464 79.0468 180.016 79.0468ZM203.523 80.4868C202.947 80.4868 202.515 80.2948 202.227 79.9108C201.939 79.5268 201.747 79.0788 201.651 78.5668C201.555 78.0228 201.459 77.5428 201.363 77.1268V73.5748C201.363 71.7828 201.443 69.9748 201.603 68.1508C201.763 66.2948 201.843 64.4868 201.843 62.7268C201.843 61.8948 201.763 61.0948 201.603 60.3268C201.443 59.5588 201.363 58.7748 201.363 57.9748V56.6788C201.619 56.1988 201.955 55.8468 202.371 55.6228C202.819 55.3988 203.283 55.2868 203.763 55.2868C204.467 55.2868 204.995 55.4948 205.347 55.9108C205.699 56.2948 205.939 56.7588 206.067 57.3028C206.227 57.8468 206.371 58.3428 206.499 58.7908C206.627 59.2068 206.835 59.4468 207.123 59.5108C208.051 58.9028 208.931 58.3108 209.763 57.7348C210.627 57.1588 211.523 56.6948 212.451 56.3428C213.411 55.9588 214.467 55.7668 215.619 55.7668C216.195 55.7668 216.803 55.8948 217.443 56.1508C218.115 56.4068 218.691 56.7748 219.171 57.2548C219.651 57.7028 219.891 58.2628 219.891 58.9348C219.891 59.7668 219.555 60.3748 218.883 60.7588C218.243 61.1428 217.635 61.3348 217.059 61.3348C216.675 61.3348 216.307 61.2548 215.955 61.0948C215.603 60.9348 215.235 60.8548 214.851 60.8548C213.731 60.8548 212.675 61.1428 211.683 61.7188C210.723 62.2628 209.875 62.9188 209.139 63.6868C208.403 64.4548 207.811 65.1748 207.363 65.8468C207.235 66.1348 207.139 66.6148 207.075 67.2868C207.011 67.9588 206.963 68.7268 206.931 69.5908C206.899 70.4228 206.867 71.2388 206.835 72.0388C206.835 72.8388 206.819 73.5268 206.787 74.1028C206.755 75.1588 206.643 76.1828 206.451 77.1748C206.291 78.1348 205.987 78.9348 205.539 79.5748C205.091 80.1828 204.419 80.4868 203.523 80.4868ZM229.408 80.4868C227.936 80.4868 226.56 80.1508 225.28 79.4788C224 78.8068 222.928 77.9108 222.064 76.7908C221.2 75.6388 220.64 74.3428 220.384 72.9028V70.4548C220.384 68.6628 220.704 66.8548 221.344 65.0308C221.984 63.2068 222.896 61.5268 224.08 59.9908C225.264 58.4228 226.672 57.1748 228.304 56.2468C229.936 55.2868 231.728 54.8068 233.68 54.8068C234.48 54.8068 235.168 54.9508 235.744 55.2388C236.352 55.5268 236.896 55.8308 237.376 56.1508C237.888 56.4388 238.384 56.6148 238.864 56.6788C239.12 55.3668 239.472 54.5028 239.92 54.0868C240.368 53.6388 240.976 53.4148 241.744 53.4148C242.672 53.4148 243.296 53.7188 243.616 54.3268C243.968 54.9028 244.144 55.6388 244.144 56.5348C244.144 58.2948 244.096 60.0228 244 61.7188C243.936 63.4148 243.904 65.1588 243.904 66.9508C243.904 68.3588 243.984 69.8148 244.144 71.3188C244.304 72.8228 244.384 74.2788 244.384 75.6868V76.6948C244.384 77.3988 244.24 78.0548 243.952 78.6628C243.696 79.2388 243.104 79.5268 242.176 79.5268C241.312 79.5268 240.688 79.2708 240.304 78.7588C239.952 78.2148 239.712 77.5748 239.584 76.8388C239.488 76.0708 239.392 75.3828 239.296 74.7748L239.104 74.5828C238.016 75.6708 237.04 76.6628 236.176 77.5588C235.344 78.4548 234.416 79.1748 233.392 79.7188C232.368 80.2308 231.04 80.4868 229.408 80.4868ZM228.928 75.6388C230.048 75.6388 231.104 75.3028 232.096 74.6308C233.12 73.9268 234.032 73.0308 234.832 71.9428C235.632 70.8228 236.256 69.6548 236.704 68.4388C237.152 67.2228 237.376 66.0868 237.376 65.0308C237.376 64.2308 237.264 63.4308 237.04 62.6308C236.816 61.7988 236.432 61.0948 235.888 60.5188C235.376 59.9428 234.64 59.6548 233.68 59.6548C232.624 59.6548 231.584 60.0228 230.56 60.7588C229.568 61.4948 228.672 62.4388 227.872 63.5908C227.072 64.7108 226.432 65.8948 225.952 67.1428C225.472 68.3588 225.232 69.4628 225.232 70.4548C225.232 71.2548 225.344 72.0548 225.568 72.8548C225.824 73.6548 226.224 74.3268 226.768 74.8708C227.312 75.3828 228.032 75.6388 228.928 75.6388ZM259.186 80.7268C258.29 80.7268 257.266 80.6468 256.114 80.4868C254.962 80.3588 253.842 80.1028 252.754 79.7188C251.666 79.3348 250.754 78.7588 250.018 77.9908C249.314 77.2228 248.962 76.2148 248.962 74.9668C248.962 74.1348 249.17 73.4148 249.586 72.8068C250.002 72.1668 250.674 71.8468 251.602 71.8468C252.178 71.8468 252.626 71.9908 252.946 72.2788C253.266 72.5668 253.538 72.9188 253.762 73.3348C254.018 73.7508 254.306 74.1828 254.626 74.6308C254.978 75.0468 255.442 75.3988 256.018 75.6868C256.626 75.9748 257.442 76.1188 258.466 76.1188C259.202 76.1188 260.002 76.0388 260.866 75.8788C261.762 75.6868 262.53 75.3508 263.17 74.8708C263.81 74.3908 264.13 73.7348 264.13 72.9028C264.13 72.1668 263.826 71.5908 263.218 71.1748C262.61 70.7268 261.826 70.3428 260.866 70.0228C259.906 69.7028 258.898 69.3828 257.842 69.0628C256.786 68.7108 255.778 68.2788 254.818 67.7668C253.858 67.2548 253.074 66.5828 252.466 65.7508C251.858 64.8868 251.554 63.7828 251.554 62.4388C251.554 61.1908 251.858 60.1188 252.466 59.2228C253.074 58.3268 253.858 57.5908 254.818 57.0148C255.81 56.4068 256.866 55.9748 257.986 55.7188C259.138 55.4308 260.242 55.2868 261.298 55.2868C261.906 55.2868 262.61 55.3668 263.41 55.5268C264.21 55.6548 264.994 55.8788 265.762 56.1988C266.53 56.5188 267.17 56.9668 267.682 57.5428C268.194 58.0868 268.45 58.7748 268.45 59.6068C268.45 61.0788 267.714 61.8148 266.242 61.8148H265.618C264.658 61.2708 263.842 60.8548 263.17 60.5668C262.498 60.2788 261.73 60.1348 260.866 60.1348C260.482 60.1348 259.938 60.1828 259.234 60.2788C258.562 60.3428 257.954 60.5188 257.41 60.8068C256.866 61.0948 256.594 61.5588 256.594 62.1988C256.594 62.7428 256.898 63.1908 257.506 63.5428C258.114 63.8948 258.898 64.2308 259.858 64.5508C260.818 64.8708 261.826 65.2228 262.882 65.6068C263.938 65.9908 264.946 66.4868 265.906 67.0948C266.866 67.6708 267.65 68.4068 268.258 69.3028C268.866 70.1988 269.17 71.3188 269.17 72.6628C269.17 74.6148 268.674 76.1828 267.682 77.3668C266.722 78.5508 265.474 79.4148 263.938 79.9588C262.434 80.4708 260.85 80.7268 259.186 80.7268ZM276.847 79.7668C275.951 79.7668 275.279 79.4628 274.831 78.8548C274.415 78.2148 274.207 77.4788 274.207 76.6468C274.207 74.7268 274.319 72.7748 274.543 70.7908C274.799 68.8068 274.927 66.8868 274.927 65.0308C274.927 61.8308 274.799 58.7108 274.543 55.6708C274.319 52.6308 274.207 49.5108 274.207 46.3108V45.0628C274.431 44.5508 274.735 44.1988 275.119 44.0068C275.535 43.7828 275.967 43.6708 276.415 43.6708C277.151 43.6708 277.743 43.9268 278.191 44.4388C278.671 44.9508 279.039 45.5748 279.295 46.3108C279.551 47.0468 279.727 47.7828 279.823 48.5188C279.951 49.2548 280.015 49.8628 280.015 50.3428V66.2788L280.303 66.5668L280.351 66.5188C281.215 65.6548 282.031 64.6788 282.799 63.5908C283.599 62.5028 284.415 61.4628 285.247 60.4708C286.111 59.4468 287.055 58.5988 288.079 57.9268C289.135 57.2548 290.351 56.9188 291.727 56.9188C292.943 56.9188 293.983 57.2388 294.847 57.8788C295.743 58.5188 296.447 59.3508 296.959 60.3748C297.471 61.3988 297.807 62.4708 297.967 63.5908L299.407 73.7668V75.2068C299.407 75.7188 299.375 76.2628 299.311 76.8388C299.247 77.3828 299.055 77.8468 298.735 78.2308C298.447 78.6148 297.935 78.8068 297.199 78.8068C296.367 78.8068 295.711 78.4868 295.231 77.8468C294.783 77.1748 294.463 76.3588 294.271 75.3988C294.079 74.4388 293.951 73.4948 293.887 72.5668C293.823 71.6388 293.759 70.9028 293.695 70.3588C293.663 70.1348 293.615 69.7188 293.551 69.1108C293.519 68.5028 293.455 67.7988 293.359 66.9988C293.263 66.1988 293.135 65.4308 292.975 64.6948C292.815 63.9268 292.607 63.3028 292.351 62.8228C292.127 62.3108 291.839 62.0548 291.487 62.0548C290.943 62.0548 290.399 62.2788 289.855 62.7268C289.311 63.1748 288.863 63.6388 288.511 64.1188C286.847 66.2948 285.247 68.5988 283.711 71.0308C282.207 73.4308 280.703 75.7828 279.199 78.0868C278.943 78.5028 278.623 78.8868 278.239 79.2388C277.855 79.5908 277.391 79.7668 276.847 79.7668Z" fill="#F5F9E9"/>
<g id="gameTitle__font--blue">
<path d="M144.016 120C141.2 120 138.64 119.424 136.336 118.272C134.075 117.12 132.112 115.584 130.448 113.664C128.827 111.744 127.568 109.589 126.672 107.2C125.819 104.768 125.392 102.272 125.392 99.712C125.392 94.1653 126.757 89.6 129.488 86.016C132.261 82.3893 136.229 79.5733 141.392 77.568C142.672 77.056 144.165 76.5653 145.872 76.096C147.579 75.584 149.179 75.328 150.672 75.328C151.995 75.328 153.275 75.52 154.512 75.904C155.792 76.2453 156.859 76.9067 157.712 77.888C158.011 78.3573 158.224 78.848 158.352 79.36C158.523 79.8293 158.715 80.2987 158.928 80.768H158.992C159.077 80.896 159.269 81.1733 159.568 81.6C159.867 81.984 160.165 82.3893 160.464 82.816C160.763 83.2 160.976 83.4773 161.104 83.648C162.811 85.824 163.941 88.064 164.496 90.368C165.093 92.6293 165.392 95.104 165.392 97.792C165.392 100.651 164.88 103.424 163.856 106.112C162.832 108.757 161.36 111.125 159.44 113.216C157.563 115.307 155.323 116.971 152.72 118.208C150.117 119.403 147.216 120 144.016 120ZM144.72 112.832C146.853 112.832 148.709 112.363 150.288 111.424C151.909 110.443 153.253 109.163 154.32 107.584C155.387 105.963 156.176 104.235 156.688 102.4C157.243 100.523 157.52 98.688 157.52 96.896C157.52 95.9573 157.349 94.72 157.008 93.184C156.709 91.648 156.219 90.112 155.536 88.576C154.853 87.04 153.979 85.76 152.912 84.736C151.845 83.6693 150.544 83.136 149.008 83.136C146.619 83.136 144.443 83.6053 142.48 84.544C140.56 85.44 138.896 86.6773 137.488 88.256C136.123 89.8347 135.056 91.6053 134.288 93.568C133.563 95.5307 133.2 97.5787 133.2 99.712C133.2 101.888 133.605 103.979 134.416 105.984C135.269 107.989 136.528 109.632 138.192 110.912C139.899 112.192 142.075 112.832 144.72 112.832ZM150.736 107.072C149.669 106.261 149.115 105.28 149.072 104.128C149.029 102.933 149.264 101.952 149.776 101.184C150.373 100.203 151.099 99.6053 151.952 99.392C152.848 99.1787 153.616 99.2427 154.256 99.584C157.243 101.419 159.675 102.955 161.552 104.192C163.472 105.429 165.243 106.624 166.864 107.776C168.528 108.885 170.491 110.165 172.752 111.616C173.819 112.384 174.416 113.344 174.544 114.496C174.672 115.605 174.501 116.523 174.032 117.248C173.563 117.973 172.709 118.635 171.472 119.232C170.235 119.787 169.317 119.851 168.72 119.424C166.672 117.845 164.24 116.16 161.424 114.368C158.608 112.533 155.045 110.101 150.736 107.072ZM183.306 119.36C181.471 119.36 179.935 118.976 178.698 118.208C177.503 117.397 176.565 116.352 175.882 115.072C175.199 113.792 174.709 112.405 174.41 110.912C174.154 109.376 174.026 107.861 174.026 106.368V103.232C174.026 103.104 174.09 102.613 174.218 101.76C174.346 100.864 174.474 99.904 174.602 98.88C174.773 97.856 174.901 97.088 174.986 96.576C175.114 95.9787 175.263 95.232 175.434 94.336C175.647 93.3973 175.903 92.48 176.202 91.584C176.543 90.6453 176.97 89.8773 177.482 89.28C178.037 88.64 178.698 88.32 179.466 88.32C180.618 88.32 181.493 88.6613 182.09 89.344C182.73 90.0267 183.05 90.8587 183.05 91.84C183.05 92.6507 182.922 93.44 182.666 94.208C182.453 94.976 182.261 95.7653 182.09 96.576C181.791 98.1973 181.493 99.8187 181.194 101.44C180.938 103.061 180.81 104.704 180.81 106.368C180.81 106.965 180.853 107.733 180.938 108.672C181.023 109.611 181.258 110.443 181.642 111.168C182.026 111.893 182.687 112.256 183.626 112.256C184.351 112.256 185.205 111.787 186.186 110.848C187.21 109.909 188.277 108.693 189.386 107.2C190.538 105.707 191.69 104.085 192.842 102.336C193.994 100.544 195.061 98.816 196.042 97.152C197.066 95.4453 197.941 93.952 198.666 92.672C199.391 91.3493 199.903 90.432 200.202 89.92C200.543 89.4507 200.906 89.0667 201.29 88.768C201.674 88.4693 202.165 88.32 202.762 88.32C204.767 88.32 205.962 89.2587 206.346 91.136V93.44C206.346 95.3173 206.282 97.1947 206.154 99.072C206.069 100.907 206.026 102.699 206.026 104.448V108.224C206.154 108.907 206.431 109.525 206.858 110.08C207.285 110.635 207.669 111.189 208.01 111.744C208.394 112.256 208.586 112.875 208.586 113.6C208.586 114.581 208.287 115.413 207.69 116.096C207.093 116.779 206.303 117.12 205.322 117.12C204.042 117.12 203.018 116.693 202.25 115.84C201.482 114.944 200.885 113.899 200.458 112.704C200.202 111.936 199.903 110.955 199.562 109.76C199.263 108.523 198.965 107.307 198.666 106.112C198.026 107.221 197.301 108.331 196.49 109.44C195.722 110.507 194.911 111.552 194.058 112.576C192.693 114.283 191.093 115.84 189.258 117.248C187.423 118.656 185.439 119.36 183.306 119.36ZM232.351 120.96C229.279 120.96 226.441 120.491 223.839 119.552C221.279 118.571 219.209 117.035 217.631 114.944C216.052 112.811 215.263 110.059 215.263 106.688C215.263 104.128 215.668 101.632 216.479 99.2C217.332 96.768 218.548 94.5707 220.127 92.608C221.705 90.6027 223.604 89.024 225.823 87.872C228.041 86.6773 230.537 86.08 233.311 86.08C235.188 86.08 236.937 86.464 238.559 87.232C240.223 87.9573 241.545 89.0453 242.527 90.496C243.551 91.904 244.062 93.632 244.062 95.68C244.062 97.6427 243.657 99.52 242.847 101.312C242.036 103.104 240.927 104.704 239.519 106.112C238.111 107.52 236.511 108.629 234.719 109.44C232.969 110.208 231.135 110.592 229.215 110.592C228.916 110.592 228.255 110.528 227.231 110.4C226.207 110.229 225.396 110.059 224.799 109.888C224.372 109.803 224.031 109.632 223.775 109.376C223.689 109.333 223.54 109.269 223.327 109.184C223.113 109.056 222.964 108.992 222.879 108.992C223.177 110.229 223.796 111.275 224.735 112.128C225.716 112.939 226.825 113.536 228.062 113.92C229.343 114.304 230.559 114.496 231.711 114.496C232.521 114.496 233.332 114.453 234.143 114.368C234.996 114.24 235.892 114.176 236.831 114.176C237.769 114.176 238.58 114.432 239.263 114.944C239.945 115.456 240.287 116.288 240.287 117.44C240.287 118.379 239.988 119.104 239.391 119.616C238.836 120.128 238.111 120.469 237.215 120.64C236.361 120.811 235.487 120.896 234.591 120.896C233.737 120.939 232.991 120.96 232.351 120.96ZM229.215 103.168C230.495 103.168 231.753 102.933 232.991 102.464C234.271 101.952 235.316 101.205 236.127 100.224C236.98 99.2427 237.407 98.0267 237.407 96.576C237.407 95.3387 237.023 94.3573 236.255 93.632C235.529 92.9067 234.548 92.544 233.311 92.544C232.201 92.544 231.028 92.8427 229.791 93.44C228.553 94.0373 227.38 94.8053 226.271 95.744C225.204 96.6827 224.329 97.7067 223.647 98.816C222.964 99.8827 222.623 100.928 222.623 101.952V102.208C223.732 102.379 224.841 102.592 225.951 102.848C227.06 103.061 228.148 103.168 229.215 103.168ZM267.788 120.96C264.716 120.96 261.879 120.491 259.276 119.552C256.716 118.571 254.647 117.035 253.068 114.944C251.489 112.811 250.7 110.059 250.7 106.688C250.7 104.128 251.105 101.632 251.916 99.2C252.769 96.768 253.985 94.5707 255.564 92.608C257.143 90.6027 259.041 89.024 261.26 87.872C263.479 86.6773 265.975 86.08 268.748 86.08C270.625 86.08 272.375 86.464 273.996 87.232C275.66 87.9573 276.983 89.0453 277.964 90.496C278.988 91.904 279.5 93.632 279.5 95.68C279.5 97.6427 279.095 99.52 278.284 101.312C277.473 103.104 276.364 104.704 274.956 106.112C273.548 107.52 271.948 108.629 270.156 109.44C268.407 110.208 266.572 110.592 264.652 110.592C264.353 110.592 263.692 110.528 262.668 110.4C261.644 110.229 260.833 110.059 260.236 109.888C259.809 109.803 259.468 109.632 259.212 109.376C259.127 109.333 258.977 109.269 258.764 109.184C258.551 109.056 258.401 108.992 258.316 108.992C258.615 110.229 259.233 111.275 260.172 112.128C261.153 112.939 262.263 113.536 263.5 113.92C264.78 114.304 265.996 114.496 267.148 114.496C267.959 114.496 268.769 114.453 269.58 114.368C270.433 114.24 271.329 114.176 272.268 114.176C273.207 114.176 274.017 114.432 274.7 114.944C275.383 115.456 275.724 116.288 275.724 117.44C275.724 118.379 275.425 119.104 274.828 119.616C274.273 120.128 273.548 120.469 272.652 120.64C271.799 120.811 270.924 120.896 270.028 120.896C269.175 120.939 268.428 120.96 267.788 120.96ZM264.652 103.168C265.932 103.168 267.191 102.933 268.428 102.464C269.708 101.952 270.753 101.205 271.564 100.224C272.417 99.2427 272.844 98.0267 272.844 96.576C272.844 95.3387 272.46 94.3573 271.692 93.632C270.967 92.9067 269.985 92.544 268.748 92.544C267.639 92.544 266.465 92.8427 265.228 93.44C263.991 94.0373 262.817 94.8053 261.708 95.744C260.641 96.6827 259.767 97.7067 259.084 98.816C258.401 99.8827 258.06 100.928 258.06 101.952V102.208C259.169 102.379 260.279 102.592 261.388 102.848C262.497 103.061 263.585 103.168 264.652 103.168ZM291.194 118.72C290.127 118.72 289.338 118.421 288.826 117.824C288.314 117.184 287.994 116.416 287.866 115.52C287.738 114.581 287.674 113.685 287.674 112.832C287.674 110.869 287.716 108.907 287.802 106.944C287.93 104.981 287.994 103.104 287.994 101.312C287.994 99.392 287.78 97.5573 287.354 95.808C286.927 94.0587 286.714 92.3093 286.714 90.56V88.064C287.098 87.168 287.503 86.5707 287.93 86.272C288.356 85.9307 288.932 85.76 289.658 85.76C290.98 85.76 291.94 86.1867 292.538 87.04C293.135 87.8507 293.519 88.832 293.69 89.984C293.903 91.0933 294.052 92.1173 294.138 93.056C294.18 93.5253 294.266 94.4427 294.394 95.808C294.564 97.1733 294.671 98.4533 294.714 99.648H294.97L295.226 99.392C296.036 98.1973 296.89 96.9173 297.786 95.552C298.682 94.1867 299.663 92.9067 300.73 91.712C301.839 90.5173 303.055 89.5573 304.378 88.832C305.7 88.064 307.194 87.68 308.858 87.68C310.991 87.68 312.804 88.2987 314.298 89.536C315.791 90.7307 317.05 92.3093 318.074 94.272C319.098 96.192 319.93 98.2827 320.569 100.544C321.21 102.805 321.722 105.003 322.106 107.136C322.49 109.269 322.831 111.104 323.13 112.64V114.24C323.13 115.179 322.874 116.117 322.362 117.056C321.85 117.952 321.039 118.4 319.93 118.4C318.778 118.4 317.924 118.101 317.37 117.504C316.858 116.907 316.516 116.139 316.346 115.2C316.26 114.816 316.154 114.197 316.026 113.344C315.898 112.448 315.748 111.488 315.578 110.464C315.407 109.397 315.258 108.416 315.13 107.52C315.002 106.581 314.895 105.899 314.81 105.472C314.682 104.619 314.383 103.616 313.914 102.464C313.487 101.269 313.082 100.245 312.698 99.392C312.314 98.496 311.823 97.5573 311.226 96.576C310.628 95.5947 309.754 95.104 308.602 95.104C307.578 95.104 306.639 95.4667 305.786 96.192C304.975 96.9173 304.25 97.7707 303.61 98.752C303.012 99.7333 302.479 100.608 302.01 101.376C300.943 103.083 299.983 104.789 299.13 106.496C298.276 108.203 297.359 110.059 296.378 112.064C295.994 112.875 295.631 113.813 295.29 114.88C294.948 115.904 294.479 116.8 293.882 117.568C293.284 118.336 292.388 118.72 291.194 118.72ZM341.999 120.96C340.804 120.96 339.439 120.853 337.903 120.64C336.367 120.469 334.873 120.128 333.423 119.616C331.972 119.104 330.756 118.336 329.775 117.312C328.836 116.288 328.367 114.944 328.367 113.28C328.367 112.171 328.644 111.211 329.199 110.4C329.753 109.547 330.649 109.12 331.887 109.12C332.655 109.12 333.252 109.312 333.679 109.696C334.105 110.08 334.468 110.549 334.767 111.104C335.108 111.659 335.492 112.235 335.919 112.832C336.388 113.387 337.007 113.856 337.775 114.24C338.585 114.624 339.673 114.816 341.039 114.816C342.02 114.816 343.087 114.709 344.239 114.496C345.433 114.24 346.457 113.792 347.311 113.152C348.164 112.512 348.591 111.637 348.591 110.528C348.591 109.547 348.185 108.779 347.375 108.224C346.564 107.627 345.519 107.115 344.239 106.688C342.959 106.261 341.615 105.835 340.207 105.408C338.799 104.939 337.455 104.363 336.175 103.68C334.895 102.997 333.849 102.101 333.039 100.992C332.228 99.84 331.823 98.368 331.823 96.576C331.823 94.912 332.228 93.4827 333.039 92.288C333.849 91.0933 334.895 90.112 336.175 89.344C337.497 88.5333 338.905 87.9573 340.399 87.616C341.935 87.232 343.407 87.04 344.815 87.04C345.625 87.04 346.564 87.1467 347.631 87.36C348.697 87.5307 349.743 87.8293 350.767 88.256C351.791 88.6827 352.644 89.28 353.327 90.048C354.009 90.7733 354.351 91.6907 354.351 92.8C354.351 94.7627 353.369 95.744 351.407 95.744H350.575C349.295 95.0187 348.207 94.464 347.311 94.08C346.415 93.696 345.391 93.504 344.239 93.504C343.727 93.504 343.001 93.568 342.062 93.696C341.167 93.7813 340.356 94.016 339.631 94.4C338.905 94.784 338.543 95.4027 338.543 96.256C338.543 96.9813 338.948 97.5787 339.759 98.048C340.569 98.5173 341.615 98.9653 342.895 99.392C344.175 99.8187 345.519 100.288 346.927 100.8C348.335 101.312 349.679 101.973 350.959 102.784C352.239 103.552 353.284 104.533 354.095 105.728C354.905 106.923 355.311 108.416 355.311 110.208C355.311 112.811 354.649 114.901 353.327 116.48C352.047 118.059 350.383 119.211 348.335 119.936C346.329 120.619 344.217 120.96 341.999 120.96Z" fill="#5AB4AB"/>
<path d="M136.336 118.272L133.159 124.509L133.182 124.521L133.206 124.533L136.336 118.272ZM130.448 113.664L125.1 118.18L125.129 118.215L125.158 118.249L130.448 113.664ZM126.672 107.2L120.067 109.518L120.092 109.588L120.118 109.658L126.672 107.2ZM129.488 86.016L123.927 81.7638L123.92 81.7737L129.488 86.016ZM141.392 77.568L143.927 84.093L143.959 84.0804L143.992 84.0673L141.392 77.568ZM145.872 76.096L147.728 82.8454L147.806 82.824L147.883 82.8008L145.872 76.096ZM154.512 75.904L152.437 82.5894L152.572 82.6313L152.708 82.6676L154.512 75.904ZM157.712 77.888L163.618 74.1299L163.337 73.6891L162.994 73.2947L157.712 77.888ZM158.352 79.36L151.561 81.0578L151.649 81.4105L151.773 81.7522L158.352 79.36ZM158.928 80.768L152.555 83.6646L154.421 87.768H158.928V80.768ZM158.992 80.768L164.816 76.8851L162.738 73.768H158.992V80.768ZM159.568 81.6L153.833 85.6142L153.934 85.7585L154.043 85.8976L159.568 81.6ZM160.464 82.816L154.729 86.8302L154.83 86.9745L154.939 87.1136L160.464 82.816ZM161.104 83.648L155.504 87.848L155.549 87.9085L155.596 87.968L161.104 83.648ZM164.496 90.368L157.69 92.0064L157.708 92.0813L157.728 92.1557L164.496 90.368ZM163.856 106.112L170.384 108.639L170.391 108.621L170.397 108.604L163.856 106.112ZM159.44 113.216L154.284 108.481L154.258 108.51L154.232 108.539L159.44 113.216ZM152.72 118.208L155.64 124.57L155.683 124.55L155.726 124.53L152.72 118.208ZM150.288 111.424L153.866 117.441L153.889 117.427L153.913 117.412L150.288 111.424ZM154.32 107.584L160.12 111.503L160.144 111.467L160.168 111.431L154.32 107.584ZM156.688 102.4L149.975 100.417L149.96 100.467L149.946 100.518L156.688 102.4ZM157.008 93.184L150.137 94.5201L150.154 94.6116L150.175 94.7025L157.008 93.184ZM155.536 88.576L161.933 85.733L161.933 85.733L155.536 88.576ZM152.912 84.736L147.962 89.6857L148.013 89.7362L148.064 89.7857L152.912 84.736ZM142.48 84.544L145.44 90.8873L145.47 90.8733L145.5 90.8589L142.48 84.544ZM137.488 88.256L132.264 83.5967L132.228 83.6365L132.193 83.6769L137.488 88.256ZM134.288 93.568L127.769 91.0172L127.745 91.0791L127.722 91.1414L134.288 93.568ZM134.416 105.984L127.926 108.608L127.95 108.666L127.975 108.725L134.416 105.984ZM138.192 110.912L133.924 116.46L133.958 116.486L133.992 116.512L138.192 110.912ZM150.736 107.072L146.5 112.645L146.604 112.724L146.71 112.799L150.736 107.072ZM149.072 104.128L142.076 104.378L142.077 104.387L149.072 104.128ZM149.776 101.184L155.6 105.067L155.68 104.947L155.755 104.824L149.776 101.184ZM151.952 99.392L150.331 92.5824L150.292 92.5915L150.254 92.601L151.952 99.392ZM154.256 99.584L157.92 93.6195L157.738 93.5079L157.55 93.4075L154.256 99.584ZM161.552 104.192L157.7 110.037L157.73 110.057L157.76 110.076L161.552 104.192ZM166.864 107.776L162.81 113.482L162.894 113.543L162.981 113.6L166.864 107.776ZM172.752 111.616L176.842 105.935L176.69 105.826L176.532 105.724L172.752 111.616ZM174.544 114.496L167.587 115.269L167.588 115.284L167.59 115.298L174.544 114.496ZM174.032 117.248L168.155 113.445L168.155 113.445L174.032 117.248ZM171.472 119.232L174.335 125.62L174.426 125.579L174.515 125.536L171.472 119.232ZM168.72 119.424L164.446 124.968L164.548 125.046L164.651 125.12L168.72 119.424ZM161.424 114.368L157.603 120.233L157.634 120.254L157.666 120.274L161.424 114.368ZM144.016 113C142.184 113 140.71 112.633 139.466 112.011L133.206 124.533C136.57 126.215 140.216 127 144.016 127V113ZM139.513 112.035C138.057 111.293 136.812 110.318 135.738 109.079L125.158 118.249C127.412 120.85 130.092 122.947 133.159 124.509L139.513 112.035ZM135.796 109.148C134.7 107.849 133.845 106.393 133.226 104.742L120.118 109.658C121.291 112.785 122.954 115.639 125.1 118.18L135.796 109.148ZM133.277 104.882C132.683 103.19 132.392 101.477 132.392 99.712H118.392C118.392 103.067 118.954 106.346 120.067 109.518L133.277 104.882ZM132.392 99.712C132.392 95.3362 133.452 92.3636 135.056 90.2583L123.92 81.7737C120.063 86.8364 118.392 92.9945 118.392 99.712H132.392ZM135.049 90.2681C136.89 87.8607 139.706 85.7324 143.927 84.093L138.857 71.043C132.753 73.4143 127.633 76.918 123.927 81.7638L135.049 90.2681ZM143.992 84.0673C144.972 83.6753 146.207 83.2637 147.728 82.8454L144.016 69.3466C142.124 69.8669 140.372 70.4367 138.792 71.0687L143.992 84.0673ZM147.883 82.8008C149.059 82.448 149.977 82.328 150.672 82.328V68.328C148.381 68.328 146.098 68.72 143.861 69.3912L147.883 82.8008ZM150.672 82.328C151.306 82.328 151.886 82.4183 152.437 82.5894L156.587 69.2186C154.664 68.6217 152.683 68.328 150.672 68.328V82.328ZM152.708 82.6676C152.72 82.6709 152.667 82.6569 152.583 82.6053C152.499 82.5531 152.447 82.5006 152.43 82.4812L162.994 73.2947C161.206 71.2382 158.919 69.8346 156.316 69.1404L152.708 82.6676ZM151.806 81.6461C151.723 81.5152 151.625 81.3143 151.561 81.0578L165.143 77.6622C164.823 76.3817 164.298 75.1994 163.618 74.1299L151.806 81.6461ZM151.773 81.7522C152.008 82.3977 152.269 83.0352 152.555 83.6646L165.301 77.8714C165.16 77.5621 165.037 77.261 164.931 76.9678L151.773 81.7522ZM158.928 87.768H158.992V73.768H158.928V87.768ZM153.168 84.6509C153.306 84.858 153.546 85.2042 153.833 85.6142L165.303 77.5858C165.157 77.3777 165.042 77.2125 164.955 77.0875C164.912 77.0252 164.878 76.9762 164.853 76.9392C164.826 76.8999 164.816 76.8842 164.816 76.8851L153.168 84.6509ZM154.043 85.8976C154.264 86.1827 154.493 86.4931 154.729 86.8302L166.199 78.8018C165.837 78.2856 165.469 77.7853 165.093 77.3024L154.043 85.8976ZM154.939 87.1136C155.236 87.4954 155.416 87.7306 155.504 87.848L166.704 79.448C166.536 79.224 166.29 78.9046 165.989 78.5184L154.939 87.1136ZM155.596 87.968C156.785 89.4845 157.407 90.8288 157.69 92.0064L171.302 88.7296C170.476 85.2992 168.836 82.1635 166.612 79.328L155.596 87.968ZM157.728 92.1557C158.15 93.7544 158.392 95.6196 158.392 97.792H172.392C172.392 94.5884 172.036 91.5042 171.264 88.5803L157.728 92.1557ZM158.392 97.792C158.392 99.7936 158.037 101.723 157.315 103.62L170.397 108.604C171.723 105.125 172.392 101.508 172.392 97.792H158.392ZM157.328 103.585C156.62 105.415 155.613 107.034 154.284 108.481L164.596 117.951C167.107 115.217 169.044 112.1 170.384 108.639L157.328 103.585ZM154.232 108.539C152.989 109.923 151.503 111.036 149.714 111.886L155.726 124.53C159.142 122.906 162.137 120.69 164.648 117.893L154.232 108.539ZM149.8 111.846C148.216 112.573 146.327 113 144.016 113V127C148.105 127 152.019 126.232 155.64 124.57L149.8 111.846ZM144.72 119.832C147.906 119.832 151.04 119.121 153.866 117.441L146.71 105.407C146.379 105.605 145.8 105.832 144.72 105.832V119.832ZM153.913 117.412C156.405 115.904 158.49 113.916 160.12 111.503L148.52 103.665C148.017 104.409 147.414 104.981 146.663 105.435L153.913 117.412ZM160.168 111.431C161.625 109.217 162.72 106.827 163.43 104.282L149.946 100.518C149.632 101.642 149.148 102.709 148.472 103.737L160.168 111.431ZM163.401 104.383C164.129 101.921 164.52 99.4184 164.52 96.896H150.52C150.52 97.9576 150.357 99.1242 149.975 100.417L163.401 104.383ZM164.52 96.896C164.52 95.2191 164.23 93.4138 163.841 91.6655L150.175 94.7025C150.469 96.0262 150.52 96.6955 150.52 96.896H164.52ZM163.879 91.8479C163.473 89.7565 162.814 87.7163 161.933 85.733L149.139 91.419C149.623 92.5077 149.946 93.5395 150.137 94.5201L163.879 91.8479ZM161.933 85.733C160.932 83.4807 159.564 81.4186 157.76 79.6863L148.064 89.7857C148.393 90.1014 148.775 90.5993 149.139 91.419L161.933 85.733ZM157.862 79.7863C155.456 77.3802 152.363 76.136 149.008 76.136V90.136C148.95 90.136 148.748 90.1223 148.481 90.0131C148.212 89.9029 148.037 89.7605 147.962 89.6857L157.862 79.7863ZM149.008 76.136C145.677 76.136 142.455 76.7966 139.46 78.2291L145.5 90.8589C146.43 90.4141 147.56 90.136 149.008 90.136V76.136ZM139.52 78.2007C136.74 79.4979 134.305 81.3077 132.264 83.5967L142.712 92.9153C143.487 92.047 144.38 91.3821 145.44 90.8873L139.52 78.2007ZM132.193 83.6769C130.303 85.8632 128.824 88.3212 127.769 91.0172L140.807 96.1188C141.288 94.8895 141.943 93.8061 142.783 92.8351L132.193 83.6769ZM127.722 91.1414C126.704 93.8963 126.2 96.767 126.2 99.712H140.2C140.2 98.3903 140.421 97.1651 140.854 95.9945L127.722 91.1414ZM126.2 99.712C126.2 102.782 126.776 105.763 127.926 108.608L140.906 103.36C140.434 102.194 140.2 100.994 140.2 99.712H126.2ZM127.975 108.725C129.281 111.793 131.269 114.418 133.924 116.46L142.46 105.364C141.787 104.846 141.258 104.185 140.857 103.243L127.975 108.725ZM133.992 116.512C137.176 118.9 140.93 119.832 144.72 119.832V105.832C143.219 105.832 142.621 105.484 142.392 105.312L133.992 116.512ZM154.972 101.499C155.056 101.563 155.343 101.805 155.614 102.284C155.9 102.79 156.048 103.353 156.067 103.869L142.077 104.387C142.21 107.987 144.067 110.796 146.5 112.645L154.972 101.499ZM156.068 103.878C156.062 103.718 156.113 104.298 155.6 105.067L143.952 97.3011C142.415 99.6061 141.997 102.149 142.076 104.378L156.068 103.878ZM155.755 104.824C155.734 104.859 155.578 105.107 155.218 105.404C154.834 105.72 154.3 106.02 153.65 106.183L150.254 92.601C147.118 93.3852 145.047 95.4904 143.797 97.5444L155.755 104.824ZM153.573 106.202C153.271 106.274 152.201 106.421 150.962 105.76L157.55 93.4075C155.031 92.0642 152.425 92.0836 150.331 92.5824L153.573 106.202ZM150.592 105.549C153.546 107.363 155.909 108.856 157.7 110.037L165.404 98.3473C163.441 97.0531 160.939 95.4742 157.92 93.6195L150.592 105.549ZM157.76 110.076C159.604 111.264 161.286 112.4 162.81 113.482L170.918 102.07C169.199 100.848 167.34 99.5944 165.344 98.308L157.76 110.076ZM162.981 113.6C164.689 114.739 166.687 116.042 168.972 117.508L176.532 105.724C174.294 104.289 172.367 103.032 170.747 101.952L162.981 113.6ZM168.662 117.297C168.573 117.233 168.312 117.021 168.057 116.61C167.789 116.18 167.635 115.705 167.587 115.269L181.501 113.723C181.124 110.329 179.277 107.689 176.842 105.935L168.662 117.297ZM167.59 115.298C167.587 115.274 167.511 114.44 168.155 113.445L179.909 121.051C181.491 118.605 181.757 115.937 181.498 113.694L167.59 115.298ZM168.155 113.445C168.44 113.004 168.704 112.792 168.752 112.755C168.8 112.718 168.72 112.788 168.429 112.928L174.515 125.536C176.289 124.68 178.445 123.314 179.909 121.051L168.155 113.445ZM168.609 112.844C168.418 112.93 168.715 112.759 169.369 112.713C170.111 112.661 171.457 112.777 172.789 113.728L164.651 125.12C168.528 127.889 172.725 126.342 174.335 125.62L168.609 112.844ZM172.994 113.88C170.74 112.143 168.127 110.337 165.182 108.462L157.666 120.274C160.353 121.983 162.604 123.548 164.446 124.968L172.994 113.88ZM165.245 108.503C162.525 106.731 159.037 104.351 154.762 101.345L146.71 112.799C151.054 115.852 154.691 118.336 157.603 120.233L165.245 108.503ZM178.698 118.208L174.767 124L174.885 124.08L175.006 124.155L178.698 118.208ZM175.882 115.072L182.058 111.778L182.058 111.778L175.882 115.072ZM174.41 110.912L167.505 112.063L167.524 112.174L167.546 112.285L174.41 110.912ZM174.218 101.76L181.141 102.798L181.144 102.774L181.148 102.75L174.218 101.76ZM174.602 98.88L167.697 97.7292L167.674 97.8701L167.656 98.0118L174.602 98.88ZM174.986 96.576L168.141 95.1093L168.108 95.2666L168.081 95.4252L174.986 96.576ZM175.434 94.336L168.608 92.7846L168.581 92.905L168.558 93.0262L175.434 94.336ZM176.202 91.584L169.623 89.1918L169.591 89.2807L169.561 89.3704L176.202 91.584ZM177.482 89.28L172.192 84.6955L172.18 84.7099L172.167 84.7245L177.482 89.28ZM182.09 89.344L176.822 93.9535L176.901 94.0439L176.983 94.1316L182.09 89.344ZM182.666 94.208L176.025 91.9944L175.969 92.1631L175.921 92.3345L182.666 94.208ZM182.09 96.576L175.24 95.1339L175.222 95.2207L175.206 95.3079L182.09 96.576ZM181.194 101.44L174.31 100.172L174.294 100.26L174.28 100.348L181.194 101.44ZM180.938 108.672L173.967 109.306L173.967 109.306L180.938 108.672ZM181.642 111.168L175.455 114.443L175.455 114.443L181.642 111.168ZM186.186 110.848L181.456 105.688L181.401 105.738L181.347 105.79L186.186 110.848ZM189.386 107.2L183.844 102.924L183.805 102.975L183.767 103.026L189.386 107.2ZM192.842 102.336L198.688 106.186L198.709 106.154L198.73 106.121L192.842 102.336ZM196.042 97.152L190.04 93.5505L190.026 93.5733L190.012 93.5961L196.042 97.152ZM198.666 92.672L204.756 96.1231L204.78 96.0806L204.804 96.0378L198.666 92.672ZM200.202 89.92L194.541 85.8028L194.333 86.0881L194.156 86.3929L200.202 89.92ZM206.346 91.136H213.346V90.4274L213.204 89.7332L206.346 91.136ZM206.154 99.072L199.17 98.5958L199.165 98.6713L199.162 98.7468L206.154 99.072ZM206.026 108.224H199.026V108.875L199.146 109.514L206.026 108.224ZM206.858 110.08L201.31 114.348L201.31 114.348L206.858 110.08ZM208.01 111.744L202.048 115.413L202.217 115.687L202.41 115.944L208.01 111.744ZM202.25 115.84L196.935 120.396L196.99 120.46L197.047 120.523L202.25 115.84ZM200.458 112.704L193.817 114.918L193.841 114.988L193.866 115.058L200.458 112.704ZM199.562 109.76L192.757 111.402L192.791 111.544L192.831 111.683L199.562 109.76ZM198.666 106.112L205.457 104.414L201.257 87.6135L192.603 102.614L198.666 106.112ZM196.49 109.44L190.838 105.31L190.824 105.33L190.809 105.35L196.49 109.44ZM194.058 112.576L188.68 108.095L188.636 108.148L188.592 108.203L194.058 112.576ZM189.258 117.248L193.52 122.801L193.52 122.801L189.258 117.248ZM183.306 112.36C182.44 112.36 182.264 112.183 182.39 112.261L175.006 124.155C177.607 125.769 180.503 126.36 183.306 126.36V112.36ZM182.629 112.416C182.379 112.246 182.209 112.06 182.058 111.778L169.706 118.366C170.92 120.644 172.628 122.548 174.767 124L182.629 112.416ZM182.058 111.778C181.713 111.131 181.445 110.395 181.274 109.539L167.546 112.285C167.972 114.415 168.685 116.453 169.706 118.366L182.058 111.778ZM181.315 109.761C181.119 108.589 181.026 107.46 181.026 106.368H167.026C167.026 108.263 167.189 110.163 167.505 112.063L181.315 109.761ZM181.026 106.368V103.232H167.026V106.368H181.026ZM181.026 103.232C181.026 103.362 181.022 103.465 181.019 103.526C181.016 103.592 181.013 103.644 181.01 103.678C181.006 103.743 181.001 103.783 181.001 103.788C181 103.798 181.003 103.766 181.015 103.673C181.039 103.493 181.079 103.208 181.141 102.798L167.295 100.722C167.229 101.165 167.173 101.552 167.133 101.863C167.121 101.949 167.026 102.613 167.026 103.232H181.026ZM181.148 102.75C181.282 101.808 181.416 100.807 181.548 99.7482L167.656 98.0118C167.532 99.0006 167.41 99.9197 167.288 100.77L181.148 102.75ZM181.507 100.031C181.677 99.0068 181.805 98.2388 181.891 97.7268L168.081 95.4252C167.996 95.9372 167.868 96.7052 167.697 97.7292L181.507 100.031ZM181.831 98.0427C181.974 97.3746 182.134 96.5714 182.31 95.6458L168.558 93.0262C168.393 93.8926 168.254 94.5827 168.141 95.1093L181.831 98.0427ZM182.26 95.8873C182.423 95.168 182.618 94.4719 182.843 93.7976L169.561 89.3704C169.189 90.4881 168.871 91.6266 168.608 92.7846L182.26 95.8873ZM182.781 93.9762C182.842 93.8081 182.886 93.7241 182.897 93.7035C182.908 93.6839 182.88 93.7383 182.797 93.8355L172.167 84.7245C170.982 86.1074 170.178 87.6659 169.623 89.1918L182.781 93.9762ZM182.772 93.8645C182.521 94.154 182.089 94.5486 181.443 94.8611C180.78 95.182 180.089 95.32 179.466 95.32V81.32C176.445 81.32 173.923 82.6985 172.192 84.6955L182.772 93.8645ZM179.466 95.32C179.363 95.32 178.976 95.3057 178.441 95.097C177.868 94.8735 177.291 94.4892 176.822 93.9535L187.358 84.7345C185.089 82.1417 182.051 81.32 179.466 81.32V95.32ZM176.983 94.1316C176.717 93.8471 176.457 93.4616 176.277 92.9929C176.099 92.5299 176.05 92.1218 176.05 91.84H190.05C190.05 89.1757 189.117 86.6045 187.197 84.5564L176.983 94.1316ZM176.05 91.84C176.05 91.8994 176.043 91.9412 176.025 91.9944L189.307 96.4216C189.801 94.9388 190.05 93.402 190.05 91.84H176.05ZM175.921 92.3345C175.667 93.2506 175.44 94.184 175.24 95.1339L188.94 98.0181C189.081 97.3466 189.238 96.7014 189.411 96.0815L175.921 92.3345ZM175.206 95.3079C174.907 96.9292 174.608 98.5505 174.31 100.172L188.078 102.708C188.377 101.087 188.676 99.4655 188.974 97.8441L175.206 95.3079ZM174.28 100.348C173.966 102.336 173.81 104.343 173.81 106.368H187.81C187.81 105.065 187.91 103.787 188.108 102.532L174.28 100.348ZM173.81 106.368C173.81 107.261 173.872 108.262 173.967 109.306L187.909 108.038C187.834 107.205 187.81 106.669 187.81 106.368H173.81ZM173.967 109.306C174.124 111.032 174.578 112.785 175.455 114.443L187.829 107.893C187.88 107.99 187.905 108.065 187.915 108.1C187.925 108.133 187.916 108.117 187.909 108.038L173.967 109.306ZM175.455 114.443C176.229 115.904 177.424 117.224 179.06 118.122C180.645 118.991 182.264 119.256 183.626 119.256V105.256C184.05 105.256 184.868 105.34 185.792 105.846C186.767 106.381 187.439 107.157 187.829 107.893L175.455 114.443ZM183.626 119.256C187.186 119.256 189.753 117.123 191.025 115.906L181.347 105.79C181.138 105.99 181.167 105.919 181.437 105.77C181.703 105.624 182.474 105.256 183.626 105.256V119.256ZM190.916 116.008C192.356 114.689 193.714 113.112 195.005 111.374L183.767 103.026C182.839 104.275 182.064 105.13 181.456 105.688L190.916 116.008ZM194.928 111.476C196.198 109.83 197.451 108.065 198.688 106.186L186.996 98.4861C185.929 100.105 184.878 101.583 183.844 102.924L194.928 111.476ZM198.73 106.121C199.926 104.261 201.04 102.457 202.072 100.708L190.012 93.5961C189.081 95.1754 188.062 96.8267 186.954 98.5507L198.73 106.121ZM202.044 100.753C203.089 99.0131 203.994 97.4676 204.756 96.1231L192.576 89.2209C191.887 90.4364 191.043 91.8776 190.04 93.5505L202.044 100.753ZM204.804 96.0378C205.531 94.7118 206.002 93.8694 206.248 93.4471L194.156 86.3929C193.805 86.9946 193.252 87.9868 192.528 89.3062L204.804 96.0378ZM205.863 94.0372C205.89 93.9999 205.81 94.1202 205.588 94.2935L196.992 83.2425C196.002 84.0132 195.196 84.9014 194.541 85.8028L205.863 94.0372ZM205.588 94.2935C204.484 95.1521 203.358 95.32 202.762 95.32V81.32C200.972 81.32 198.864 81.7866 196.992 83.2425L205.588 94.2935ZM202.762 95.32C202.699 95.32 201.818 95.2985 200.837 94.5282C199.819 93.7285 199.539 92.788 199.488 92.5388L213.204 89.7332C212.769 87.6067 211.699 85.2582 209.487 83.5198C207.312 81.8108 204.83 81.32 202.762 81.32V95.32ZM199.346 91.136V93.44H213.346V91.136H199.346ZM199.346 93.44C199.346 95.1581 199.287 96.8766 199.17 98.5958L213.138 99.5482C213.277 97.5127 213.346 95.4766 213.346 93.44H199.346ZM199.162 98.7468C199.071 100.684 199.026 102.585 199.026 104.448H213.026C213.026 102.812 213.066 101.129 213.146 99.3972L199.162 98.7468ZM199.026 104.448V108.224H213.026V104.448H199.026ZM199.146 109.514C199.479 111.289 200.216 112.926 201.31 114.348L212.406 105.812C212.647 106.124 212.829 106.525 212.906 106.934L199.146 109.514ZM201.31 114.348C201.599 114.724 201.843 115.079 202.048 115.413L213.972 108.075C213.494 107.299 212.97 106.545 212.406 105.812L201.31 114.348ZM202.41 115.944C202.115 115.551 201.895 115.113 201.757 114.667C201.621 114.229 201.586 113.858 201.586 113.6H215.586C215.586 111.571 215.022 109.426 213.61 107.544L202.41 115.944ZM201.586 113.6C201.586 113.373 201.622 113.017 201.774 112.595C201.928 112.165 202.159 111.787 202.422 111.486L212.958 120.706C214.767 118.638 215.586 116.127 215.586 113.6H201.586ZM202.422 111.486C202.77 111.089 203.26 110.704 203.872 110.439C204.47 110.18 204.991 110.12 205.322 110.12V124.12C208.136 124.12 210.913 123.042 212.958 120.706L202.422 111.486ZM205.322 110.12C205.465 110.12 205.824 110.146 206.286 110.338C206.767 110.539 207.167 110.84 207.453 111.157L197.047 120.523C199.303 123.03 202.312 124.12 205.322 124.12V110.12ZM207.565 111.284C207.394 111.085 207.211 110.799 207.05 110.35L193.866 115.058C194.558 116.998 195.57 118.803 196.935 120.396L207.565 111.284ZM207.099 110.49C206.887 109.855 206.619 108.98 206.293 107.837L192.831 111.683C193.188 112.93 193.517 114.017 193.817 114.918L207.099 110.49ZM206.367 108.118C206.064 106.862 205.76 105.628 205.457 104.414L191.875 107.81C192.169 108.985 192.463 110.183 192.757 111.402L206.367 108.118ZM192.603 102.614C192.097 103.49 191.511 104.389 190.838 105.31L202.142 113.57C203.09 112.272 203.955 110.952 204.729 109.61L192.603 102.614ZM190.809 105.35C190.139 106.281 189.43 107.196 188.68 108.095L199.436 117.057C200.393 115.908 201.305 114.733 202.171 113.53L190.809 105.35ZM188.592 108.203C187.599 109.444 186.409 110.61 184.996 111.695L193.52 122.801C195.776 121.07 197.786 119.121 199.524 116.949L188.592 108.203ZM184.996 111.695C184.275 112.248 183.766 112.36 183.306 112.36V126.36C187.113 126.36 190.572 125.064 193.52 122.801L184.996 111.695ZM223.839 119.552L221.333 126.088L221.398 126.113L221.464 126.137L223.839 119.552ZM217.631 114.944L212.004 119.108L212.024 119.135L212.044 119.162L217.631 114.944ZM216.479 99.2L209.873 96.8824L209.855 96.9343L209.838 96.9864L216.479 99.2ZM220.127 92.608L225.581 96.9953L225.604 96.9667L225.627 96.9379L220.127 92.608ZM225.823 87.872L229.048 94.0845L229.095 94.0602L229.141 94.0353L225.823 87.872ZM238.559 87.232L235.562 93.5582L235.661 93.6051L235.761 93.6489L238.559 87.232ZM242.527 90.496L236.729 94.4182L236.795 94.5168L236.865 94.6132L242.527 90.496ZM242.847 101.312L249.224 104.197L249.224 104.197L242.847 101.312ZM234.719 109.44L237.532 115.85L237.568 115.834L237.604 115.818L234.719 109.44ZM227.231 110.4L226.08 117.305L226.221 117.328L226.362 117.346L227.231 110.4ZM224.799 109.888L226.722 103.157L226.449 103.079L226.171 103.024L224.799 109.888ZM223.775 109.376L228.724 104.426L227.921 103.623L226.905 103.115L223.775 109.376ZM223.327 109.184L219.725 115.186L220.206 115.475L220.727 115.683L223.327 109.184ZM222.879 108.992V101.992H213.988L216.074 110.634L222.879 108.992ZM224.735 112.128L220.026 117.308L220.148 117.419L220.276 117.525L224.735 112.128ZM228.062 113.92L225.988 120.605L226.019 120.615L226.051 120.625L228.062 113.92ZM234.143 114.368L234.875 121.33L235.029 121.313L235.181 121.291L234.143 114.368ZM239.391 119.616L234.835 114.301L234.737 114.385L234.643 114.472L239.391 119.616ZM237.215 120.64L235.905 113.764L235.873 113.77L235.842 113.776L237.215 120.64ZM234.591 120.896V113.896H234.416L234.241 113.905L234.591 120.896ZM232.991 102.464L235.473 109.009L235.532 108.987L235.59 108.963L232.991 102.464ZM236.127 100.224L230.844 95.6307L230.786 95.6976L230.73 95.7658L236.127 100.224ZM236.255 93.632L231.305 98.5817L231.375 98.6524L231.448 98.7211L236.255 93.632ZM229.791 93.44L226.747 87.1361L226.747 87.1361L229.791 93.44ZM226.271 95.744L221.749 90.4003L221.697 90.4442L221.646 90.489L226.271 95.744ZM223.647 98.816L229.542 102.589L229.576 102.537L229.608 102.485L223.647 98.816ZM222.623 102.208H215.623V108.213L221.558 109.127L222.623 102.208ZM225.951 102.848L224.376 109.669L224.502 109.698L224.629 109.722L225.951 102.848ZM232.351 113.96C229.999 113.96 227.975 113.603 226.213 112.967L221.464 126.137C224.907 127.379 228.558 127.96 232.351 127.96V113.96ZM226.344 113.016C224.948 112.481 223.968 111.721 223.217 110.726L212.044 119.162C214.45 122.349 217.609 124.661 221.333 126.088L226.344 113.016ZM223.257 110.78C222.786 110.143 222.263 108.968 222.263 106.688H208.263C208.263 111.15 209.318 115.478 212.004 119.108L223.257 110.78ZM222.263 106.688C222.263 104.881 222.546 103.133 223.119 101.414L209.838 96.9864C208.789 100.131 208.263 103.375 208.263 106.688H222.263ZM223.084 101.518C223.68 99.8181 224.512 98.324 225.581 96.9953L214.672 88.2207C212.583 90.8174 210.984 93.7179 209.873 96.8824L223.084 101.518ZM225.627 96.9379C226.603 95.6978 227.732 94.768 229.048 94.0845L222.597 81.6595C219.476 83.28 216.807 85.5075 214.626 88.2781L225.627 96.9379ZM229.141 94.0353C230.24 93.4436 231.577 93.08 233.311 93.08V79.08C229.498 79.08 225.842 79.9111 222.504 81.7087L229.141 94.0353ZM233.311 93.08C234.201 93.08 234.921 93.2545 235.562 93.5582L241.555 80.9058C238.953 79.6735 236.175 79.08 233.311 79.08V93.08ZM235.761 93.6489C236.256 93.8643 236.519 94.1081 236.729 94.4182L248.324 86.5738C246.572 83.9825 244.189 82.0504 241.356 80.8151L235.761 93.6489ZM236.865 94.6132C236.873 94.6242 237.062 94.8424 237.062 95.68H251.062C251.062 92.4216 250.228 89.1838 248.188 86.3788L236.865 94.6132ZM237.062 95.68C237.062 96.6455 236.87 97.5394 236.469 98.4268L249.224 104.197C250.444 101.501 251.062 98.6399 251.062 95.68H237.062ZM236.469 98.4268C236.01 99.4405 235.388 100.343 234.569 101.162L244.468 111.062C246.465 109.065 248.062 106.767 249.224 104.197L236.469 98.4268ZM234.569 101.162C233.75 101.981 232.847 102.604 231.833 103.062L237.604 115.818C240.174 114.655 242.471 113.059 244.468 111.062L234.569 101.162ZM231.905 103.03C231.047 103.407 230.171 103.592 229.215 103.592V117.592C232.098 117.592 234.892 117.009 237.532 115.85L231.905 103.03ZM229.215 103.592C229.359 103.592 229.434 103.599 229.388 103.596C229.358 103.594 229.289 103.588 229.169 103.577C228.928 103.553 228.577 103.514 228.099 103.454L226.362 117.346C227.268 117.459 228.393 117.592 229.215 117.592V103.592ZM228.381 103.495C227.47 103.343 226.953 103.223 226.722 103.157L222.875 116.619C223.839 116.894 224.943 117.115 226.08 117.305L228.381 103.495ZM226.171 103.024C226.822 103.154 227.82 103.522 228.724 104.426L218.825 114.326C220.241 115.742 221.921 116.451 223.426 116.752L226.171 103.024ZM226.905 103.115C226.532 102.929 226.14 102.77 225.926 102.685L220.727 115.683C220.762 115.697 220.789 115.708 220.809 115.717C220.83 115.725 220.84 115.729 220.841 115.73C220.843 115.731 220.829 115.725 220.802 115.713C220.788 115.706 220.768 115.697 220.743 115.685C220.718 115.673 220.685 115.657 220.644 115.637L226.905 103.115ZM226.928 103.182C226.676 103.031 226.287 102.81 225.812 102.606C225.511 102.477 224.382 101.992 222.879 101.992V115.992C222.076 115.992 221.452 115.85 221.113 115.757C220.746 115.657 220.465 115.546 220.297 115.474C219.971 115.334 219.763 115.209 219.725 115.186L226.928 103.182ZM216.074 110.634C216.7 113.229 218.046 115.508 220.026 117.308L229.443 106.948C229.467 106.97 229.529 107.035 229.591 107.139C229.652 107.243 229.677 107.325 229.683 107.35L216.074 110.634ZM220.276 117.525C221.973 118.927 223.895 119.956 225.988 120.605L230.137 107.235C229.755 107.116 229.458 106.951 229.193 106.731L220.276 117.525ZM226.051 120.625C227.882 121.174 229.778 121.496 231.711 121.496V107.496C231.339 107.496 230.803 107.434 230.074 107.215L226.051 120.625ZM231.711 121.496C232.767 121.496 233.823 121.44 234.875 121.33L233.41 107.406C232.841 107.466 232.275 107.496 231.711 107.496V121.496ZM235.181 121.291C235.662 121.218 236.209 121.176 236.831 121.176V107.176C235.574 107.176 234.33 107.262 233.104 107.445L235.181 121.291ZM236.831 121.176C236.659 121.176 236.378 121.152 236.035 121.043C235.684 120.932 235.35 120.76 235.063 120.544L243.463 109.344C241.446 107.832 239.124 107.176 236.831 107.176V121.176ZM235.063 120.544C234.338 120.001 233.836 119.296 233.554 118.609C233.297 117.981 233.287 117.53 233.287 117.44H247.287C247.287 114.917 246.482 111.608 243.463 109.344L235.063 120.544ZM233.287 117.44C233.287 117.171 233.33 116.654 233.59 116.023C233.863 115.36 234.297 114.762 234.835 114.301L243.946 124.931C246.397 122.83 247.287 119.988 247.287 117.44H233.287ZM234.643 114.472C235.233 113.928 235.785 113.787 235.905 113.764L238.524 127.516C240.436 127.152 242.439 126.328 244.138 124.76L234.643 114.472ZM235.842 113.776C235.454 113.854 235.039 113.896 234.591 113.896V127.896C235.934 127.896 237.269 127.768 238.587 127.504L235.842 113.776ZM234.241 113.905C233.468 113.943 232.843 113.96 232.351 113.96V127.96C233.138 127.96 234.006 127.934 234.94 127.887L234.241 113.905ZM229.215 110.168C231.371 110.168 233.47 109.769 235.473 109.009L230.508 95.919C230.036 96.0979 229.618 96.168 229.215 96.168V110.168ZM235.59 108.963C237.866 108.053 239.905 106.641 241.523 104.682L230.73 95.7658C230.727 95.7692 230.675 95.8509 230.391 95.9647L235.59 108.963ZM241.409 104.817C243.5 102.413 244.407 99.5058 244.407 96.576H230.407C230.407 96.6102 230.403 96.4825 230.481 96.2584C230.564 96.0232 230.695 95.8019 230.844 95.6307L241.409 104.817ZM244.407 96.576C244.407 93.7718 243.47 90.8184 241.061 88.5429L231.448 98.7211C231.083 98.3762 230.785 97.9367 230.6 97.4628C230.424 97.0123 230.407 96.6809 230.407 96.576H244.407ZM241.204 88.6823C238.903 86.3807 235.995 85.544 233.311 85.544V99.544C233.249 99.544 232.962 99.5349 232.548 99.382C232.11 99.2202 231.671 98.9482 231.305 98.5817L241.204 88.6823ZM233.311 85.544C230.926 85.544 228.712 86.1875 226.747 87.1361L232.834 99.7439C233.343 99.4979 233.476 99.544 233.311 99.544V85.544ZM226.747 87.1361C224.949 88.0043 223.283 89.1025 221.749 90.4003L230.792 101.088C231.477 100.508 232.157 100.07 232.834 99.7439L226.747 87.1361ZM221.646 90.489C220.105 91.8456 218.764 93.3945 217.685 95.1473L229.608 102.485C229.895 102.019 230.303 101.52 230.895 100.999L221.646 90.489ZM217.751 95.0426C216.518 96.9688 215.623 99.3055 215.623 101.952H229.623C229.623 102.231 229.574 102.446 229.533 102.573C229.494 102.691 229.473 102.697 229.542 102.589L217.751 95.0426ZM215.623 101.952V102.208H229.623V101.952H215.623ZM221.558 109.127C222.494 109.271 223.433 109.451 224.376 109.669L227.525 96.0273C226.249 95.7329 224.97 95.4867 223.687 95.2894L221.558 109.127ZM224.629 109.722C226.148 110.014 227.679 110.168 229.215 110.168V96.168C228.617 96.168 227.972 96.1084 227.272 95.974L224.629 109.722ZM259.276 119.552L256.77 126.088L256.836 126.113L256.901 126.137L259.276 119.552ZM253.068 114.944L247.441 119.108L247.461 119.135L247.482 119.162L253.068 114.944ZM251.916 99.2L245.311 96.8824L245.293 96.9343L245.275 96.9864L251.916 99.2ZM255.564 92.608L261.018 96.9953L261.041 96.9667L261.064 96.9379L255.564 92.608ZM261.26 87.872L264.486 94.0845L264.532 94.0602L264.579 94.0353L261.26 87.872ZM273.996 87.232L270.999 93.5582L271.098 93.6051L271.199 93.6489L273.996 87.232ZM277.964 90.496L272.166 94.4182L272.233 94.5168L272.303 94.6132L277.964 90.496ZM278.284 101.312L284.662 104.197L284.662 104.197L278.284 101.312ZM270.156 109.44L272.97 115.85L273.006 115.834L273.041 115.818L270.156 109.44ZM262.668 110.4L261.517 117.305L261.658 117.328L261.8 117.346L262.668 110.4ZM260.236 109.888L262.159 103.157L261.887 103.079L261.609 103.024L260.236 109.888ZM259.212 109.376L264.162 104.426L263.359 103.623L262.342 103.115L259.212 109.376ZM258.764 109.184L255.163 115.186L255.643 115.475L256.164 115.683L258.764 109.184ZM258.316 108.992V101.992H249.425L251.511 110.634L258.316 108.992ZM260.172 112.128L255.463 117.308L255.586 117.419L255.714 117.525L260.172 112.128ZM263.5 113.92L261.425 120.605L261.457 120.615L261.489 120.625L263.5 113.92ZM269.58 114.368L270.313 121.33L270.466 121.313L270.618 121.291L269.58 114.368ZM274.828 119.616L270.272 114.301L270.175 114.385L270.08 114.472L274.828 119.616ZM272.652 120.64L271.342 113.764L271.311 113.77L271.279 113.776L272.652 120.64ZM270.028 120.896V113.896H269.853L269.678 113.905L270.028 120.896ZM268.428 102.464L270.911 109.009L270.969 108.987L271.028 108.963L268.428 102.464ZM271.564 100.224L266.282 95.6307L266.224 95.6976L266.167 95.7658L271.564 100.224ZM271.692 93.632L266.742 98.5817L266.813 98.6524L266.886 98.7211L271.692 93.632ZM265.228 93.44L262.185 87.1361L262.185 87.1361L265.228 93.44ZM261.708 95.744L257.186 90.4003L257.135 90.4442L257.084 90.489L261.708 95.744ZM259.084 98.816L264.98 102.589L265.013 102.537L265.046 102.485L259.084 98.816ZM258.06 102.208H251.06V108.213L256.996 109.127L258.06 102.208ZM261.388 102.848L259.814 109.669L259.94 109.698L260.066 109.722L261.388 102.848ZM267.788 113.96C265.437 113.96 263.413 113.603 261.651 112.967L256.901 126.137C260.345 127.379 263.995 127.96 267.788 127.96V113.96ZM261.782 113.016C260.385 112.481 259.406 111.721 258.654 110.726L247.482 119.162C249.888 122.349 253.047 124.661 256.77 126.088L261.782 113.016ZM258.695 110.78C258.224 110.143 257.7 108.968 257.7 106.688H243.7C243.7 111.15 244.755 115.478 247.441 119.108L258.695 110.78ZM257.7 106.688C257.7 104.881 257.984 103.133 258.557 101.414L245.275 96.9864C244.227 100.131 243.7 103.375 243.7 106.688H257.7ZM258.521 101.518C259.118 99.8181 259.95 98.324 261.018 96.9953L250.11 88.2207C248.021 90.8174 246.421 93.7179 245.311 96.8824L258.521 101.518ZM261.064 96.9379C262.04 95.6978 263.169 94.768 264.486 94.0845L258.034 81.6595C254.913 83.28 252.245 85.5075 250.064 88.2781L261.064 96.9379ZM264.579 94.0353C265.678 93.4436 267.014 93.08 268.748 93.08V79.08C264.935 79.08 261.28 79.9111 257.941 81.7087L264.579 94.0353ZM268.748 93.08C269.638 93.08 270.358 93.2545 270.999 93.5582L276.993 80.9058C274.391 79.6735 271.612 79.08 268.748 79.08V93.08ZM271.199 93.6489C271.693 93.8643 271.956 94.1081 272.166 94.4182L283.762 86.5738C282.009 83.9825 279.627 82.0504 276.793 80.8151L271.199 93.6489ZM272.303 94.6132C272.311 94.6242 272.5 94.8424 272.5 95.68H286.5C286.5 92.4216 285.665 89.1838 283.625 86.3788L272.303 94.6132ZM272.5 95.68C272.5 96.6455 272.308 97.5394 271.906 98.4268L284.662 104.197C285.882 101.501 286.5 98.6399 286.5 95.68H272.5ZM271.906 98.4268C271.448 99.4405 270.825 100.343 270.006 101.162L279.906 111.062C281.903 109.065 283.499 106.767 284.662 104.197L271.906 98.4268ZM270.006 101.162C269.187 101.981 268.285 102.604 267.271 103.062L273.041 115.818C275.611 114.655 277.909 113.059 279.906 111.062L270.006 101.162ZM267.342 103.03C266.484 103.407 265.608 103.592 264.652 103.592V117.592C267.536 117.592 270.329 117.009 272.97 115.85L267.342 103.03ZM264.652 103.592C264.797 103.592 264.872 103.599 264.826 103.596C264.796 103.594 264.726 103.588 264.606 103.577C264.365 103.553 264.015 103.514 263.536 103.454L261.8 117.346C262.706 117.459 263.831 117.592 264.652 117.592V103.592ZM263.819 103.495C262.908 103.343 262.391 103.223 262.159 103.157L258.313 116.619C259.276 116.894 260.38 117.115 261.517 117.305L263.819 103.495ZM261.609 103.024C262.26 103.154 263.258 103.522 264.162 104.426L254.262 114.326C255.678 115.742 257.359 116.451 258.863 116.752L261.609 103.024ZM262.342 103.115C261.97 102.929 261.577 102.77 261.364 102.685L256.164 115.683C256.199 115.697 256.227 115.708 256.247 115.717C256.267 115.725 256.277 115.729 256.279 115.73C256.281 115.731 256.266 115.725 256.239 115.713C256.225 115.706 256.205 115.697 256.18 115.685C256.156 115.673 256.122 115.657 256.082 115.637L262.342 103.115ZM262.365 103.182C262.114 103.031 261.724 102.81 261.249 102.606C260.949 102.477 259.82 101.992 258.316 101.992V115.992C257.513 115.992 256.889 115.85 256.55 115.757C256.184 115.657 255.903 115.546 255.735 115.474C255.409 115.334 255.201 115.209 255.163 115.186L262.365 103.182ZM251.511 110.634C252.138 113.229 253.484 115.508 255.463 117.308L264.881 106.948C264.905 106.97 264.966 107.035 265.028 107.139C265.09 107.243 265.115 107.325 265.121 107.35L251.511 110.634ZM255.714 117.525C257.411 118.927 259.333 119.956 261.425 120.605L265.575 107.235C265.192 107.116 264.896 106.951 264.63 106.731L255.714 117.525ZM261.489 120.625C263.319 121.174 265.216 121.496 267.148 121.496V107.496C266.776 107.496 266.241 107.434 265.511 107.215L261.489 120.625ZM267.148 121.496C268.205 121.496 269.26 121.44 270.313 121.33L268.847 107.406C268.279 107.466 267.713 107.496 267.148 107.496V121.496ZM270.618 121.291C271.1 121.218 271.647 121.176 272.268 121.176V107.176C271.012 107.176 269.767 107.262 268.542 107.445L270.618 121.291ZM272.268 121.176C272.096 121.176 271.816 121.152 271.472 121.043C271.122 120.932 270.788 120.76 270.5 120.544L278.9 109.344C276.884 107.832 274.561 107.176 272.268 107.176V121.176ZM270.5 120.544C269.776 120.001 269.274 119.296 268.992 118.609C268.734 117.981 268.724 117.53 268.724 117.44H282.724C282.724 114.917 281.919 111.608 278.9 109.344L270.5 120.544ZM268.724 117.44C268.724 117.171 268.767 116.654 269.027 116.023C269.3 115.36 269.734 114.762 270.272 114.301L279.384 124.931C281.834 122.83 282.724 119.988 282.724 117.44H268.724ZM270.08 114.472C270.67 113.928 271.222 113.787 271.342 113.764L273.962 127.516C275.874 127.152 277.876 126.328 279.576 124.76L270.08 114.472ZM271.279 113.776C270.891 113.854 270.477 113.896 270.028 113.896V127.896C271.371 127.896 272.706 127.768 274.025 127.504L271.279 113.776ZM269.678 113.905C268.906 113.943 268.28 113.96 267.788 113.96V127.96C268.576 127.96 269.444 127.934 270.378 127.887L269.678 113.905ZM264.652 110.168C266.809 110.168 268.907 109.769 270.911 109.009L265.945 95.919C265.474 96.0979 265.055 96.168 264.652 96.168V110.168ZM271.028 108.963C273.303 108.053 275.342 106.641 276.961 104.682L266.167 95.7658C266.164 95.7692 266.113 95.8509 265.828 95.9647L271.028 108.963ZM276.846 104.817C278.937 102.413 279.844 99.5058 279.844 96.576H265.844C265.844 96.6102 265.84 96.4825 265.919 96.2584C266.001 96.0232 266.133 95.8019 266.282 95.6307L276.846 104.817ZM279.844 96.576C279.844 93.7718 278.908 90.8184 276.498 88.5429L266.886 98.7211C266.52 98.3762 266.223 97.9367 266.037 97.4628C265.861 97.0123 265.844 96.6809 265.844 96.576H279.844ZM276.642 88.6823C274.34 86.3807 271.433 85.544 268.748 85.544V99.544C268.686 99.544 268.399 99.5349 267.985 99.382C267.548 99.2202 267.109 98.9482 266.742 98.5817L276.642 88.6823ZM268.748 85.544C266.364 85.544 264.15 86.1875 262.185 87.1361L268.271 99.7439C268.781 99.4979 268.913 99.544 268.748 99.544V85.544ZM262.185 87.1361C260.386 88.0043 258.72 89.1025 257.186 90.4003L266.23 101.088C266.914 100.508 267.595 100.07 268.271 99.7439L262.185 87.1361ZM257.084 90.489C255.542 91.8456 254.201 93.3945 253.122 95.1473L265.046 102.485C265.332 102.019 265.741 101.52 266.332 100.999L257.084 90.489ZM253.188 95.0426C251.955 96.9688 251.06 99.3055 251.06 101.952H265.06C265.06 102.231 265.012 102.446 264.97 102.573C264.932 102.691 264.911 102.697 264.98 102.589L253.188 95.0426ZM251.06 101.952V102.208H265.06V101.952H251.06ZM256.996 109.127C257.931 109.271 258.871 109.451 259.814 109.669L262.962 96.0273C261.686 95.7329 260.407 95.4867 259.124 95.2894L256.996 109.127ZM260.066 109.722C261.586 110.014 263.116 110.168 264.652 110.168V96.168C264.054 96.168 263.409 96.1084 262.71 95.974L260.066 109.722ZM288.826 117.824L283.359 122.197L283.434 122.289L283.511 122.38L288.826 117.824ZM287.866 115.52L280.93 116.466L280.933 116.488L280.936 116.51L287.866 115.52ZM287.802 106.944L280.816 106.488L280.811 106.564L280.808 106.64L287.802 106.944ZM287.354 95.808L294.154 94.1493L294.154 94.1493L287.354 95.808ZM286.714 88.064L280.279 85.3066L279.714 86.6272V88.064H286.714ZM287.93 86.272L291.944 92.0066L292.127 91.8781L292.302 91.7381L287.93 86.272ZM292.538 87.04L286.803 91.0542L286.852 91.1239L286.902 91.1924L292.538 87.04ZM293.69 89.984L286.765 91.0098L286.787 91.1584L286.815 91.3059L293.69 89.984ZM294.138 93.056L301.109 92.4222L301.109 92.4222L294.138 93.056ZM294.394 95.808L287.424 96.4614L287.434 96.569L287.448 96.6762L294.394 95.808ZM294.714 99.648L287.718 99.8978L287.959 106.648H294.714V99.648ZM294.97 99.648V106.648H297.869L299.919 104.598L294.97 99.648ZM295.226 99.392L300.175 104.342L300.645 103.872L301.018 103.323L295.226 99.392ZM297.786 95.552L291.933 91.7114L291.933 91.7114L297.786 95.552ZM300.73 91.712L295.6 86.9488L295.553 86.9989L295.508 87.0499L300.73 91.712ZM304.378 88.832L307.743 94.9697L307.818 94.9285L307.892 94.8855L304.378 88.832ZM314.298 89.536L309.831 94.9262L309.878 94.9645L309.925 95.0021L314.298 89.536ZM318.074 94.272L311.867 97.51L311.882 97.5381L311.897 97.5661L318.074 94.272ZM320.569 100.544L313.834 102.45L313.834 102.45L320.569 100.544ZM322.106 107.136L315.216 108.376L315.216 108.376L322.106 107.136ZM323.13 112.64H330.13V111.966L330.001 111.304L323.13 112.64ZM322.362 117.056L328.439 120.529L328.474 120.469L328.507 120.408L322.362 117.056ZM317.37 117.504L312.055 122.06L312.145 122.165L312.24 122.267L317.37 117.504ZM316.346 115.2L323.233 113.948L323.208 113.814L323.179 113.682L316.346 115.2ZM316.026 113.344L309.096 114.334L309.099 114.358L309.103 114.382L316.026 113.344ZM315.578 110.464L308.665 111.57L308.669 111.592L308.673 111.615L315.578 110.464ZM315.13 107.52L308.194 108.466L308.197 108.488L308.2 108.51L315.13 107.52ZM314.81 105.472L307.887 106.51L307.912 106.678L307.945 106.845L314.81 105.472ZM313.914 102.464L307.321 104.818L307.373 104.963L307.431 105.105L313.914 102.464ZM312.698 99.392L306.263 102.149L306.288 102.207L306.314 102.265L312.698 99.392ZM305.786 96.192L301.252 90.8584L301.184 90.916L301.118 90.9753L305.786 96.192ZM303.61 98.752L297.746 94.9281L297.687 95.0193L297.63 95.1124L303.61 98.752ZM302.01 101.376L307.945 105.086L307.964 105.056L307.982 105.026L302.01 101.376ZM299.13 106.496L305.39 109.626L305.39 109.626L299.13 106.496ZM296.378 112.064L290.09 108.987L290.07 109.027L290.051 109.067L296.378 112.064ZM295.29 114.88L301.93 117.094L301.944 117.054L301.956 117.013L295.29 114.88ZM293.882 117.568L288.356 113.27L288.356 113.27L293.882 117.568ZM291.194 111.72C291.293 111.72 291.704 111.731 292.279 111.949C292.9 112.184 293.577 112.611 294.14 113.268L283.511 122.38C285.781 125.028 288.849 125.72 291.194 125.72V111.72ZM294.292 113.451C294.451 113.65 294.575 113.865 294.663 114.076C294.749 114.283 294.783 114.444 294.795 114.53L280.936 116.51C281.222 118.511 281.986 120.481 283.359 122.197L294.292 113.451ZM294.801 114.574C294.711 113.915 294.674 113.337 294.674 112.832H280.674C280.674 114.034 280.764 115.247 280.93 116.466L294.801 114.574ZM294.674 112.832C294.674 110.971 294.714 109.11 294.795 107.248L280.808 106.64C280.718 108.704 280.674 110.768 280.674 112.832H294.674ZM294.787 107.4C294.924 105.3 294.994 103.27 294.994 101.312H280.994C280.994 102.938 280.935 104.663 280.816 106.488L294.787 107.4ZM294.994 101.312C294.994 98.87 294.722 96.4763 294.154 94.1493L280.553 97.4667C280.839 98.6384 280.994 99.914 280.994 101.312H294.994ZM294.154 94.1493C293.856 92.927 293.714 91.7343 293.714 90.56H279.714C279.714 92.8844 279.998 95.1904 280.553 97.4667L294.154 94.1493ZM293.714 90.56V88.064H279.714V90.56H293.714ZM293.148 90.8214C293.22 90.6516 293.216 90.7008 293.098 90.8745C292.994 91.0278 292.64 91.5189 291.944 92.0066L283.915 80.5374C281.839 81.9907 280.798 84.0973 280.279 85.3066L293.148 90.8214ZM292.302 91.7381C291.134 92.6729 290 92.76 289.658 92.76V78.76C287.865 78.76 285.578 79.1885 283.557 80.8059L292.302 91.7381ZM289.658 92.76C289.585 92.76 289.141 92.75 288.527 92.4767C287.855 92.178 287.24 91.6791 286.803 91.0542L298.272 83.0258C296.014 79.8003 292.576 78.76 289.658 78.76V92.76ZM286.902 91.1924C286.821 91.0824 286.776 90.9878 286.755 90.9348C286.736 90.8857 286.749 90.9019 286.765 91.0098L300.614 88.9582C300.302 86.8524 299.548 84.7542 298.173 82.8876L286.902 91.1924ZM286.815 91.3059C286.993 92.2307 287.106 93.0218 287.166 93.6897L301.109 92.4222C300.999 91.2128 300.812 89.956 300.564 88.6621L286.815 91.3059ZM287.166 93.6897C287.21 94.1705 287.296 95.0975 287.424 96.4614L301.363 95.1546C301.235 93.7879 301.15 92.8802 301.109 92.4222L287.166 93.6897ZM287.448 96.6762C287.596 97.8662 287.684 98.938 287.718 99.8978L301.709 99.3982C301.658 97.9687 301.532 96.4805 301.339 94.9398L287.448 96.6762ZM294.714 106.648H294.97V92.648H294.714V106.648ZM299.919 104.598L300.175 104.342L290.276 94.4423L290.02 94.6983L299.919 104.598ZM301.018 103.323C301.851 102.094 302.725 100.784 303.638 99.3926L291.933 91.7114C291.054 93.0504 290.221 94.3002 289.433 95.4615L301.018 103.323ZM303.638 99.3926C304.348 98.3106 305.119 97.3059 305.951 96.3741L295.508 87.0499C294.207 88.5075 293.015 90.0627 291.933 91.7114L303.638 99.3926ZM305.859 96.4752C306.499 95.7859 307.129 95.3063 307.743 94.9697L301.012 82.6943C298.98 83.8083 297.179 85.2488 295.6 86.9488L305.859 96.4752ZM307.892 94.8855C308.055 94.7914 308.316 94.68 308.858 94.68V80.68C306.071 80.68 303.346 81.3366 300.863 82.7785L307.892 94.8855ZM308.858 94.68C309.534 94.68 309.722 94.8354 309.831 94.9262L318.764 84.1458C315.887 81.762 312.447 80.68 308.858 80.68V94.68ZM309.925 95.0021C310.548 95.5011 311.223 96.2744 311.867 97.51L324.28 91.034C322.876 88.3442 321.033 85.9602 318.67 84.0699L309.925 95.0021ZM311.897 97.5661C312.668 99.0112 313.319 100.632 313.834 102.45L327.305 98.6377C326.54 95.9332 325.527 93.3728 324.25 90.9779L311.897 97.5661ZM313.834 102.45C314.417 104.51 314.876 106.485 315.216 108.376L328.995 105.896C328.567 103.52 328.002 101.1 327.305 98.6377L313.834 102.45ZM315.216 108.376C315.604 110.53 315.951 112.399 316.258 113.976L330.001 111.304C329.71 109.809 329.375 108.008 328.995 105.896L315.216 108.376ZM316.13 112.64V114.24H330.13V112.64H316.13ZM316.13 114.24C316.13 114.065 316.154 113.915 316.184 113.806C316.213 113.701 316.237 113.666 316.216 113.704L328.507 120.408C329.501 118.586 330.13 116.504 330.13 114.24H316.13ZM316.284 113.583C316.59 113.047 317.14 112.403 317.984 111.937C318.802 111.485 319.534 111.4 319.93 111.4V125.4C323.321 125.4 326.571 123.799 328.439 120.529L316.284 113.583ZM319.93 111.4C319.935 111.4 320.249 111.398 320.738 111.569C321.267 111.754 321.92 112.117 322.499 112.741L312.24 122.267C314.591 124.799 317.654 125.4 319.93 125.4V111.4ZM322.684 112.948C323.136 113.475 323.228 113.925 323.233 113.948L309.458 116.452C309.804 118.353 310.579 120.338 312.055 122.06L322.684 112.948ZM323.179 113.682C323.15 113.553 323.073 113.141 322.948 112.306L309.103 114.382C309.234 115.254 309.37 116.079 309.512 116.718L323.179 113.682ZM322.955 112.354C322.818 111.397 322.661 110.383 322.482 109.313L308.673 111.615C308.836 112.593 308.977 113.499 309.096 114.334L322.955 112.354ZM322.49 109.358C322.324 108.323 322.181 107.381 322.059 106.53L308.2 108.51C308.334 109.451 308.49 110.472 308.665 111.57L322.49 109.358ZM322.065 106.574C321.935 105.618 321.804 104.753 321.674 104.099L307.945 106.845C307.985 107.044 308.068 107.544 308.194 108.466L322.065 106.574ZM321.732 104.434C321.494 102.848 320.992 101.285 320.396 99.8229L307.431 105.105C307.774 105.947 307.869 106.39 307.887 106.51L321.732 104.434ZM320.506 100.11C320.037 98.7966 319.563 97.5901 319.081 96.5194L306.314 102.265C306.6 102.901 306.937 103.742 307.321 104.818L320.506 100.11ZM319.132 96.6346C318.596 95.3861 317.945 94.1522 317.205 92.9364L305.246 100.216C305.701 100.962 306.031 101.606 306.263 102.149L319.132 96.6346ZM317.205 92.9364C315.333 89.8612 312.188 88.104 308.602 88.104V102.104C308.159 102.104 307.452 102.001 306.697 101.577C305.94 101.153 305.481 100.601 305.246 100.216L317.205 92.9364ZM308.602 88.104C305.757 88.104 303.243 89.1656 301.252 90.8584L310.319 101.526C310.214 101.615 309.993 101.774 309.652 101.906C309.303 102.041 308.937 102.104 308.602 102.104V88.104ZM301.118 90.9753C299.816 92.1406 298.696 93.4714 297.746 94.9281L309.473 102.576C309.803 102.07 310.134 101.694 310.453 101.409L301.118 90.9753ZM297.63 95.1124C297.034 96.0911 296.503 96.9622 296.037 97.7258L307.982 105.026C308.454 104.254 308.99 103.376 309.589 102.392L297.63 95.1124ZM296.074 97.666C294.896 99.5504 293.826 101.45 292.869 103.366L305.39 109.626C306.14 108.128 306.99 106.615 307.945 105.086L296.074 97.666ZM292.869 103.366C292.005 105.093 291.079 106.967 290.09 108.987L302.665 115.141C303.639 113.151 304.547 111.313 305.39 109.626L292.869 103.366ZM290.051 109.067C289.507 110.217 289.036 111.454 288.623 112.747L301.956 117.013C302.226 116.173 302.48 115.533 302.704 115.061L290.051 109.067ZM288.649 112.666C288.531 113.019 288.416 113.194 288.356 113.27L299.407 121.866C300.542 120.406 301.365 118.789 301.93 117.094L288.649 112.666ZM288.356 113.27C288.786 112.718 289.366 112.272 290.004 111.998C290.6 111.742 291.051 111.72 291.194 111.72V125.72C294.003 125.72 297.181 124.728 299.407 121.866L288.356 113.27ZM337.903 120.64L338.865 113.707L338.771 113.693L338.676 113.683L337.903 120.64ZM333.423 119.616L331.093 126.217L331.093 126.217L333.423 119.616ZM329.775 117.312L324.614 122.042L324.667 122.099L324.721 122.155L329.775 117.312ZM329.199 110.4L334.976 114.353L335.022 114.284L335.068 114.215L329.199 110.4ZM333.679 109.696L338.361 104.493L338.361 104.493L333.679 109.696ZM334.767 111.104L328.603 114.423L328.699 114.601L328.805 114.773L334.767 111.104ZM335.919 112.832L330.222 116.901L330.389 117.134L330.575 117.354L335.919 112.832ZM337.775 114.24L334.644 120.501L334.711 120.534L334.778 120.566L337.775 114.24ZM344.239 114.496L345.513 121.379L345.609 121.361L345.705 121.341L344.239 114.496ZM347.375 108.224L343.222 113.859L343.321 113.932L343.422 114.001L347.375 108.224ZM344.239 106.688L342.025 113.329L342.025 113.329L344.239 106.688ZM340.207 105.408L337.993 112.049L338.084 112.079L338.176 112.107L340.207 105.408ZM336.175 103.68L339.469 97.5035L339.469 97.5035L336.175 103.68ZM333.039 100.992L327.314 105.02L327.35 105.072L327.387 105.122L333.039 100.992ZM336.175 89.344L339.776 95.3464L339.804 95.3295L339.832 95.3122L336.175 89.344ZM340.399 87.616L341.958 94.44L342.027 94.4242L342.096 94.407L340.399 87.616ZM347.631 87.36L346.258 94.2241L346.391 94.2507L346.525 94.2721L347.631 87.36ZM350.767 88.256L348.074 94.7175L348.074 94.7175L350.767 88.256ZM353.327 90.048L348.095 94.6985L348.161 94.773L348.229 94.8456L353.327 90.048ZM350.575 95.744L347.123 101.834L348.729 102.744H350.575V95.744ZM342.062 93.696L342.726 100.664L342.868 100.651L343.008 100.632L342.062 93.696ZM339.631 94.4L342.906 100.587L342.906 100.587L339.631 94.4ZM339.759 98.048L343.266 91.99L343.266 91.99L339.759 98.048ZM342.895 99.392L345.108 92.7512L345.108 92.7512L342.895 99.392ZM346.927 100.8L344.534 107.379L344.534 107.379L346.927 100.8ZM350.959 102.784L347.213 108.698L347.285 108.743L347.357 108.786L350.959 102.784ZM354.095 105.728L348.302 109.659L348.302 109.659L354.095 105.728ZM353.327 116.48L347.961 111.984L347.925 112.028L347.889 112.071L353.327 116.48ZM348.335 119.936L350.59 126.563L350.631 126.549L350.671 126.534L348.335 119.936ZM341.999 113.96C341.204 113.96 340.171 113.888 338.865 113.707L336.94 127.573C338.706 127.819 340.403 127.96 341.999 127.96V113.96ZM338.676 113.683C337.668 113.571 336.697 113.348 335.752 113.015L331.093 126.217C333.049 126.908 335.065 127.368 337.129 127.597L338.676 113.683ZM335.752 113.015C335.245 112.836 334.989 112.636 334.828 112.469L324.721 122.155C326.523 124.036 328.698 125.372 331.093 126.217L335.752 113.015ZM334.935 112.582C335.124 112.788 335.256 113.026 335.327 113.228C335.391 113.411 335.367 113.456 335.367 113.28H321.367C321.367 116.329 322.266 119.48 324.614 122.042L334.935 112.582ZM335.367 113.28C335.367 113.311 335.362 113.454 335.299 113.671C335.235 113.894 335.127 114.132 334.976 114.353L323.421 106.447C321.97 108.569 321.367 110.949 321.367 113.28H335.367ZM335.068 114.215C334.66 114.842 334.045 115.403 333.296 115.76C332.601 116.091 332.059 116.12 331.887 116.12V102.12C328.867 102.12 325.466 103.298 323.329 106.585L335.068 114.215ZM331.887 116.12C331.519 116.12 330.236 116.016 328.996 114.899L338.361 104.493C336.267 102.608 333.79 102.12 331.887 102.12V116.12ZM328.996 114.899C328.769 114.695 328.649 114.508 328.603 114.423L340.93 107.785C340.287 106.591 339.442 105.465 338.361 104.493L328.996 114.899ZM328.805 114.773C329.24 115.479 329.714 116.189 330.222 116.901L341.615 108.763C341.27 108.28 340.976 107.838 340.728 107.435L328.805 114.773ZM330.575 117.354C331.757 118.751 333.18 119.769 334.644 120.501L340.905 107.979C340.833 107.943 341.018 108.022 341.262 108.31L330.575 117.354ZM334.778 120.566C336.886 121.565 339.128 121.816 341.039 121.816V107.816C340.86 107.816 340.719 107.81 340.613 107.801C340.506 107.793 340.442 107.783 340.415 107.779C340.388 107.774 340.408 107.776 340.467 107.793C340.525 107.811 340.631 107.848 340.771 107.914L334.778 120.566ZM341.039 121.816C342.52 121.816 344.019 121.656 345.513 121.379L342.964 107.613C342.154 107.763 341.52 107.816 341.039 107.816V121.816ZM345.705 121.341C347.746 120.903 349.737 120.082 351.51 118.752L343.111 107.552C343.136 107.533 343.138 107.537 343.097 107.555C343.053 107.574 342.952 107.613 342.772 107.651L345.705 121.341ZM351.51 118.752C354.208 116.729 355.591 113.737 355.591 110.528H341.591C341.591 110.168 341.665 109.591 341.979 108.947C342.298 108.294 342.736 107.833 343.111 107.552L351.51 118.752ZM355.591 110.528C355.591 107.233 354.043 104.305 351.327 102.447L343.422 114.001C343.013 113.721 342.49 113.231 342.096 112.483C341.701 111.736 341.591 111.026 341.591 110.528H355.591ZM351.527 102.589C349.965 101.438 348.206 100.632 346.452 100.047L342.025 113.329C342.831 113.597 343.163 113.816 343.222 113.859L351.527 102.589ZM346.452 100.047C345.106 99.5985 343.701 99.1525 342.237 98.7088L338.176 112.107C339.528 112.517 340.811 112.924 342.025 113.329L346.452 100.047ZM342.42 98.7672C341.376 98.4192 340.394 97.9972 339.469 97.5035L332.88 109.856C334.515 110.728 336.221 111.458 337.993 112.049L342.42 98.7672ZM339.469 97.5035C339.065 97.2884 338.844 97.073 338.69 96.8619L327.387 105.122C328.854 107.13 330.724 108.706 332.88 109.856L339.469 97.5035ZM338.763 96.9635C338.859 97.0997 338.882 97.1899 338.875 97.1656C338.865 97.1292 338.823 96.9499 338.823 96.576H324.823C324.823 99.417 325.473 102.404 327.314 105.02L338.763 96.9635ZM338.823 96.576C338.823 96.3135 338.854 96.1898 338.861 96.1658C338.866 96.1495 338.858 96.179 338.831 96.2185L327.246 88.3575C325.533 90.8815 324.823 93.7306 324.823 96.576H338.823ZM338.831 96.2185C339.051 95.8943 339.338 95.6094 339.776 95.3464L332.573 83.3415C330.451 84.6146 328.648 86.2924 327.246 88.3575L338.831 96.2185ZM339.832 95.3122C340.515 94.8937 341.216 94.6097 341.958 94.44L338.839 80.792C336.595 81.3049 334.479 82.1729 332.517 83.3758L339.832 95.3122ZM342.096 94.407C343.145 94.1449 344.045 94.04 344.815 94.04V80.04C342.768 80.04 340.724 80.3191 338.701 80.825L342.096 94.407ZM344.815 94.04C345.039 94.04 345.5 94.0726 346.258 94.2241L349.003 80.4959C347.627 80.2207 346.212 80.04 344.815 80.04V94.04ZM346.525 94.2721C347.032 94.3533 347.546 94.4973 348.074 94.7175L353.459 81.7945C351.939 81.1614 350.362 80.7081 348.736 80.4479L346.525 94.2721ZM348.074 94.7175C348.113 94.7338 348.138 94.7464 348.151 94.7533C348.163 94.7601 348.165 94.7622 348.16 94.7586C348.155 94.7549 348.145 94.7474 348.132 94.7359C348.119 94.7243 348.106 94.7115 348.095 94.6985L358.558 85.3975C357.122 83.7811 355.376 82.5933 353.459 81.7945L348.074 94.7175ZM348.229 94.8456C347.942 94.5405 347.695 94.1534 347.534 93.7211C347.378 93.3018 347.351 92.9686 347.351 92.8H361.351C361.351 90.1275 360.472 87.426 358.424 85.2504L348.229 94.8456ZM347.351 92.8C347.351 92.7023 347.38 91.3433 348.665 90.0583C349.95 88.7732 351.309 88.744 351.407 88.744V102.744C353.467 102.744 356.298 102.224 358.564 99.9577C360.831 97.6913 361.351 94.8603 361.351 92.8H347.351ZM351.407 88.744H350.575V102.744H351.407V88.744ZM354.026 89.6538C352.622 88.8582 351.288 88.1689 350.068 87.646L344.553 100.514C345.125 100.759 345.967 101.179 347.123 101.834L354.026 89.6538ZM350.068 87.646C348.157 86.8271 346.169 86.504 344.239 86.504V100.504C344.612 100.504 344.672 100.565 344.553 100.514L350.068 87.646ZM344.239 86.504C343.249 86.504 342.153 86.6188 341.117 86.7602L343.008 100.632C343.398 100.579 343.701 100.545 343.926 100.525C344.161 100.504 344.253 100.504 344.239 100.504V86.504ZM341.399 86.7275C339.678 86.8914 337.967 87.3604 336.355 88.2135L342.906 100.587C342.833 100.625 342.771 100.648 342.729 100.66C342.689 100.672 342.684 100.668 342.726 100.664L341.399 86.7275ZM336.355 88.2135C335.013 88.9241 333.705 90.0261 332.776 91.612C331.855 93.1828 331.543 94.8224 331.543 96.256H345.543C345.543 96.8363 345.412 97.7399 344.853 98.692C344.286 99.6592 343.523 100.26 342.906 100.587L336.355 88.2135ZM331.543 96.256C331.543 100.217 334.004 102.805 336.251 104.106L343.266 91.99C343.511 92.1321 344.101 92.5245 344.639 93.3175C345.227 94.1845 345.543 95.2243 345.543 96.256H331.543ZM336.251 104.106C337.608 104.891 339.129 105.516 340.681 106.033L345.108 92.7512C344.1 92.415 343.53 92.1432 343.266 91.99L336.251 104.106ZM340.681 106.033C341.895 106.437 343.179 106.886 344.534 107.379L349.319 94.2214C347.858 93.6902 346.454 93.1999 345.108 92.7512L340.681 106.033ZM344.534 107.379C345.463 107.716 346.354 108.154 347.213 108.698L354.704 96.8703C353.003 95.793 351.206 94.9076 349.319 94.2214L344.534 107.379ZM347.357 108.786C347.795 109.049 348.082 109.334 348.302 109.659L359.887 101.797C358.485 99.7324 356.682 98.0546 354.56 96.7815L347.357 108.786ZM348.302 109.659C348.242 109.57 348.237 109.525 348.251 109.578C348.268 109.641 348.311 109.836 348.311 110.208H362.311C362.311 107.355 361.656 104.405 359.887 101.797L348.302 109.659ZM348.311 110.208C348.311 111.611 347.974 111.969 347.961 111.984L358.692 120.976C361.325 117.833 362.311 114.01 362.311 110.208H348.311ZM347.889 112.071C347.478 112.579 346.917 113.012 345.998 113.338L350.671 126.534C353.848 125.41 356.615 123.538 358.764 120.889L347.889 112.071ZM346.079 113.309C344.834 113.733 343.486 113.96 341.999 113.96V127.96C344.948 127.96 347.825 127.504 350.59 126.563L346.079 113.309Z" fill="#5AB4AB"/>
</g>
<path id="gameTitle__font--yellow" d="M144.016 119.986C141.2 119.986 138.64 119.41 136.336 118.258C134.075 117.106 132.112 115.57 130.448 113.65C128.827 111.73 127.568 109.576 126.672 107.186C125.819 104.754 125.392 102.258 125.392 99.6983C125.392 94.1517 126.757 89.5863 129.488 86.0023C132.261 82.3757 136.229 79.5597 141.392 77.5543C142.672 77.0423 144.165 76.5517 145.872 76.0823C147.579 75.5703 149.179 75.3143 150.672 75.3143C151.995 75.3143 153.275 75.5063 154.512 75.8903C155.792 76.2317 156.859 76.893 157.712 77.8743C158.011 78.3437 158.224 78.8343 158.352 79.3463C158.523 79.8157 158.715 80.285 158.928 80.7543H158.992C159.077 80.8823 159.269 81.1597 159.568 81.5863C159.867 81.9703 160.165 82.3757 160.464 82.8023C160.763 83.1863 160.976 83.4637 161.104 83.6343C162.811 85.8103 163.941 88.0503 164.496 90.3543C165.093 92.6157 165.392 95.0903 165.392 97.7783C165.392 100.637 164.88 103.41 163.856 106.098C162.832 108.744 161.36 111.112 159.44 113.202C157.563 115.293 155.323 116.957 152.72 118.194C150.117 119.389 147.216 119.986 144.016 119.986ZM144.72 112.818C146.853 112.818 148.709 112.349 150.288 111.41C151.909 110.429 153.253 109.149 154.32 107.57C155.387 105.949 156.176 104.221 156.688 102.386C157.243 100.509 157.52 98.6743 157.52 96.8823C157.52 95.9437 157.349 94.7063 157.008 93.1703C156.709 91.6343 156.219 90.0983 155.536 88.5623C154.853 87.0263 153.979 85.7463 152.912 84.7223C151.845 83.6557 150.544 83.1223 149.008 83.1223C146.619 83.1223 144.443 83.5917 142.48 84.5303C140.56 85.4263 138.896 86.6637 137.488 88.2423C136.123 89.821 135.056 91.5917 134.288 93.5543C133.563 95.517 133.2 97.565 133.2 99.6983C133.2 101.874 133.605 103.965 134.416 105.97C135.269 107.976 136.528 109.618 138.192 110.898C139.899 112.178 142.075 112.818 144.72 112.818ZM150.736 107.058C149.669 106.248 149.115 105.266 149.072 104.114C149.029 102.92 149.264 101.938 149.776 101.17C150.373 100.189 151.099 99.5917 151.952 99.3783C152.848 99.165 153.616 99.229 154.256 99.5703C157.243 101.405 159.675 102.941 161.552 104.178C163.472 105.416 165.243 106.61 166.864 107.762C168.528 108.872 170.491 110.152 172.752 111.602C173.819 112.37 174.416 113.33 174.544 114.482C174.672 115.592 174.501 116.509 174.032 117.234C173.563 117.96 172.709 118.621 171.472 119.218C170.235 119.773 169.317 119.837 168.72 119.41C166.672 117.832 164.24 116.146 161.424 114.354C158.608 112.52 155.045 110.088 150.736 107.058ZM183.306 119.346C181.471 119.346 179.935 118.962 178.698 118.194C177.503 117.384 176.565 116.338 175.882 115.058C175.199 113.778 174.709 112.392 174.41 110.898C174.154 109.362 174.026 107.848 174.026 106.354V103.218C174.026 103.09 174.09 102.6 174.218 101.746C174.346 100.85 174.474 99.8903 174.602 98.8663C174.773 97.8423 174.901 97.0743 174.986 96.5623C175.114 95.965 175.263 95.2183 175.434 94.3223C175.647 93.3837 175.903 92.4663 176.202 91.5703C176.543 90.6317 176.97 89.8637 177.482 89.2663C178.037 88.6263 178.698 88.3063 179.466 88.3063C180.618 88.3063 181.493 88.6477 182.09 89.3303C182.73 90.013 183.05 90.845 183.05 91.8263C183.05 92.637 182.922 93.4263 182.666 94.1943C182.453 94.9623 182.261 95.7517 182.09 96.5623C181.791 98.1837 181.493 99.805 181.194 101.426C180.938 103.048 180.81 104.69 180.81 106.354C180.81 106.952 180.853 107.72 180.938 108.658C181.023 109.597 181.258 110.429 181.642 111.154C182.026 111.88 182.687 112.242 183.626 112.242C184.351 112.242 185.205 111.773 186.186 110.834C187.21 109.896 188.277 108.68 189.386 107.186C190.538 105.693 191.69 104.072 192.842 102.322C193.994 100.53 195.061 98.8023 196.042 97.1383C197.066 95.4317 197.941 93.9383 198.666 92.6583C199.391 91.3357 199.903 90.4183 200.202 89.9063C200.543 89.437 200.906 89.053 201.29 88.7543C201.674 88.4557 202.165 88.3063 202.762 88.3063C204.767 88.3063 205.962 89.245 206.346 91.1223V93.4263C206.346 95.3037 206.282 97.181 206.154 99.0583C206.069 100.893 206.026 102.685 206.026 104.434V108.21C206.154 108.893 206.431 109.512 206.858 110.066C207.285 110.621 207.669 111.176 208.01 111.73C208.394 112.242 208.586 112.861 208.586 113.586C208.586 114.568 208.287 115.4 207.69 116.082C207.093 116.765 206.303 117.106 205.322 117.106C204.042 117.106 203.018 116.68 202.25 115.826C201.482 114.93 200.885 113.885 200.458 112.69C200.202 111.922 199.903 110.941 199.562 109.746C199.263 108.509 198.965 107.293 198.666 106.098C198.026 107.208 197.301 108.317 196.49 109.426C195.722 110.493 194.911 111.538 194.058 112.562C192.693 114.269 191.093 115.826 189.258 117.234C187.423 118.642 185.439 119.346 183.306 119.346ZM232.351 120.946C229.279 120.946 226.441 120.477 223.839 119.538C221.279 118.557 219.209 117.021 217.631 114.93C216.052 112.797 215.263 110.045 215.263 106.674C215.263 104.114 215.668 101.618 216.479 99.1863C217.332 96.7543 218.548 94.557 220.127 92.5943C221.705 90.589 223.604 89.0103 225.823 87.8583C228.041 86.6637 230.537 86.0663 233.311 86.0663C235.188 86.0663 236.937 86.4503 238.559 87.2183C240.223 87.9437 241.545 89.0317 242.527 90.4823C243.551 91.8903 244.062 93.6183 244.062 95.6663C244.062 97.629 243.657 99.5063 242.847 101.298C242.036 103.09 240.927 104.69 239.519 106.098C238.111 107.506 236.511 108.616 234.719 109.426C232.969 110.194 231.135 110.578 229.215 110.578C228.916 110.578 228.255 110.514 227.231 110.386C226.207 110.216 225.396 110.045 224.799 109.874C224.372 109.789 224.031 109.618 223.775 109.362C223.689 109.32 223.54 109.256 223.327 109.17C223.113 109.042 222.964 108.978 222.879 108.978C223.177 110.216 223.796 111.261 224.735 112.114C225.716 112.925 226.825 113.522 228.062 113.906C229.343 114.29 230.559 114.482 231.711 114.482C232.521 114.482 233.332 114.44 234.143 114.354C234.996 114.226 235.892 114.162 236.831 114.162C237.769 114.162 238.58 114.418 239.263 114.93C239.945 115.442 240.287 116.274 240.287 117.426C240.287 118.365 239.988 119.09 239.391 119.602C238.836 120.114 238.111 120.456 237.215 120.626C236.361 120.797 235.487 120.882 234.591 120.882C233.737 120.925 232.991 120.946 232.351 120.946ZM229.215 103.154C230.495 103.154 231.753 102.92 232.991 102.45C234.271 101.938 235.316 101.192 236.127 100.21C236.98 99.229 237.407 98.013 237.407 96.5623C237.407 95.325 237.023 94.3437 236.255 93.6183C235.529 92.893 234.548 92.5303 233.311 92.5303C232.201 92.5303 231.028 92.829 229.791 93.4263C228.553 94.0237 227.38 94.7917 226.271 95.7303C225.204 96.669 224.329 97.693 223.647 98.8023C222.964 99.869 222.623 100.914 222.623 101.938V102.194C223.732 102.365 224.841 102.578 225.951 102.834C227.06 103.048 228.148 103.154 229.215 103.154ZM267.788 120.946C264.716 120.946 261.879 120.477 259.276 119.538C256.716 118.557 254.647 117.021 253.068 114.93C251.489 112.797 250.7 110.045 250.7 106.674C250.7 104.114 251.105 101.618 251.916 99.1863C252.769 96.7543 253.985 94.557 255.564 92.5943C257.143 90.589 259.041 89.0103 261.26 87.8583C263.479 86.6637 265.975 86.0663 268.748 86.0663C270.625 86.0663 272.375 86.4503 273.996 87.2183C275.66 87.9437 276.983 89.0317 277.964 90.4823C278.988 91.8903 279.5 93.6183 279.5 95.6663C279.5 97.629 279.095 99.5063 278.284 101.298C277.473 103.09 276.364 104.69 274.956 106.098C273.548 107.506 271.948 108.616 270.156 109.426C268.407 110.194 266.572 110.578 264.652 110.578C264.353 110.578 263.692 110.514 262.668 110.386C261.644 110.216 260.833 110.045 260.236 109.874C259.809 109.789 259.468 109.618 259.212 109.362C259.127 109.32 258.977 109.256 258.764 109.17C258.551 109.042 258.401 108.978 258.316 108.978C258.615 110.216 259.233 111.261 260.172 112.114C261.153 112.925 262.263 113.522 263.5 113.906C264.78 114.29 265.996 114.482 267.148 114.482C267.959 114.482 268.769 114.44 269.58 114.354C270.433 114.226 271.329 114.162 272.268 114.162C273.207 114.162 274.017 114.418 274.7 114.93C275.383 115.442 275.724 116.274 275.724 117.426C275.724 118.365 275.425 119.09 274.828 119.602C274.273 120.114 273.548 120.456 272.652 120.626C271.799 120.797 270.924 120.882 270.028 120.882C269.175 120.925 268.428 120.946 267.788 120.946ZM264.652 103.154C265.932 103.154 267.191 102.92 268.428 102.45C269.708 101.938 270.753 101.192 271.564 100.21C272.417 99.229 272.844 98.013 272.844 96.5623C272.844 95.325 272.46 94.3437 271.692 93.6183C270.967 92.893 269.985 92.5303 268.748 92.5303C267.639 92.5303 266.465 92.829 265.228 93.4263C263.991 94.0237 262.817 94.7917 261.708 95.7303C260.641 96.669 259.767 97.693 259.084 98.8023C258.401 99.869 258.06 100.914 258.06 101.938V102.194C259.169 102.365 260.279 102.578 261.388 102.834C262.497 103.048 263.585 103.154 264.652 103.154ZM291.194 118.706C290.127 118.706 289.338 118.408 288.826 117.81C288.314 117.17 287.994 116.402 287.866 115.506C287.738 114.568 287.674 113.672 287.674 112.818C287.674 110.856 287.716 108.893 287.802 106.93C287.93 104.968 287.994 103.09 287.994 101.298C287.994 99.3783 287.78 97.5437 287.354 95.7943C286.927 94.045 286.714 92.2957 286.714 90.5463V88.0503C287.098 87.1543 287.503 86.557 287.93 86.2583C288.356 85.917 288.932 85.7463 289.658 85.7463C290.98 85.7463 291.94 86.173 292.538 87.0263C293.135 87.837 293.519 88.8183 293.69 89.9703C293.903 91.0797 294.052 92.1037 294.138 93.0423C294.18 93.5117 294.266 94.429 294.394 95.7943C294.564 97.1597 294.671 98.4397 294.714 99.6343H294.97L295.226 99.3783C296.036 98.1837 296.89 96.9037 297.786 95.5383C298.682 94.173 299.663 92.893 300.73 91.6983C301.839 90.5037 303.055 89.5437 304.378 88.8183C305.7 88.0503 307.194 87.6663 308.858 87.6663C310.991 87.6663 312.804 88.285 314.298 89.5223C315.791 90.717 317.05 92.2957 318.074 94.2583C319.098 96.1783 319.93 98.269 320.569 100.53C321.21 102.792 321.722 104.989 322.106 107.122C322.49 109.256 322.831 111.09 323.13 112.626V114.226C323.13 115.165 322.874 116.104 322.362 117.042C321.85 117.938 321.039 118.386 319.93 118.386C318.778 118.386 317.924 118.088 317.37 117.49C316.858 116.893 316.516 116.125 316.346 115.186C316.26 114.802 316.154 114.184 316.026 113.33C315.898 112.434 315.748 111.474 315.578 110.45C315.407 109.384 315.258 108.402 315.13 107.506C315.002 106.568 314.895 105.885 314.81 105.458C314.682 104.605 314.383 103.602 313.914 102.45C313.487 101.256 313.082 100.232 312.698 99.3783C312.314 98.4823 311.823 97.5437 311.226 96.5623C310.628 95.581 309.754 95.0903 308.602 95.0903C307.578 95.0903 306.639 95.453 305.786 96.1783C304.975 96.9037 304.25 97.757 303.61 98.7383C303.012 99.7197 302.479 100.594 302.01 101.362C300.943 103.069 299.983 104.776 299.13 106.482C298.276 108.189 297.359 110.045 296.378 112.05C295.994 112.861 295.631 113.8 295.29 114.866C294.948 115.89 294.479 116.786 293.882 117.554C293.284 118.322 292.388 118.706 291.194 118.706ZM341.999 120.946C340.804 120.946 339.439 120.84 337.903 120.626C336.367 120.456 334.873 120.114 333.423 119.602C331.972 119.09 330.756 118.322 329.775 117.298C328.836 116.274 328.367 114.93 328.367 113.266C328.367 112.157 328.644 111.197 329.199 110.386C329.753 109.533 330.649 109.106 331.887 109.106C332.655 109.106 333.252 109.298 333.679 109.682C334.105 110.066 334.468 110.536 334.767 111.09C335.108 111.645 335.492 112.221 335.919 112.818C336.388 113.373 337.007 113.842 337.775 114.226C338.585 114.61 339.673 114.802 341.039 114.802C342.02 114.802 343.087 114.696 344.239 114.482C345.433 114.226 346.457 113.778 347.311 113.138C348.164 112.498 348.591 111.624 348.591 110.514C348.591 109.533 348.185 108.765 347.375 108.21C346.564 107.613 345.519 107.101 344.239 106.674C342.959 106.248 341.615 105.821 340.207 105.394C338.799 104.925 337.455 104.349 336.175 103.666C334.895 102.984 333.849 102.088 333.039 100.978C332.228 99.8263 331.823 98.3543 331.823 96.5623C331.823 94.8983 332.228 93.469 333.039 92.2743C333.849 91.0797 334.895 90.0983 336.175 89.3303C337.497 88.5197 338.905 87.9437 340.399 87.6023C341.935 87.2183 343.407 87.0263 344.815 87.0263C345.625 87.0263 346.564 87.133 347.631 87.3463C348.697 87.517 349.743 87.8157 350.767 88.2423C351.791 88.669 352.644 89.2663 353.327 90.0343C354.009 90.7597 354.351 91.677 354.351 92.7863C354.351 94.749 353.369 95.7303 351.407 95.7303H350.575C349.295 95.005 348.207 94.4503 347.311 94.0663C346.415 93.6823 345.391 93.4903 344.239 93.4903C343.727 93.4903 343.001 93.5543 342.062 93.6823C341.167 93.7677 340.356 94.0023 339.631 94.3863C338.905 94.7703 338.543 95.389 338.543 96.2423C338.543 96.9677 338.948 97.565 339.759 98.0343C340.569 98.5037 341.615 98.9517 342.895 99.3783C344.175 99.805 345.519 100.274 346.927 100.786C348.335 101.298 349.679 101.96 350.959 102.77C352.239 103.538 353.284 104.52 354.095 105.714C354.905 106.909 355.311 108.402 355.311 110.194C355.311 112.797 354.649 114.888 353.327 116.466C352.047 118.045 350.383 119.197 348.335 119.922C346.329 120.605 344.217 120.946 341.999 120.946Z" fill="#F7C932"/>
</g>
</svg>
