<?xml version="1.0" encoding="UTF-8"?>
<svg id="Layer_2" data-name="Layer 2" xmlns="http://www.w3.org/2000/svg" viewBox="0 0 399.48 263.65">
  <defs>
    <style>
      .cls-1 {
        fill: #f47852;
      }

      .cls-2 {
        fill: #f8991d;
      }

      .cls-3 {
        fill: #688d9b;
      }

      .cls-4 {
        fill: #ffe35a;
      }

      .cls-5 {
        fill: #fff;
      }

      .cls-6 {
        fill: #ed1c24;
      }

      .cls-7 {
        fill: #824c9e;
      }

      .cls-8 {
        fill: #7bbbab;
      }

      .cls-9 {
        fill: #8facc4;
      }

      .cls-10 {
        fill: #3363ac;
      }

      .cls-11 {
        fill: #b3a241;
      }

      .cls-12 {
        fill: #b35347;
      }

      .cls-13 {
        fill: #d7c7b6;
      }

      .cls-14 {
        fill: #b15447;
      }

      .cls-15 {
        fill: #e05e4f;
      }

      .cls-16 {
        fill: #c8c5dd;
      }

      .cls-17 {
        fill: #70cbd0;
      }

      .cls-18 {
        fill: #555557;
      }

      .cls-19 {
        fill: #2c6964;
      }

      .cls-20 {
        fill: #59b4ab;
      }

      .cls-21 {
        fill: #4974ba;
      }

      .cls-22 {
        fill: #7b2f24;
      }

      .cls-23 {
        fill: #4e7e8e;
      }

      .cls-24 {
        stroke: #59b4ab;
      }

      .cls-24, .cls-25, .cls-26 {
        fill: #fff5e9;
      }

      .cls-24, .cls-25, .cls-26, .cls-27, .cls-28 {
        stroke-miterlimit: 10;
        stroke-width: 2px;
      }

      .cls-25 {
        stroke: #3363ac;
      }

      .cls-26 {
        stroke: #e05e4f;
      }

      .cls-27 {
        fill: #231f20;
      }

      .cls-27, .cls-28 {
        stroke: #231f20;
      }

      .cls-28 {
        fill: none;
      }

      
    </style>
  </defs>
  <g id="trash-landing-page">
    <g id="trash-landing-page-2" data-name="trash-landing-page">
      <g id="red_bin" data-name="red bin">
        <g id="_Group_body" data-name="&amp;lt;Group&amp;gt;body">
          <polygon class="cls-15" points="303.58 101.79 286.67 159.51 326.31 176.57 354.54 123.72 303.58 101.79"/>
          <path class="cls-1" d="M299.59,91.65l-1.74,4.03c-.73,1.7-.28,3.53,1.01,4.08l60.63,26.09c1.29,.55,2.92-.37,3.65-2.07l1.74-4.03c.73-1.7,.28-3.53-1.01-4.08l-60.63-26.09c-1.29-.55-2.92,.37-3.65,2.07Z"/>
          <path class="cls-15" d="M305.98,89.89l4.72-6.22c.18-.24,.5-.32,.78-.2l49.82,21.44c.25,.11,.41,.36,.4,.63l-.34,8.11c-.02,.45-.49,.73-.91,.55l-54.21-23.33c-.39-.17-.52-.65-.27-.98Z"/>
        </g>
        <g id="_Group_Crown" data-name="&amp;lt;Group&amp;gt; Crown">
          <polygon class="cls-11" points="333.12 79.34 337.66 77.14 339.68 81.14 336.58 82.92 333.12 79.34"/>
          <polygon class="cls-4" points="327.49 90.36 347.03 98.77 354.92 86.65 344.97 86.53 342.8 79.35 336.58 82.92 329.71 75.8 327.49 90.36"/>
          <polygon class="cls-11" points="344.97 86.53 343.88 82.94 348.19 81.67 350.24 86.59 344.97 86.53"/>
          <polygon class="cls-2" points="327.82 88.17 348.22 96.95 347.03 98.77 327.49 90.36 327.82 88.17"/>
          <polygon class="cls-7" points="337.31 87.2 340.53 85.36 341.31 88.92 338.2 90.63 337.31 87.2"/>
        </g>
        <g id="_Group_face" data-name="&amp;lt;Group&amp;gt;face">
          <g id="_Group_eye" data-name="&amp;lt;Group&amp;gt;eye">
            <path class="cls-22" d="M327.02,101.31c-.38,2.1-7.84,4.32-12.14,.72-4.26-3.57-3.35-11.12-1.2-11.95,.95-.36,1.69,.76,9.39,7.17,3.27,2.72,4.08,3.31,3.95,4.06Z"/>
          </g>
          <polygon id="_Path_mouth" data-name="&amp;lt;Path&amp;gt; mouth" class="cls-6" points="328.8 106.61 333.31 108.55 329.94 111.03 328.8 106.61"/>
          <g id="_Group_eye-2" data-name="&amp;lt;Group&amp;gt;eye">
            <path class="cls-22" d="M338.84,106.39c-1.27,1.72,2.26,8.66,7.83,9.31,5.52,.64,10.38-5.21,9.5-7.34-.39-.94-1.72-.71-11.66-1.89-4.23-.5-5.21-.69-5.66-.07Z"/>
          </g>
        </g>
        <g id="_Group_recycle_symbol" data-name="&amp;lt;Group&amp;gt;recycle symbol">
          <g id="_Group_recycle_arrow" data-name="&amp;lt;Group&amp;gt;recycle arrow">
            <path class="cls-26" d="M312.66,122.55s6.27-4.81,8.67-3.46,9.76,4.19,9.76,4.19c0,0,1.75,1.24,2.31,5.23l3.73-.12-6.57,4.68-9.17-3.94h4.03s-1.03-3.72-1.03-3.72l-6.24,3.78-5.48-6.63Z"/>
            <path class="cls-26" d="M324.38,125.4s-.67-5.37-3.05-6.31"/>
          </g>
          <g id="_Group_recycle_arrow-2" data-name="&amp;lt;Group&amp;gt;recycle arrow">
            <path class="cls-26" d="M335.41,134.84s1.54,7.82-.8,8.91-8.34,5.17-8.34,5.17c0,0-1.94,.63-5.87-1.32l-1.61,3.01-1.29-7.98,7.84-4.85-1.86,3.16,3.91,1.42-.61-7.18,8.62-.34Z"/>
            <path class="cls-26" d="M327.4,142.37s5.25,2.7,7.21,1.38"/>
          </g>
          <g id="_Group_recycle_arrow-3" data-name="&amp;lt;Group&amp;gt;recycle arrow">
            <path class="cls-26" d="M314.43,146.02s-8.18-2.76-8.37-5.27-1.95-9.62-1.95-9.62c0,0,.1-1.94,3.45-4.2l-2.33-2.89,8.24,3.05,1.83,9.03-2.39-3.18-2.83,2.52,7.21,3.21-2.84,7.35Z"/>
            <path class="cls-26" d="M310.07,135.46s-4.56,2.98-4,5.29"/>
          </g>
        </g>
      </g>
      <g id="blue-bin">
        <g id="_Group_body-2" data-name="&amp;lt;Group&amp;gt;body">
          <polygon class="cls-10" points="113.43 35.91 125.83 91.8 169.6 88.35 169.71 31.48 113.43 35.91"/>
          <path class="cls-21" d="M105,29.2l.37,4.15c.16,1.75,1.43,3.08,2.85,2.97l66.94-5.27c1.42-.11,2.45-1.62,2.29-3.37l-.37-4.15c-.16-1.75-1.43-3.08-2.85-2.97l-66.94,5.27c-1.42,.11-2.45,1.62-2.29,3.37Z"/>
          <path class="cls-10" d="M109.9,24.87l1.27-7.32c.05-.28,.3-.49,.61-.51l55.01-4.33c.28-.02,.54,.12,.66,.35l3.57,6.94c.2,.38-.09,.83-.55,.87l-59.86,4.71c-.43,.03-.78-.31-.71-.7Z"/>
        </g>
        <g id="_Group_Crown-2" data-name="&amp;lt;Group&amp;gt; Crown">
          <polygon class="cls-11" points="117.88 4.79 120.92 .92 124.64 3.37 122.71 6.24 117.88 4.79"/>
          <polygon class="cls-4" points="118.1 16.54 139.67 14.84 140.96 1.16 131.97 5.51 126.59 .47 122.71 6.24 113.12 3.35 118.1 16.54"/>
          <polygon class="cls-11" points="131.97 5.51 129.28 2.99 132.54 0 136.73 3.2 131.97 5.51"/>
          <polygon class="cls-2" points="117.35 14.55 139.87 12.78 139.67 14.84 118.1 16.54 117.35 14.55"/>
          <polygon class="cls-7" points="125.4 9.5 127.42 6.51 129.82 9.15 127.85 11.97 125.4 9.5"/>
        </g>
        <g id="_Group_face-2" data-name="&amp;lt;Group&amp;gt;face">
          <polygon class="cls-6" points="138.4 28.66 143.37 28.27 141.53 31.86 138.4 28.66"/>
          <g id="_Group_eye-3" data-name="&amp;lt;Group&amp;gt;eye">
            <ellipse class="cls-5" cx="124.42" cy="25.54" rx="9.29" ry="8.47" transform="translate(-.69 3.65) rotate(-1.68)"/>
            <ellipse class="cls-27" cx="125.32" cy="23.63" rx="3.31" ry="3.02" transform="translate(-.64 3.68) rotate(-1.68)"/>
            <path class="cls-28" d="M123.67,17.1c7.98-3.63,5.94-5.38,5.94-5.38"/>
            <path class="cls-28" d="M123.94,16.8c8.9,.16,7.99-2.26,7.99-2.26"/>
          </g>
          <g id="_Group_eye-4" data-name="&amp;lt;Group&amp;gt;eye">
            <ellipse class="cls-5" cx="156.96" cy="22.97" rx="9.29" ry="8.47" transform="translate(-.6 4.6) rotate(-1.68)"/>
            <ellipse class="cls-27" cx="158.2" cy="21.04" rx="3.31" ry="3.02" transform="translate(-.55 4.64) rotate(-1.68)"/>
            <path class="cls-28" d="M156.21,14.54c7.98-3.63,5.94-5.38,5.94-5.38"/>
            <path class="cls-28" d="M156.48,14.24c8.9,.16,7.99-2.26,7.99-2.26"/>
          </g>
        </g>
        <g id="_Group_recycle_symbol-2" data-name="&amp;lt;Group&amp;gt;recycle symbol">
          <g id="_Group_recycle_arrow-4" data-name="&amp;lt;Group&amp;gt;recycle arrow">
            <path class="cls-25" d="M131.51,49.23s3.34-6.83,6.14-6.78,10.77-.86,10.77-.86c0,0,2.16,.25,4.57,3.35l3.3-1.77-3.67,6.86-10.12,.8,3.62-1.79-2.72-2.66-3.8,5.95-8.1-3.1Z"/>
            <path class="cls-25" d="M143.41,46.37s-3.17-4.2-5.76-3.92"/>
          </g>
          <g id="_Group_recycle_arrow-5" data-name="&amp;lt;Group&amp;gt;recycle arrow">
            <path class="cls-25" d="M157.83,49.35s5.13,5.86,3.54,7.82-5.02,8.06-5.02,8.06c0,0-1.44,1.4-5.9,1.52v3.24s-4.98-6.11-4.98-6.11l4.72-7.57-.16,3.48,4.2-.56-3.98-5.74,7.58-4.14Z"/>
            <path class="cls-25" d="M154.23,59.23s6.01-.09,7.14-2.07"/>
          </g>
          <g id="_Group_recycle_arrow-6" data-name="&amp;lt;Group&amp;gt;recycle arrow">
            <path class="cls-25" d="M144.32,68.09s-8.67,1.34-10.04-.67-6.35-7.18-6.35-7.18c0,0-.84-1.67,1.09-5.06l-3.48-1.38,8.86-1.13,5.96,6.75-3.67-1.6-1.34,3.37,8.01-.54,.96,7.43Z"/>
            <path class="cls-25" d="M135.36,61.2s-2.67,4.53-1.07,6.22"/>
          </g>
        </g>
      </g>
      <g id="trash-mountain">
        <path class="cls-3" d="M14.82,199.95c-.41-2.65,6.85-6.37,12.18-7.97,7.65-2.3,9.45,.32,14.41-1.36,10.16-3.44,7.59-14.82,19.9-27.32,4.24-4.3,10.19-6.77,13.88-11.55,2.82-3.65,4.02-8.28,6.25-12.32,6.99-12.7,22.78-17.87,31.81-29.2,6.49-8.15,9.45-19.41,18.17-25.12,2.5-1.64,5.36-2.72,7.71-4.56,3.82-3,5.88-7.65,8.62-11.66,10.03-14.68,28.86-20.39,46.49-22.66,2.7-.35,5.55-.62,8.06,.43s4.5,3.88,3.66,6.47c9.07,4.26,21.67,.81,28.26,8.36,1.84,2.11,2.87,4.81,4.62,7,5.58,6.99,16.13,6.71,24.28,10.39,1.05,.48,2.11,1.06,2.79,1.99,1.94,2.66-.07,6.32-.13,9.62-.1,5.61,5.63,9.61,11.1,10.87,5.47,1.26,11.34,.94,16.48,3.19-2.5,2.81-5.3,6.87-4.34,10.76,1.01,4.07,5.21,4.22,10.05,9.55,6.11,6.74,2.69,10.15,8.2,15.37,5.39,5.1,10.7,3.75,14.33,9.82,1.55,2.59,.93,2.82,2.41,5.85,2.08,4.25,6.78,6.42,10.34,9.53s5.95,9.06,2.54,12.33c15.8-2.09,23.69,22.22,39.52,24.05-11,2.29-22.35-.35-33.58-.54-9.14-.15-18.31,1.35-26.92,4.42-1.81,.64-3.64,1.36-5.56,1.32-2.71-.06-5.13-1.63-7.73-2.38-10.17-2.96-20.18,6.67-30.74,5.87-3.49-.26-6.82-1.67-10.31-2.02-5.98-.6-11.76,1.92-17.56,3.47-15.58,4.17-32.13,1.41-47.82-2.35-6.49-1.55-13.42-3.26-19.68-.95-4,1.47-8.27,4.52-12.05,2.57-1.26-.65-2.2-1.78-3.34-2.63-3.07-2.29-6.47-2.43-8.31-2.6-33.33-3-50-4.49-55.09-4.28-27,1.11-29.22,2.91-50.34,2.72-12.84-.11-31.9-.37-32.54-4.49Z"/>
        <g id="_Group_shadow" data-name="&amp;lt;Group&amp;gt; shadow">
          <polygon class="cls-23" points="61.69 171.78 70.52 178.4 70.52 189.44 81.06 185.02 88.17 176.01 113.55 171.78 118.54 160.2 85.42 166.82 61.69 171.78"/>
          <path class="cls-23" d="M150.51,117.4l5.96,8.04s2.76,6.62-2.98,11.59l-5.74,4.97h24.83l-7.72-12.29,16-9.77,15.45-9.38h-29.24l-3.86,6.86s-7.72,5.75-12.69,0Z"/>
          <path class="cls-23" d="M205.96,54.34s2.48,16.05-5.79,17.65,16.55,9,18.21,3.09,20.32,6.23,17.06,10.09-7.58,11.59-7.58,11.59l27.61-7.17-16.61-22.56s-5.58-12.62-32.89-12.69Z"/>
          <path class="cls-23" d="M176.31,134.27c3.44,3.86,13.93,13.24,13.93,13.24l6.07-10.48-19.99-2.76Z"/>
          <path class="cls-23" d="M285.67,160.2s-8.83,22.07-33.1,14.62l-18.49-6.54h-10.19l27.03,18.4s0,16.55-31.45,6.62c0,0-9.38,3.35-3.31,7.19s39.29-.4,39.29-.4c0,0,4.48,13.22-1.68,11.21s22.52-6.74,31.9-2.17c9.38,4.58,7.17-19.7,7.17-19.7,0,0,2.21-16,10.48-7.72s0,13.79,0,13.79c0,0,1.92,8.28,19.16,1.1,0,0,12.24,3.59,6.18,6.13s15.47,4.31,11.89-1.19,11.62-19.82,11.62-19.82c0,0-1.62-4.43-14.76-4.71,0,0,3.97,14.07-7.06,8.83-11.03-5.24-30.01-17.53-18.76-25.66,0,0-14.03-13.23-25.93,0Z"/>
        </g>
        <g id="_Group_trash_bits" data-name="&amp;lt;Group&amp;gt; trash bits">
          <path class="cls-9" d="M138.92,214.72c-2.54,.16-5.03,1.03-7.1,2.5-1.21,.86-2.3,2.67-1.19,3.65,.36,.32,.86,.43,1.34,.5,2.3,.36,4.79,.26,6.75-.98s3.15-3.9,2.17-6"/>
          <path class="cls-16" d="M263.35,223.96c-1.05,.79-.85,2.53,.06,3.48s2.25,1.31,3.52,1.63c4.95,1.24,9.91,2.48,14.86,3.72,1.4,.35,3.02,.67,4.2-.17,1.85-1.31,1.23-4.34,2.61-6.14,.56-.73,1.49-1.38,1.37-2.29-.18-1.37-2.14-1.25-3.51-1.43-2.77-.37-4.41-3.32-6.9-4.59-3.19-1.61-7-.19-10.28,1.24-2.28,1-4.56,1.99-6.85,2.99"/>
          <path class="cls-9" d="M198.45,228.42c-2.39,.82-4.72,1.83-6.95,3.04-.92,.5-1.97,1.4-1.58,2.37,.19,.47,.66,.75,1.11,.98,1.89,.96,3.92,1.63,6.01,1.97,1.55,.26,3.18,.33,4.64-.25,1.04-.41,1.93-1.12,2.81-1.83,1.78-1.43,3.56-2.87,5.34-4.3,.2-.16,.41-.33,.5-.57,.28-.72-.59-1.33-1.32-1.59-3.53-1.24-7.34-1.67-11.05-1.24"/>
          <path class="cls-12" d="M347.47,213.29c5.18-.69,10.5-.25,15.49,1.29,.68,.21,1.47,.56,1.61,1.26,.18,.94-.92,1.59-1.84,1.85-5.73,1.62-12.22,.22-16.77-3.62"/>
          <path class="cls-13" d="M300.95,213.14l-.48,5.2c-.05,.57-.07,1.23,.36,1.6,.31,.27,.75,.29,1.15,.31,1.71,.07,3.41,.13,5.12,.2,2.52,.1,5.52-.05,6.84-2.2,1.08-1.77,.36-4.23-1.21-5.58s-3.77-1.74-5.84-1.65c-2.39,.11-5.26,1.45-5.19,3.84"/>
          <path class="cls-13" d="M10.96,208.84c2.28-.44,4.68-.24,6.85,.58-5.83,1.58-11.8,2.66-17.81,3.21,2.11-4.17,7.87-6,12.01-3.82"/>
          <path class="cls-9" d="M36.21,212.62c.08,.75,1.02,1.03,1.77,1.09,5.15,.41,10.89-1.15,15.15,1.78,1.14,.79,2.11,1.87,3.4,2.35,.96,.35,2,.34,3.02,.33,3.21-.04,6.42-.09,9.63-.13-3.22-.97-5.18-4.32-8.25-5.69-1.41-.63-2.98-.8-4.51-.97-5.23-.57-10.46-1.13-15.69-1.7-2.19-.24-4.89-.24-6.02,1.66"/>
          <path class="cls-12" d="M92.81,216.12l-2.87,3.38c-.31,.37-.65,.83-.51,1.3,.17,.54,.83,.69,1.37,.86,1.98,.62,3.28,2.56,5.2,3.36,2.03,.85,4.43,.25,6.25-.99s3.17-3.03,4.49-4.8c-3.78-2.66-8.42-4.07-13.05-3.97"/>
          <path class="cls-23" d="M104.33,235.22c-.25,2.26-3.47,4.11-2.32,6.07,.31,.53,.88,.85,1.44,1.1,3.23,1.43,6.89,1.31,10.37,1.89s7.22,2.23,8.41,5.55c.49,1.36,.6,3.03,1.79,3.83,.84,.56,1.94,.48,2.95,.4,5.54-.41,11.15,.15,16.5,1.66,2.98,.84,5.9,1.98,8.97,2.35,3.75,.46,7.53-.23,11.27-.78,7.34-1.09,14.76-1.67,22.18-1.74-.36-3.28-3.95-5.16-7.19-5.77-3.24-.61-6.79-.61-9.46-2.54,2.91-4.74,8.75-7.49,14.26-6.7-.26-6.62-.52-13.24-.79-19.86-3.6-1.11-7.49,.54-10.53,2.76s-5.66,5.05-8.99,6.81c-3.8,2.01-8.4,2.45-12.52,1.21-.98-.3-1.99-.69-3-.52-1.88,.31-2.88,2.33-4.3,3.6-3.5,3.14-8.92,1.45-13.45,.18-8.33-2.35-17.22-2.67-25.69-.92"/>
          <path class="cls-14" d="M163.34,83.63c-.89,.85,.63,2.09,1.83,2.36,1.58,.36,3.16,.72,4.73,1.08,.41,.09,.87,.18,1.22-.04,.54-.34,.48-1.13,.36-1.76-.41-2.06-.82-4.12-1.23-6.18-.05-.27-.12-.56-.32-.76-.31-.31-.82-.26-1.25-.17-2.47,.55-4.72,2.07-6.15,4.16"/>
          <path class="cls-9" d="M100.88,129.21c1.66,.27,3.28-.51,4.82-1.18s3.3-1.26,4.86-.65,2.38,3.01,1.02,4c-3.13,.07-6.26,.14-9.39,.21-1.14,.03-2.78-.63-2.3-1.66"/>
          <path class="cls-9" d="M243.01,115.29c1.08-1.16,3.18-.76,4.13,.51s.93,3.04,.43,4.54c-.12,.37-.29,.76-.62,.98-.31,.21-.71,.24-1.08,.25-5.54,.23-11.12-.45-16.45-2,.21-.92,.43-1.83,.64-2.75,4.67-1.03,9.54-1.11,14.24-.25"/>
          <path class="cls-9" d="M282.49,137.78l-10.33,6.63c2.89,2,6.93,3.45,9.77,1.38,2.55-1.86,2.74-5.62,2.12-8.72"/>
          <path class="cls-16" d="M164.88,173.99l-.08,4.17c0,.37,0,.77,.25,1.05,.21,.23,.54,.3,.84,.35,6.62,1.13,13.76-1.46,18.11-6.59-5.79-.86-11.69-.97-17.51-.35"/>
          <path class="cls-16" d="M231.81,61.45c-.29-2.68,1.76-5.19,4.25-6.25s5.29-.95,7.98-.66,5.4,.74,8.06,.32c.33,2.54,.67,5.13,1.77,7.44s3.11,4.34,5.63,4.79c.59,.11,1.22,.14,1.7,.48,.82,.58,.87,1.76,.8,2.76-.24,3.37-.92,6.71-2.04,9.9-4.74-1.74-9.47-3.48-14.21-5.21-1.24-.45-2.51-.93-3.46-1.85-.89-.86-1.4-2.03-1.98-3.13-1.95-3.69-4.93-6.83-8.5-8.99"/>
          <path class="cls-17" d="M158.43,59.23c.61-1.53-.18-3.21-.66-4.79s-.41-3.71,1.09-4.37c.62-.28,1.4-.24,1.91-.69,.51-.47,.54-1.26,.52-1.95-.05-2.13-.1-4.27-.15-6.4,.49-1.1,2.18-1.14,3.08-.34s1.19,2.08,1.35,3.27,.27,2.45,.94,3.45c1.06,1.57,3.51,1.96,5,.79,.19,.94,.39,1.87,.58,2.81"/>
          <path class="cls-12" d="M91.81,128.65c-1.21-3.29,1.19-6.71,3.44-9.39,2.17-2.59,4.34-5.18,6.51-7.77,.33-.39,.69-.81,1.19-.91,.82-.18,1.53,.53,2.17,1.07,1.88,1.59,4.57,2.16,6.93,1.45"/>
          <path class="cls-16" d="M22.03,216.98c-.84-.32-1.77,.53-1.8,1.43s.56,1.7,1.26,2.26c2.03,1.63,5.17,1.68,7.26,.13,.6-.45,1.16-1.18,.92-1.89-.21-.63-.93-.9-1.57-1.07-2.18-.58-4.43-.86-6.68-.85"/>
          <path class="cls-14" d="M228.96,167.9l-.68-4.55c-.08-.56-.14-1.21,.24-1.63,.33-.37,.88-.42,1.37-.45,3.67-.22,7.33-.44,11-.66,2.31-.14,5.14-.01,6.25,2.02,.6,1.1,.53,2.55,1.39,3.46,.83,.87,2.17,.89,3.35,1.07,3.16,.48,6.03,2.57,7.45,5.43,.22,.45,.42,.95,.33,1.44-.26,1.51-2.44,1.46-3.9,1.01-8.75-2.68-17.51-5.37-26.26-8.05"/>
          <path class="cls-13" d="M232.57,225.17c3.69,1.14,7.39,2.27,11.08,3.41,1.2,.37,2.48,.8,3.23,1.8s.57,2.78-.63,3.16c-.71,.23-1.48-.09-2.23-.05-1.29,.07-2.31,1.3-2.45,2.59s.46,2.56,1.29,3.54c2.82,3.33,7.79,3.66,12.13,3.27s8.95-1.2,12.89,.66c4.21,1.99,6.96,6.77,11.54,7.64-14.17,.02-28.34,.04-42.51,.06-.47,0-.98-.01-1.35-.29-.36-.27-.52-.72-.66-1.15-.85-2.61-1.7-5.21-2.55-7.82-.67-2.04-1.32-4.35-.32-6.25,.43-.81,1.13-1.47,1.45-2.33,.38-1,.19-2.12,0-3.17-.34-1.85-.69-3.7-1.03-5.56"/>
        </g>
        <g id="_Group_trash_bags" data-name="&amp;lt;Group&amp;gt; trash bags">
          <g>
            <path class="cls-18" d="M336.02,177.21c4.26-5.87,9.51-11.01,15.47-15.14,.49-.34,1.02-.68,1.62-.67,1.13,.02,1.8,1.22,2.33,2.21,4.16,7.7,13.09,11.17,20.76,15.38,7.85,4.31,14.96,9.96,20.93,16.63,1.5,1.67,3.01,3.98,2.02,6-.94,1.92-3.5,2.23-5.64,2.28-7.1,.17-14.2,.34-21.31,.51-1.99,.05-4.19,.02-5.68-1.3-.71-.63-1.17-1.49-1.9-2.09-1.05-.87-2.47-1.09-3.76-1.52-5.27-1.75-8.41-7-11.26-11.77s-6.44-9.87-11.9-10.91"/>
            <path class="cls-18" d="M354.42,164.99c-2-2.15-4.54-3.79-7.32-4.74-1.32-.45-2.74-.77-3.83-1.65s-1.71-2.56-.89-3.7c.95-1.33,3.07-1,4.43-.08s2.44,2.29,3.99,2.83c3.07,1.06,6.2-1.57,9.45-1.63,3.32-.05,6.02,2.54,8.3,4.95-4.62,1.37-9.4,2.19-14.21,2.44"/>
          </g>
          <g>
            <path class="cls-18" d="M141.28,176.15c-2.54-.86-5.26,.94-6.8,3.13s-2.4,4.83-4.08,6.91c-2.11,2.6-5.26,4.06-8.09,5.86-4.29,2.73-7.96,6.41-10.69,10.7-.26,.41-.52,.86-.5,1.34,.03,.66,.56,1.18,1.08,1.58,4.15,3.21,9.76,3.69,15,3.5,5.24-.19,10.57-.92,15.66,.33,1.84,.45,3.64,1.16,5.53,1.19s3.97-.84,4.63-2.61c.32-.86,.27-1.8,.22-2.71-.33-5.82-.67-11.65-1-17.47-.17-3.01-.38-6.15-1.92-8.74s-4.85-4.4-7.62-3.22"/>
            <path class="cls-18" d="M141.88,176.14l-5.73-3.45c-2.35-1.41-4.99-3.32-4.95-6.05,3.05,.93,6.5,1.71,9.29,.18,1.05-.58,2.21-1.49,3.3-1,.52,.24,.86,.75,1.31,1.11,1.46,1.19,3.59,.54,5.41,.07,3.84-1,7.86-.94,11.83-.88,.21,0,.44,.01,.61,.14,.37,.27,.23,.85,.02,1.25-1.35,2.51-4.25,3.78-7.03,4.43s-5.71,.88-8.27,2.14c-1.57,.77-3.19,1.95-4.89,1.52"/>
          </g>
        </g>
      </g>
      <g id="turquoise_bin" data-name="turquoise bin">
        <g id="_Group_body-3" data-name="&amp;lt;Group&amp;gt;body">
          <polygon class="cls-20" points="32.31 171.09 72.56 263.65 139.89 243.09 118.88 144.66 32.31 171.09"/>
          <path class="cls-8" d="M16.6,162.29l2.12,7.06c.89,2.98,3.39,4.85,5.58,4.18l102.98-31.44c2.19-.67,3.23-3.62,2.34-6.6l-2.12-7.06c-.89-2.98-3.39-4.85-5.58-4.18l-102.98,31.44c-2.19,.67-3.23,3.62-2.34,6.6Z"/>
          <path class="cls-20" d="M22.66,153.16l-.73-13.09c-.03-.5,.29-.95,.76-1.09l84.63-25.84c.43-.13,.89,.02,1.16,.38l8.19,10.81c.45,.6,.17,1.47-.54,1.69l-92.09,28.11c-.66,.2-1.34-.27-1.38-.97Z"/>
        </g>
        <g id="_Group_Crown-3" data-name="&amp;lt;Group&amp;gt; Crown">
          <polygon class="cls-11" points="45.17 110.42 48.49 102.72 55.23 105.72 53.27 111.33 45.17 110.42"/>
          <polygon class="cls-4" points="49.88 130.68 83.07 120.55 80 96.45 67.52 106.98 57.21 100.05 53.27 111.33 37.18 109.53 49.88 130.68"/>
          <polygon class="cls-11" points="67.52 106.98 62.36 103.52 66.37 97.26 74.13 101.4 67.52 106.98"/>
          <polygon class="cls-2" points="47.97 127.5 82.61 116.93 83.07 120.55 49.88 130.68 47.97 127.5"/>
          <polygon class="cls-7" points="58.71 116.07 60.77 110.23 65.51 113.99 63.47 119.53 58.71 116.07"/>
        </g>
        <g id="_Group_face-3" data-name="&amp;lt;Group&amp;gt;face">
          <path id="_Path_mouth-2" data-name="&amp;lt;Path&amp;gt; mouth" class="cls-6" d="M70.5,156.04l7.65-2.34c-1.7-.98-3.4-1.96-5.11-2.94-.85,1.76-1.7,3.51-2.55,5.27Z"/>
          <g id="_Group_eye-5" data-name="&amp;lt;Group&amp;gt;eye">
            <path class="cls-19" d="M80.71,130.48c-2.19,2.82,3.06,14.6,12.13,15.93,8.98,1.32,17.36-8.26,16.07-11.87-.57-1.59-2.76-1.26-18.94-3.68-6.88-1.03-8.47-1.39-9.26-.37Z"/>
          </g>
          <g id="_Group_eye-6" data-name="&amp;lt;Group&amp;gt;eye">
            <path class="cls-19" d="M56.45,137.88c3.38,1.12,5.49,13.85-1.31,20.03-6.75,6.12-18.99,2.83-19.9-.89-.4-1.64,1.6-2.59,13.73-13.66,5.16-4.71,6.28-5.89,7.49-5.49Z"/>
          </g>
          <ellipse class="cls-5" cx="104.2" cy="143.5" rx="4.72" ry="2.37" transform="translate(-37.51 36.87) rotate(-17.06)"/>
          <ellipse class="cls-5" cx="42.32" cy="162.39" rx="4.72" ry="2.37" transform="translate(-45.77 19.55) rotate(-17.06)"/>
        </g>
        <g id="_Group_recycle_symbol-3" data-name="&amp;lt;Group&amp;gt;recycle symbol">
          <g id="_Group_recycle_arrow-7" data-name="&amp;lt;Group&amp;gt;recycle arrow">
            <path class="cls-24" d="M65.62,188.11s2.69-12.93,7.1-13.78c4.41-.84,16.57-5.07,16.57-5.07,0,0,3.48-.28,8.41,4.27l4.51-4.16-3.19,13.09-15.57,4.75,5.01-4.31-5.25-3.7-3.74,11.57-13.85-2.66Z"/>
            <path class="cls-24" d="M83.21,179.2s-6.53-6.21-10.49-4.87"/>
          </g>
          <g id="_Group_recycle_arrow-8" data-name="&amp;lt;Group&amp;gt;recycle arrow">
            <path class="cls-24" d="M106.92,179.53s10.22,8.43,8.46,12.34-4.87,15.62-4.87,15.62c0,0-1.74,2.9-8.69,4.6l1.2,5.6-10.07-8.91,4.59-14.67,1.05,6.07,6.37-2.36-8.37-8.6,10.34-9.7Z"/>
            <path class="cls-24" d="M104.96,197.83s9.38-2.16,10.42-5.96"/>
          </g>
          <g id="_Group_recycle_arrow-9" data-name="&amp;lt;Group&amp;gt;recycle arrow">
            <path class="cls-24" d="M92.72,216.47s-13.09,5.22-15.98,2.19c-2.9-3.03-12.63-10.3-12.63-10.3,0,0-1.94-2.61-.18-9.12l-5.97-1.22,13.47-4.9,11.86,9.69-6.35-1.54-.84,6.28,12.35-3.6,4.27,12.53Z"/>
            <path class="cls-24" d="M76.1,207.54s-2.5,8.73,.64,11.12"/>
          </g>
        </g>
      </g>
    </g>
  </g>
</svg>