<?xml version="1.0" encoding="UTF-8"?>
<svg id="Layer_2" data-name="Layer 2" xmlns="http://www.w3.org/2000/svg" viewBox="0 0 142.3 115.2">
  <defs>
    <style>
      .cls-1 {
        fill: #a7a9ac;
      }

      .cls-2 {
        fill: #cccccb;
      }

      .cls-3 {
        fill: #414042;
      }

      .cls-4 {
        fill: #6d6e71;
      }

      .cls-5 {
        fill: #808285;
      }

      .cls-6 {
        stroke-width: 2px;
      }

      .cls-6, .cls-7, .cls-8, .cls-9, .cls-10 {
        stroke-miterlimit: 10;
      }

      .cls-6, .cls-8 {
        fill: #231f20;
      }

      .cls-6, .cls-8, .cls-9 {
        stroke: #231f20;
      }

      .cls-7 {
        fill: #ed1c24;
      }

      .cls-7, .cls-10 {
        stroke: #be1e2d;
      }

      .cls-9, .cls-10 {
        fill: none;
      }
    </style>
  </defs>
  <g id="can">
    <g>
      <g id="_Group_body" data-name="&amp;lt;Group&amp;gt; body">
        <path class="cls-7" d="M1.17,46.13c1.35,7.14,2.69,14.28,4.04,21.42,10.91,11.05,21.82,22.09,32.73,33.14,7.32,4.29,19.93,10.45,36.77,12.93,16.48,2.43,30.05,.31,38.25-1.62-17.44-7.07-28.03-24.46-26.12-42.03,1.6-14.72,11.75-27.52,26.12-33.14-2.53-.95-8.59-2.81-16.02-1.21-5.41,1.16-9.25,3.67-11.31,5.25,.14-3.31,0-10.48-4.04-18.18-3.33-6.35-7.81-10.2-10.4-12.12,2.31,17.01-5.79,33.7-20.31,42.03-15.79,9.05-36.16,6.49-49.7-6.47Z"/>
        <path class="cls-2" d="M112.96,111.99c3.1-.13,7.6-.76,12.23-3.21,15.16-8.01,16.82-27.61,17-30.33,1.08-15.57-6.73-33.31-20.74-39.44-3.33-1.45-6.37-1.98-8.5-2.18-3.48,1.31-12.35,5.18-18.99,14.68-7.81,11.17-7.41,22.76-7.17,26.17,.45,3.89,2.1,13.57,9.74,22.55,5.96,7.01,12.8,10.31,16.42,11.76Z"/>
        <ellipse class="cls-1" cx="115.45" cy="75.06" rx="23" ry="31.41"/>
        <path class="cls-2" d="M71.19,10.57c1.41,3.46,.78,7.45,.06,11.99-.24,1.53-.94,5.36-2.71,9.59-5.69,13.58-17.65,20.44-17.65,20.44-1.51,.87-12.73,7.09-27,4.83-6.29-1-10.81-3.27-14.08-4.91-4.5-2.26-7.06-3.59-8.62-6.39-.93-1.67-2.29-5.28,.44-13.34C3.18,28.17,8.69,11.88,26.03,3.89c1.35-.62,13.94-6.22,29.02-2.77,5.05,1.16,13.54,3.09,16.14,9.45Z"/>
        <path class="cls-1" d="M68.06,9.29c-3.5-5.09-11.66-6.43-17.22-7.34-7.88-1.29-14.09,.11-16.38,.71-1.18,.31-5.93,1.61-11.44,5.08-3.2,2.01-13.93,8.78-18.07,22.02-1.66,5.3-3.16,10.13-1.13,14.54,5.01,10.89,29.22,14.27,45.6,4.8,15.75-9.11,25.01-30.55,18.64-39.81Z"/>
        <ellipse class="cls-4" cx="22.43" cy="31.32" rx="12.14" ry="5.69" transform="translate(-12.65 15.41) rotate(-30)"/>
        <path class="cls-3" d="M11.54,35.8h0c1.08-1.22,2.34-2.5,3.83-3.76,4.1-3.48,8.28-5.48,11.5-6.66,1.32-.54,2.63-1.09,3.95-1.63-.7-.16-1.73-.33-2.98-.31-3.35,.05-5.72,1.43-8.25,2.94-5.73,3.43-7.36,6.95-7.84,8.18-.01,.03-.2,1.22-.2,1.22Z"/>
        <path class="cls-2" d="M32.56,20.3c-2.27,1.14-3.58,3.58-3.27,6.05,.29,2.32,1.96,4.28,4.24,4.96,5.24-1.04,10.89-2.39,16.85-4.17,4.42-1.32,8.56-2.73,12.41-4.18,.26-.25,.64-.71,.76-1.33,.31-1.62-1.37-3.04-5.2-6.78-3.34-3.26-3.21-3.3-3.7-3.49-2.68-1.01-4.52,1.04-10.93,3.81-6.32,2.73-7.5,3.28-11.16,5.13Z"/>
        <ellipse class="cls-1" cx="47.44" cy="19.98" rx="6.72" ry="3.19" transform="translate(-4.03 20.83) rotate(-23.79)"/>
        <path class="cls-5" d="M41.18,21.74h0c.67-.61,1.45-1.24,2.35-1.84,2.49-1.66,4.91-2.5,6.75-2.93,.76-.21,1.51-.43,2.27-.64-.37-.14-.92-.3-1.6-.38-1.83-.2-3.23,.41-4.71,1.08-3.37,1.53-4.51,3.39-4.86,4.04,0,.01-.2,.67-.2,.67Z"/>
        <ellipse class="cls-1" cx="35.66" cy="25" rx="3.62" ry="1.71" transform="translate(-7.76 21.71) rotate(-30.71)"/>
        <path class="cls-5" d="M32.43,26.35h0c.32-.37,.7-.75,1.14-1.13,1.22-1.05,2.46-1.66,3.41-2.01,.39-.16,.78-.33,1.17-.49-.21-.05-.51-.1-.88-.09-.99,.02-1.7,.43-2.45,.89-1.7,1.04-2.18,2.1-2.33,2.47,0,0-.06,.37-.06,.37Z"/>
        <path class="cls-10" d="M3.2,57.93c15.59,12.79,37.15,14.95,54.09,5.53,22.97-12.76,24.26-39.45,24.3-40.77"/>
        <path class="cls-10" d="M13.21,69.27c3.33,3.43,10.91,10.33,22.9,13.94,12.37,3.72,22.81,1.95,27.47,.86"/>
        <path class="cls-10" d="M38.4,93.51c1.72,.6,10.92,3.62,20.71-1.21,11.01-5.42,13.84-16.36,14.21-17.89-.38,7.61-.76,15.21-1.14,22.82"/>
        <path class="cls-10" d="M85.63,40.87c-.16,4.14-.81,9.72-2.87,16-1.68,5.12-3.82,9.27-5.72,12.39"/>
        <path class="cls-10" d="M96.23,114.48s-12.9-5.8-16.05-22.11"/>
        <path class="cls-4" d="M3.82,44.3c.34-2.81,2.89-21.01,19.36-32.09,20.65-13.89,43.71-3.48,44.88-2.93-.47-.48-1.2-1.18-2.16-1.95C53.85-2.35,36.52,2.09,34.45,2.65c-2.81,.76-6.9,2.2-11.44,5.08C19.81,9.96,.94,23.43,2.78,39.78c.16,1.43,.49,2.94,1.04,4.52Z"/>
        <path class="cls-4" d="M117.54,43.82c1.55,1.2,17.68,14.09,16.59,34.97-.79,14.94-9.9,24.5-12.33,26.9,2.27-1.19,4.77-2.85,7.14-5.19,9.28-9.16,9.56-21.75,9.51-25.43,.05-1.9,.22-20.1-12.62-28.1-1.92-1.2-4.64-2.49-8.29-3.14Z"/>
      </g>
      <g>
        <circle class="cls-8" cx="53.09" cy="58.83" r="2.12"/>
        <circle class="cls-8" cx="68.7" cy="44.26" r="2.12"/>
        <line class="cls-6" x1="54.38" y1="67.66" x2="78.01" y2="45.6"/>
        <path class="cls-9" d="M62.74,38.5s4.34,4.49,10.83-1.88"/>
        <path class="cls-9" d="M46.05,62.32s-4.02-7.67,5.49-9.84"/>
      </g>
    </g>
  </g>
</svg>