<?xml version="1.0" encoding="UTF-8"?>
<svg id="Layer_2" data-name="Layer 2" xmlns="http://www.w3.org/2000/svg" viewBox="0 0 68.31 57.9">
  <defs>
    <style>
      .cls-1 {
        fill: #ef3746;
      }

      .cls-2 {
        fill: #d1313a;
      }

      .cls-3 {
        stroke-width: 2px;
      }

      .cls-3, .cls-4 {
        fill: #231f20;
        stroke: #231f20;
        stroke-miterlimit: 10;
      }
    </style>
  </defs>
  <g id="hairdryer">
    <g>
      <g>
        <path class="cls-1" d="M44.18,8.96S-4.99,20.16,.41,35.84c0,0,1.08,13.96,28.09,6.03,0,0,15.67,6.55,19.45,9.99s7.38,7.75,14.41,5.34,2.34-8.79,2.34-8.79l-26.11-14.13,16.57-16.54-10.99-8.79Z"/>
        <path class="cls-2" d="M44.18,8.96L54.26,0s13.51,9.13,14.05,11.54l-13.15,6.2-10.99-8.79Z"/>
      </g>
      <g id="_Group_face_1" data-name="&amp;lt;Group&amp;gt; face 1">
        <ellipse class="cls-4" cx="9.85" cy="33.76" rx="1.33" ry="1.39" transform="translate(-24.19 42.62) rotate(-88.34)"/>
        <ellipse class="cls-4" cx="21.56" cy="26.46" rx="1.33" ry="1.39" transform="translate(-5.52 47.25) rotate(-88.34)"/>
        <line class="cls-3" x1="9.68" y1="39.36" x2="27.42" y2="28.31"/>
      </g>
    </g>
  </g>
</svg>