<?xml version="1.0" encoding="UTF-8"?>
<svg id="Layer_2" data-name="Layer 2" xmlns="http://www.w3.org/2000/svg" viewBox="0 0 73.67 81.54">
  <defs>
    <style>
      .cls-1 {
        fill: #e2f3f8;
      }

      .cls-2 {
        fill: #9ddcf4;
      }

      .cls-3 {
        fill: #3496c2;
      }

      .cls-4 {
        fill: #70ccf4;
      }

      .cls-5 {
        fill: #231f20;
        stroke: #231f20;
        stroke-miterlimit: 10;
        stroke-width: 2px;
      }
    </style>
  </defs>
  <g id="broken_glass" data-name="broken glass">
    <g id="_Group_broken_glass" data-name="&amp;lt;Group&amp;gt;broken glass">
      <g>
        <path class="cls-4" d="M42.11,46.55l7.37,26.81c.91-.18,1.83-.37,2.77-.58,1.04-.23,2.06-.48,3.05-.73-2.2-9.19-4.39-18.38-6.59-27.57l-6.59,2.07Z"/>
        <path class="cls-3" d="M51.42,43.84l-12.86,3.66c-1.43,.41-2.93-.37-3.36-1.73l-.67-2.15c-.43-1.36,.39-2.8,1.81-3.2l12.86-3.66c1.43-.41,2.93,.37,3.36,1.73l.67,2.15c.43,1.36-.39,2.8-1.81,3.2Z"/>
        <path class="cls-4" d="M0,5.93C3.7,26.11,13.65,41.67,25.66,43.39c4.84,.69,10.45-.8,17.63-2.71,9.21-2.45,14.52-3.86,18.14-8.42,5.7-7.18,3.11-17.05,2.33-19.66-2.33,.25-4.67,.49-7,.74l-6.61-10.01-5.44,7.79-15.55-5.93L26.83,0,0,5.93Z"/>
        <path class="cls-4" d="M34.94,81.54l38.66-8.2c.14-.7,.06-1.26-.14-1.72-2.1-4.83-19.48-1.85-21.22-1.54-1.09,.22-17.19,3.62-17.55,9.87-.03,.49,.04,1.02,.24,1.58Z"/>
      </g>
      <g id="_Group_light" data-name="&amp;lt;Group&amp;gt;light">
        <path class="cls-2" d="M34.9,78.96l37.96-8.19c-.29-.18-.73-.43-1.28-.7-2.06-1.02-6.42-2.66-19.34,0-12.57,2.59-15.23,5.54-16.36,7.16-.48,.69-.8,1.3-.99,1.72Z"/>
        <path class="cls-2" d="M0,5.93c.51,5.1,2.01,12.92,6.8,21.21,2.43,4.21,5.15,7.57,7.58,10.13,2.42,.02,11.61-.19,19.8-6.81,9.12-7.37,10.33-17.3,10.54-19.34-5.18-1.98-10.37-3.96-15.55-5.93L26.83,0,0,5.93Z"/>
        <ellipse class="cls-1" cx="11.92" cy="17.24" rx="5.24" ry="4.55"/>
        <polygon class="cls-1" points="0 5.93 .78 11.15 29.16 5.19 26.83 0 0 5.93"/>
      </g>
      <g id="_Group_face_2" data-name="&amp;lt;Group&amp;gt; face 2">
        <g>
          <path class="cls-5" d="M22.62,25.67c2.03,1.33,4.06,2.65,6.08,3.98"/>
          <path class="cls-5" d="M27.41,24.56c-1.17,2.06-2.33,4.13-3.5,6.19"/>
        </g>
        <g>
          <path class="cls-5" d="M38.52,21.99c2.03,1.33,4.06,2.65,6.08,3.98"/>
          <path class="cls-5" d="M43.32,20.88c-1.17,2.06-2.33,4.13-3.5,6.19"/>
        </g>
        <line class="cls-5" x1="23.18" y1="34.26" x2="46.77" y2="28.8"/>
      </g>
    </g>
  </g>
</svg>