<?xml version="1.0" encoding="UTF-8"?>
<svg id="Layer_2" data-name="Layer 2" xmlns="http://www.w3.org/2000/svg" viewBox="0 0 96.86 127.01">
  <defs>
    <style>
      .cls-1 {
        fill: #fff;
      }

      .cls-2 {
        fill: #a2ddf5;
      }

      .cls-3 {
        fill: #74a0b2;
      }

      .cls-4 {
        stroke-width: 2px;
      }

      .cls-4, .cls-5 {
        fill: #231f20;
        stroke: #231f20;
        stroke-miterlimit: 10;
      }
    </style>
  </defs>
  <g id="trash_faces" data-name="trash faces">
    <g>
      <path class="cls-2" d="M0,15.72C9.09,80.25,13.87,114.19,13.87,114.19h0s3.67,3.74,3.81,3.88c2.59,2.64,12.45,8.16,24.63,8.86,16.82,.97,29.38-7.76,33.27-10.7,3.13-12.5,6.16-25.32,9.07-38.44,4.66-21.06,8.71-41.57,12.22-61.46-5.1,2.7-11.65,5.59-19.52,7.78-12.1,3.36-21.8,3.48-27.77,3.52-6.14,.04-15.56,.04-27.39-3.04C12.68,22.12,5.19,18.6,0,15.72Z"/>
      <ellipse class="cls-3" cx="48.43" cy="13.87" rx="48.43" ry="13.87"/>
      <path class="cls-1" d="M84.96,31.1c-.57,10.26-2.19,20.41-4.79,30.35-.82,3.12,4.01,4.44,4.82,1.33,2.71-10.36,4.37-20.99,4.97-31.68,.18-3.21-4.82-3.2-5,0h0Z"/>
      <path class="cls-1" d="M78.55,69.19c-.3,2.12-.8,4.2-1.49,6.22-.2,.59-.06,1.4,.25,1.93s.9,1.01,1.49,1.15c1.39,.32,2.62-.42,3.08-1.75,.69-2.02,1.19-4.1,1.49-6.22,.1-.33,.12-.66,.04-1-.02-.33-.11-.64-.3-.93-.3-.52-.9-1.01-1.49-1.15-.64-.15-1.36-.11-1.93,.25-.51,.33-1.06,.87-1.15,1.49h0Z"/>
      <g id="_Group_face_1" data-name="&amp;lt;Group&amp;gt; face 1">
        <circle class="cls-5" cx="35.41" cy="48.73" r="2.12"/>
        <circle class="cls-5" cx="56.76" cy="48.73" r="2.12"/>
        <line class="cls-4" x1="30.33" y1="56.06" x2="62.65" y2="56.06"/>
      </g>
    </g>
  </g>
</svg>