<?xml version="1.0" encoding="UTF-8"?>
<svg id="Layer_2" data-name="Layer 2" xmlns="http://www.w3.org/2000/svg" viewBox="0 0 105.93 147.19">
  <defs>
    <style>
      .cls-1 {
        fill: #fffcd6;
      }

      .cls-2 {
        fill: #1eb685;
      }

      .cls-3 {
        fill: #221f20;
      }

      .cls-4 {
        stroke-width: 2px;
      }

      .cls-4, .cls-5 {
        fill: #231f20;
      }

      .cls-4, .cls-5, .cls-6 {
        stroke: #231f20;
        stroke-miterlimit: 10;
      }

      .cls-6 {
        fill: none;
      }
    </style>
  </defs>
  <g id="avocado">
    <g id="_Group_body" data-name="&amp;lt;Group&amp;gt;body">
      <path class="cls-2" d="M35.38,1.17c-7.18,1.97-11.72,9.27-13.32,16.54-1.6,7.27-.98,14.83-1.68,22.24-1.28,13.4-6.89,26.12-8,39.53-.81,9.79,.8,19.63,3.2,29.16,1.49,5.92,3.32,11.85,6.64,16.97,8.83,13.6,26.34,18.81,42.54,19.44,6.11,.24,12.47-.08,17.92-2.86,5.26-2.68,9.19-7.39,12.48-12.29,5.41-8.05,9.6-17.14,10.56-26.79,2.1-21.22-11.33-40.51-24.1-57.59-7.88-10.54-15.77-21.08-23.65-31.63C52.62,6.76,45.43-1.19,36.62,.15"/>
      <path class="cls-3" d="M36.97,.55c-.71-.79-19.82,8.44-25.75,26.21-3.07,9.2,.96,9.98-2.27,25.46-2.28,10.9-4.95,13.73-7.2,26.49C.72,84.53-.2,89.74,.04,95.67c.79,19.67,13.87,33.73,15.24,35.16,14.01,14.61,36.39,19.86,57.84,14.01-7.15,.49-13.04-.05-17.17-.67-6.6-.99-12.3-1.91-18.25-5.74-1.24-.8-4.19-2.82-8.54-7.92-3.75-4.4-11.48-13.68-15.23-28.36-3.22-12.6-1.88-22.81-1.18-27.73,1.62-11.49,4.29-11.07,6.78-23.65,3.57-18.04-.99-22.43,4.12-33.69C28.76,5.82,37.46,1.09,36.97,.55Z"/>
      <ellipse class="cls-1" cx="56.22" cy="88.94" rx="24.1" ry="34.6" transform="translate(-17.04 13.42) rotate(-11.83)"/>
      <g id="_Group_face_3" data-name="&amp;lt;Group&amp;gt; face 3">
        <ellipse class="cls-5" cx="36.21" cy="31.72" rx="1.84" ry="1.86"/>
        <ellipse class="cls-5" cx="54.45" cy="28.79" rx="1.84" ry="1.86"/>
        <line class="cls-4" x1="32.86" y1="38.78" x2="60.48" y2="34.33"/>
        <path class="cls-6" d="M52.96,21.68s.94,5.4,8.67,3.95"/>
        <path class="cls-6" d="M29.48,30.8s.83-7.55,8.7-4.46"/>
      </g>
    </g>
  </g>
</svg>