<?xml version="1.0" encoding="UTF-8"?>
<svg id="Layer_2" data-name="Layer 2" xmlns="http://www.w3.org/2000/svg" viewBox="0 0 53.78 52.47">
  <defs>
    <style>
      .cls-1 {
        fill: #f6f6f6;
      }

      .cls-2 {
        fill: #574e47;
      }

      .cls-3 {
        fill: #504741;
      }

      .cls-4 {
        stroke-width: 2px;
      }

      .cls-4, .cls-5 {
        fill: #231f20;
        stroke: #231f20;
        stroke-miterlimit: 10;
      }
    </style>
  </defs>
  <g id="mouse">
    <g>
      <g>
        <path class="cls-2" d="M7.21,50.2l-3.26-2.58c-4.53-3.59-5.28-10.16-1.68-14.68l7.57-9.5c3.6-4.52,10.19-5.27,14.71-1.68l3.26,2.58c4.53,3.59,5.28,10.16,1.68,14.68l-7.57,9.5c-3.6,4.52-10.19,5.27-14.71,1.68Z"/>
        <path class="cls-3" d="M26.26,24.21c2.27-1.96,4.72-4.5,4.56-7.74-.18-3.48-3.28-6.22-3.01-9.75s4.33-4.1,7.05-3.44c1.74,.42,3.37,1.17,5.07,1.72s3.48,.88,5.26,.84c3.48-.08,7.05-1.78,8.54-5.07,.26-.58-.6-1.09-.86-.5-1.38,3.06-4.66,4.56-7.9,4.58-1.86,0-3.66-.41-5.41-1.02s-3.33-1.32-5.09-1.64c-2.54-.47-5.74,.07-7.1,2.54-1.76,3.2,.74,6.51,1.87,9.43,.71,1.82,.77,3.63-.17,5.38-.85,1.57-2.18,2.83-3.53,3.98-.49,.42,.22,1.13,.71,.71h0Z"/>
        <path class="cls-1" d="M19.82,30.51l-.49-.42c-.36-.31-.4-.86-.09-1.22l3.27-3.79c.31-.36,.86-.4,1.22-.09l.49,.42c.36,.31,.4,.86,.09,1.22l-3.27,3.79c-.31,.36-.86,.4-1.22,.09Z"/>
      </g>
      <g id="_Group_face_1" data-name="&amp;lt;Group&amp;gt; face 1">
        <ellipse class="cls-5" cx="10.43" cy="35.37" rx="1.11" ry=".89" transform="translate(-24.34 23.08) rotate(-54.1)"/>
        <ellipse class="cls-5" cx="17.65" cy="40.6" rx="1.11" ry=".89" transform="translate(-25.59 31.09) rotate(-54.1)"/>
        <line class="cls-4" x1="6.48" y1="37.22" x2="17.4" y2="45.13"/>
      </g>
    </g>
  </g>
</svg>