<?xml version="1.0" encoding="UTF-8"?>
<svg id="Layer_2" data-name="Layer 2" xmlns="http://www.w3.org/2000/svg" viewBox="0 0 83.53 104.53">
  <defs>
    <style>
      .cls-1 {
        fill: #f89a31;
      }

      .cls-2 {
        fill: #f05259;
      }

      .cls-3 {
        fill: #ffd58d;
      }

      .cls-4 {
        fill: #71bf44;
      }

      .cls-5 {
        fill: #231f20;
        stroke: #231f20;
      }

      .cls-5, .cls-6, .cls-7 {
        stroke-miterlimit: 10;
        stroke-width: 2px;
      }

      .cls-6 {
        stroke: #009444;
      }

      .cls-6, .cls-7 {
        fill: none;
      }

      .cls-7 {
        stroke: #be1e2d;
      }
    </style>
  </defs>
  <g id="apple">
    <g id="_Group_Object_ver.2" data-name="&amp;lt;Group&amp;gt; Object ver.2">
      <g>
        <path class="cls-2" d="M83.09,55.76c-3.01,14.36-6.27,23.28-9.49,31.84-3.5,9.29-6.36,15.05-11.67,16.53-4.14,1.15-9.42-.36-15.55-2.16-.32-.1-.64-.2-.95-.29-4.4-1.36-9.09-1.24-13.44,.28-13.05,4.55-19.62,.89-22.17-1.36-.71-1.08-1.42-2.21-2.13-3.38-1.16-1.93-2.19-3.82-3.12-5.63-2-2.61-2.13-3.69-1.79-4.16,.4-.56,1.42-.19,3.09-.48,0,0,1.61-.28,4.08-1.87,13.67-8.82,15.28-21.57,15.28-21.57,1.85-14.63-9.3-28.17-19.43-30.45-3.28-.74-5.45-.07-5.75-1.03-.85-2.67,14.79-13.2,30.05-10.64,1.02,.17,1.83,.37,2.24,.47l.77,.2c3.03,.81,6.21,.9,9.3,.33,5.15-.95,14.41-1.79,24.47,1.47,12.64,4.09,15.72,18.45,16.53,25.27,.26,2.21,.15,4.45-.31,6.63Z"/>
        <path class="cls-2" d="M8.6,99.3c.2,.24,.37,.44,.5,.6-.25-.26-.41-.47-.5-.6Z"/>
        <path class="cls-2" d="M9.82,100.6s0,.03,0,.03c-.03,.02-.18-.1-.66-.68,.18,.2,.4,.42,.67,.65Z"/>
        <path id="_Path_neck" data-name="&amp;lt;Path&amp;gt;neck" class="cls-1" d="M33.67,33.02V11.62c0-1.94,1.57-3.5,3.5-3.5h2.08c1.94,0,3.5,1.57,3.5,3.5v21.39c0,1.41-.84,2.7-2.15,3.24-.76,.31-1.7,.53-2.79,.46-.81-.05-1.51-.24-2.1-.49-1.27-.53-2.05-1.82-2.05-3.19Z"/>
        <path class="cls-7" d="M27.55,29.34s-.68,3.68,7.83,6.42c1.99,.64,4.13,.67,6.13,.07,2.59-.78,5.85-2.53,7.39-6.5"/>
      </g>
      <g id="_Group_leaf" data-name="&amp;lt;Group&amp;gt; leaf">
        <path id="_Path_leaf" data-name="&amp;lt;Path&amp;gt;leaf" class="cls-4" d="M42.76,21s1.58-13.01,11.86-18.54c10.28-5.53,19.77,0,19.77,0,0,0,1.58,9.49-5.14,17.79-6.72,8.3-26.49,5.53-26.49,5.53v-4.78Z"/>
        <path class="cls-6" d="M43.5,25.82c1.1-2.65,6.18-14.14,17.26-17.05,1.5-.39,3.27-.67,5.31-.66"/>
      </g>
      <path id="_Path_eaten_part" data-name="&amp;lt;Path&amp;gt;eaten part" class="cls-3" d="M.03,32.03c1.84,1.86,14.51,15.16,12.28,34.03-1.28,10.83-6.85,18.23-9.54,21.37,1.66-.22,13.33-1.95,19.9-12.54,6.7-10.8,2.79-22.3,1.29-25.91-1.02-2.45-4.01-9.37-11.64-13.65-4.98-2.8-9.74-3.24-12.28-3.29Z"/>
      <g id="_Group_face_2" data-name="&amp;lt;Group&amp;gt; face 2">
        <g>
          <path class="cls-5" d="M39.44,55.44c1.66,2.51,3.33,5.03,4.99,7.54"/>
          <path class="cls-5" d="M45.84,56.92c-2.6,1.53-5.2,3.05-7.8,4.58"/>
        </g>
        <g>
          <path class="cls-5" d="M60.68,60.36c1.66,2.51,3.33,5.03,4.99,7.54"/>
          <path class="cls-5" d="M67.07,61.84c-2.6,1.53-5.2,3.05-7.8,4.58"/>
        </g>
        <line class="cls-5" x1="35.13" y1="64.78" x2="66.62" y2="72.07"/>
      </g>
    </g>
  </g>
</svg>