<?xml version="1.0" encoding="UTF-8"?>
<svg id="Layer_2" data-name="Layer 2" xmlns="http://www.w3.org/2000/svg" viewBox="0 0 64.59 68.54">
  <defs>
    <style>
      .cls-1 {
        fill: #a0503a;
      }

      .cls-2 {
        fill: #c0694a;
      }

      .cls-3 {
        fill: #be6047;
      }

      .cls-4 {
        fill: #531e19;
      }

      .cls-5 {
        fill: #231f20;
        stroke: #231f20;
        stroke-miterlimit: 10;
        stroke-width: 2px;
      }
    </style>
  </defs>
  <g id="bottle">
    <g>
      <g id="_Group_bottle" data-name="&amp;lt;Group&amp;gt;bottle">
        <g id="_Group_body" data-name="&amp;lt;Group&amp;gt;body">
          <path class="cls-1" d="M0,48.26c4.35-6.09,8.7-12.18,13.05-18.27,2.11-3.13,4.11-4.04,5.54-4.28,1.94-.33,3.27,.47,6.66,.28,1.59-.09,2.88-.35,3.7-.55,4.58-5.99,9.16-11.97,13.73-17.96l14.79,8.24-11.41,17.32c-.26,.55-.53,1.37-.42,2.32,.23,1.92,1.86,2.83,2.75,4.01,1.01,1.35,1.6,3.82-.2,8.72-2.19,3.5-4.38,7-6.56,10.5-2.31,1.66-4.69,3.33-7.14,5-2.51,1.71-4.99,3.36-7.44,4.93-.7-4.3-1.41-8.59-2.11-12.89l-11.41,.85-1.06-8.66-12.47,.42Z"/>
          <path class="cls-3" d="M64.58,11.72c.15,1.91-1.58,4.01-3.52,4.64-2.09,.68-3.71-.58-8.45-3.38-8.99-5.31-11.69-5.83-11.83-8.24-.11-1.8,1.27-3.72,2.92-4.45,2.26-1,4.11,.65,12.09,5.09,6.6,3.67,8.65,4.39,8.8,6.35Z"/>
        </g>
        <g id="_Group_shadow" data-name="&amp;lt;Group&amp;gt;shadow">
          <path class="cls-2" d="M28.94,25.44l16.69,9.93c.59,.53,3.87,3.61,3.75,8.26-.05,1.98-.7,3.54-1.2,4.48-11.45-6.39-22.91-12.79-34.36-19.18,.72-1.11,1.52-1.88,2.22-2.43,4.95-3.83,11.95-1.4,12.9-1.06Z"/>
          <path class="cls-2" d="M41.3,2.58c7.42,4,14.84,7.99,22.26,11.99,.46-.48,1.03-1.27,1-2.22-.04-1.06-.84-1.9-3.05-3.47-1.38-.98-3.3-2.23-5.73-3.51-2.22-1.36-4.18-2.44-5.72-3.26C45.82-.12,44.59-.05,43.69,.28c-1.22,.44-1.97,1.5-2.39,2.3Z"/>
          <path class="cls-4" d="M42.68,7.48c-.6,.79-1.2,1.57-1.81,2.36,4.92,2.89,9.83,5.79,14.75,8.68l1.81-2.75c-4.92-2.77-9.83-5.53-14.75-8.3Z"/>
          <path class="cls-2" d="M5.09,48.09l8.74-13.01c1.36-1.53,3.58-1.94,5.35-1.02,1.88,.98,2.8,3.23,2.13,5.3-2.7,4.15-5.4,8.3-8.11,12.45l-.73-3.98-7.38,.25Z"/>
        </g>
      </g>
      <g id="_Group_face_2" data-name="&amp;lt;Group&amp;gt; face 2">
        <g>
          <path class="cls-5" d="M26.5,29.39c.49,1.84,.99,3.68,1.48,5.52"/>
          <path class="cls-5" d="M29.78,31.48c-1.69,.45-3.38,.89-5.07,1.34"/>
        </g>
        <g>
          <path class="cls-5" d="M37.39,36.33c.49,1.84,.99,3.68,1.48,5.52"/>
          <path class="cls-5" d="M40.66,38.42c-1.69,.45-3.38,.89-5.07,1.34"/>
        </g>
        <line class="cls-5" x1="22.55" y1="34.27" x2="38.69" y2="44.57"/>
      </g>
    </g>
  </g>
</svg>