<?xml version="1.0" encoding="UTF-8"?>
<svg id="Layer_2" data-name="Layer 2" xmlns="http://www.w3.org/2000/svg" viewBox="0 0 89.63 104.54">
  <defs>
    <style>
      .cls-1 {
        fill: #f89a31;
      }

      .cls-2 {
        fill: #f05259;
      }

      .cls-3 {
        fill: #71bf44;
      }

      .cls-4, .cls-5 {
        fill: #231f20;
        stroke: #231f20;
      }

      .cls-4, .cls-5, .cls-6, .cls-7 {
        stroke-miterlimit: 10;
      }

      .cls-4, .cls-6, .cls-7 {
        stroke-width: 2px;
      }

      .cls-6 {
        stroke: #009444;
      }

      .cls-6, .cls-7 {
        fill: none;
      }

      .cls-7 {
        stroke: #be1e2d;
      }
    </style>
  </defs>
  <g id="apple">
    <g id="_Group_Object" data-name="&amp;lt;Group&amp;gt; Object">
      <g>
        <path id="_Path_body" data-name="&amp;lt;Path&amp;gt;body" class="cls-2" d="M38.42,21.86c-.74-.2-1.48-.35-2.24-.47-4.11-.61-12.63-1.14-20.78,3.69C1.16,33.52,.09,51.21,.02,52.98c-.25,5.53,2.4,14.02,7.69,31.02,.49,1.58,1.04,3.27,1.95,5.4,2.8,6.53,6.44,11.09,6.25,11.23-.05,.03-.31-.2-1.31-1.44,0,0,5.78,8.96,23.49,2.77,4.34-1.52,9.04-1.64,13.44-.28,.31,.1,.63,.19,.95,.29,6.13,1.81,11.41,3.32,15.54,2.17,5.31-1.48,8.18-7.24,11.67-16.53,3.22-8.57,6.48-17.49,9.49-31.84,.46-2.18,.57-4.42,.31-6.64-.81-6.81-3.88-21.18-16.53-25.27-10.05-3.25-19.31-2.42-24.46-1.47-3.09,.57-6.27,.48-9.31-.33l-.77-.2Z"/>
        <path id="_Path_neck" data-name="&amp;lt;Path&amp;gt;neck" class="cls-1" d="M39.77,33.02V11.62c0-1.94,1.57-3.5,3.5-3.5h2.08c1.94,0,3.5,1.57,3.5,3.5v21.39c0,1.41-.84,2.7-2.15,3.24-.76,.31-1.7,.53-2.79,.46-.81-.05-1.51-.24-2.1-.49-1.27-.53-2.05-1.82-2.05-3.19Z"/>
        <path class="cls-7" d="M33.65,29.34s-.68,3.68,7.83,6.42c1.99,.64,4.13,.67,6.13,.07,2.59-.78,5.85-2.53,7.39-6.5"/>
      </g>
      <g id="_Group_leaf" data-name="&amp;lt;Group&amp;gt; leaf">
        <path id="_Path_leaf" data-name="&amp;lt;Path&amp;gt;leaf" class="cls-3" d="M48.86,21s1.58-13.01,11.86-18.54c10.28-5.53,19.77,0,19.77,0,0,0,1.58,9.49-5.14,17.79-6.72,8.3-26.49,5.53-26.49,5.53v-4.78Z"/>
        <path class="cls-6" d="M49.6,25.82c1.1-2.65,6.18-14.14,17.26-17.05,1.5-.39,3.27-.67,5.31-.66"/>
      </g>
      <g id="_Group_face_1" data-name="&amp;lt;Group&amp;gt; face 1">
        <circle class="cls-5" cx="33.63" cy="61.63" r="2.12"/>
        <circle class="cls-5" cx="54.99" cy="61.63" r="2.12"/>
        <line class="cls-4" x1="28.55" y1="68.96" x2="60.88" y2="68.96"/>
      </g>
    </g>
  </g>
</svg>