<?xml version="1.0" encoding="UTF-8"?>
<svg id="Layer_2" data-name="Layer 2" xmlns="http://www.w3.org/2000/svg" viewBox="0 0 142.81 65.41">
  <defs>
    <style>
      .cls-1 {
        fill: #fff;
      }

      .cls-2 {
        fill: #e0d0c2;
      }

      .cls-3 {
        fill: #6e6059;
      }

      .cls-4 {
        fill: #594b44;
      }

      .cls-5 {
        stroke-width: 2px;
      }

      .cls-5, .cls-6 {
        fill: #231f20;
      }

      .cls-5, .cls-6, .cls-7 {
        stroke: #231f20;
        stroke-miterlimit: 10;
      }

      .cls-7 {
        fill: none;
      }
    </style>
  </defs>
  <g id="computer">
    <g>
      <g>
        <rect class="cls-2" x="10.67" y="0" width="123.69" height="57.54" rx="2.86" ry="2.86"/>
        <rect class="cls-4" x="0" y="57.9" width="142.81" height="7.51" rx="2.34" ry="2.34"/>
        <rect class="cls-3" x="17.74" y="5.79" width="109.93" height="47.88" rx="2.86" ry="2.86"/>
        <g>
          <path class="cls-1" d="M66.2,45.16c1.31,.23,3.5-.36,4.03-.51,.08-.02,.17-.05,.25-.07,1.14-.32,2.35-.3,3.48,.07,3.38,1.08,5.08,.21,5.74-.32,.18-.26,.37-.53,.55-.81,.3-.46,.57-.91,.81-1.34,.04-.08,.27-.51,.46-.99,.22-.55,.53-1.45,.69-2.7-.44-.16-2.69-1.02-3.67-3.37-1.08-2.59,.04-5.45,1.66-6.94,.44-.41,.87-.67,1.18-.83-.91-1.22-1.87-1.69-2.38-1.87,0,0-1.46-.56-4.55-.02-.27,.05-.58,.11-.58,.11-.67,.18-1.35,.35-2.02,.53-.45-.3-1.16-.7-2.12-.9-2.33-.49-4.23,.53-4.8,.84-2.15,1.17-3.11,3.05-3.49,3.81-2.76,5.56,1.05,11.61,1.83,12.77,.74,1.1,1.58,2.31,2.94,2.56Z"/>
          <path class="cls-1" d="M71.69,24.8c-.08-.31-.39-1.73,.08-3.3,.1-.33,.55-1.69,1.66-2.33,1.03-.59,1.94-.15,2.16-.03-1.3,1.89-2.6,3.77-3.91,5.66Z"/>
          <path class="cls-1" d="M75.58,19.13c.08,.31,.39,1.73-.08,3.3-.1,.33-.55,1.69-1.66,2.33-1.03,.59-1.94,.15-2.16,.03,1.3-1.89,2.6-3.77,3.91-5.66Z"/>
        </g>
      </g>
      <g id="_Group_face_3" data-name="&amp;lt;Group&amp;gt; face 3">
        <ellipse class="cls-6" cx="66.31" cy="11.77" rx=".93" ry=".87"/>
        <ellipse class="cls-6" cx="75.62" cy="11.77" rx=".93" ry=".87"/>
        <line class="cls-5" x1="64.09" y1="14.77" x2="78.18" y2="14.77"/>
        <path class="cls-7" d="M75.43,8.39s.05,2.55,4.01,2.46"/>
        <path class="cls-7" d="M63.02,10.85s1-3.41,4.68-1.41"/>
      </g>
    </g>
  </g>
</svg>