<?xml version="1.0" encoding="UTF-8"?>
<svg id="Layer_2" data-name="Layer 2" xmlns="http://www.w3.org/2000/svg" viewBox="0 0 399.48 218.09">
  <defs>
    <style>
      .cls-1 {
        fill: #688d9b;
      }

      .cls-2 {
        fill: #8facc4;
      }

      .cls-3 {
        fill: #b35347;
      }

      .cls-4 {
        fill: #d7c7b6;
      }

      .cls-5 {
        fill: #b15447;
      }

      .cls-6 {
        fill: #c8c5dd;
      }

      .cls-7 {
        fill: #70cbd0;
      }

      .cls-8 {
        fill: #555557;
      }

      .cls-9 {
        fill: #4e7e8e;
      }
    </style>
  </defs>
  <g id="pile_of_trash" data-name="pile of trash">
    <g>
      <path class="cls-1" d="M14.82,159.82c-.41-2.65,6.85-6.37,12.18-7.97,7.65-2.3,9.45,.32,14.41-1.36,10.16-3.44,7.59-14.82,19.9-27.32,4.24-4.3,10.19-6.77,13.88-11.55,2.82-3.65,4.02-8.28,6.25-12.32,6.99-12.7,22.78-17.87,31.81-29.2,6.49-8.15,9.45-19.41,18.17-25.12,2.5-1.64,5.36-2.72,7.71-4.56,3.82-3,5.88-7.65,8.62-11.66,10.03-14.68,28.86-20.39,46.49-22.66,2.7-.35,5.55-.62,8.06,.43s4.5,3.88,3.66,6.47c9.07,4.26,21.67,.81,28.26,8.36,1.84,2.11,2.87,4.81,4.62,7,5.58,6.99,16.13,6.71,24.28,10.39,1.05,.48,2.11,1.06,2.79,1.99,1.94,2.66-.07,6.32-.13,9.62-.1,5.61,5.63,9.61,11.1,10.87,5.47,1.26,11.34,.94,16.48,3.19-2.5,2.81-5.3,6.87-4.34,10.76,1.01,4.07,5.21,4.22,10.05,9.55,6.11,6.74,2.69,10.15,8.2,15.37,5.39,5.1,10.7,3.75,14.33,9.82,1.55,2.59,.93,2.82,2.41,5.85,2.08,4.25,6.78,6.42,10.34,9.53s5.95,9.06,2.54,12.33c15.8-2.09,23.69,22.22,39.52,24.05-11,2.29-22.35-.35-33.58-.54-9.14-.15-18.31,1.35-26.92,4.42-1.81,.64-3.64,1.36-5.56,1.32-2.71-.06-5.13-1.63-7.73-2.38-10.17-2.96-20.18,6.67-30.74,5.87-3.49-.26-6.82-1.67-10.31-2.02-5.98-.6-11.76,1.92-17.56,3.47-15.58,4.17-32.13,1.41-47.82-2.35-6.49-1.55-13.42-3.26-19.68-.95-4,1.47-8.27,4.52-12.05,2.57-1.26-.65-2.2-1.78-3.34-2.63-3.07-2.29-6.47-2.43-8.31-2.6-33.33-3-50-4.49-55.09-4.28-27,1.11-29.22,2.91-50.34,2.72-12.84-.11-31.9-.37-32.54-4.49Z"/>
      <g id="_Group_shadow" data-name="&amp;lt;Group&amp;gt; shadow">
        <polygon class="cls-9" points="61.69 131.65 70.52 138.27 70.52 149.3 81.06 144.89 88.17 135.88 113.55 131.65 118.54 120.07 85.42 126.69 61.69 131.65"/>
        <path class="cls-9" d="M150.51,77.27l5.96,8.04s2.76,6.62-2.98,11.59l-5.74,4.97h24.83l-7.72-12.29,16-9.77,15.45-9.38h-29.24l-3.86,6.86s-7.72,5.75-12.69,0Z"/>
        <path class="cls-9" d="M205.96,14.21s2.48,16.05-5.79,17.65,16.55,9,18.21,3.09,20.32,6.23,17.06,10.09-7.58,11.59-7.58,11.59l27.61-7.17-16.61-22.56s-5.58-12.62-32.89-12.69Z"/>
        <path class="cls-9" d="M176.31,94.14c3.44,3.86,13.93,13.24,13.93,13.24l6.07-10.48-19.99-2.76Z"/>
        <path class="cls-9" d="M285.67,120.07s-8.83,22.07-33.1,14.62l-18.49-6.54h-10.19l27.03,18.4s0,16.55-31.45,6.62c0,0-9.38,3.35-3.31,7.19s39.29-.4,39.29-.4c0,0,4.48,13.22-1.68,11.21s22.52-6.74,31.9-2.17,7.17-19.7,7.17-19.7c0,0,2.21-16,10.48-7.72,8.28,8.28,0,13.79,0,13.79,0,0,1.92,8.28,19.16,1.1,0,0,12.24,3.59,6.18,6.13s15.47,4.31,11.89-1.19,11.62-19.82,11.62-19.82c0,0-1.62-4.43-14.76-4.71,0,0,3.97,14.07-7.06,8.83-11.03-5.24-30.01-17.53-18.76-25.66,0,0-14.03-13.23-25.93,0Z"/>
      </g>
      <g id="_Group_trash_bits" data-name="&amp;lt;Group&amp;gt; trash bits">
        <path class="cls-2" d="M138.92,174.59c-2.54,.16-5.03,1.03-7.1,2.5-1.21,.86-2.3,2.67-1.19,3.65,.36,.32,.86,.43,1.34,.5,2.3,.36,4.79,.26,6.75-.98s3.15-3.9,2.17-6"/>
        <path class="cls-6" d="M263.35,183.82c-1.05,.79-.85,2.53,.06,3.48s2.25,1.31,3.52,1.63c4.95,1.24,9.91,2.48,14.86,3.72,1.4,.35,3.02,.67,4.2-.17,1.85-1.31,1.23-4.34,2.61-6.14,.56-.73,1.49-1.38,1.37-2.29-.18-1.37-2.14-1.25-3.51-1.43-2.77-.37-4.41-3.32-6.9-4.59-3.19-1.61-7-.19-10.28,1.24-2.28,1-4.56,1.99-6.85,2.99"/>
        <path class="cls-2" d="M198.45,188.29c-2.39,.82-4.72,1.83-6.95,3.04-.92,.5-1.97,1.4-1.58,2.37,.19,.47,.66,.75,1.11,.98,1.89,.96,3.92,1.63,6.01,1.97,1.55,.26,3.18,.33,4.64-.25,1.04-.41,1.93-1.12,2.81-1.83,1.78-1.43,3.56-2.87,5.34-4.3,.2-.16,.41-.33,.5-.57,.28-.72-.59-1.33-1.32-1.59-3.53-1.24-7.34-1.67-11.05-1.24"/>
        <path class="cls-3" d="M347.47,173.15c5.18-.69,10.5-.25,15.49,1.29,.68,.21,1.47,.56,1.61,1.26,.18,.94-.92,1.59-1.84,1.85-5.73,1.62-12.22,.22-16.77-3.62"/>
        <path class="cls-4" d="M300.95,173.01l-.48,5.2c-.05,.57-.07,1.23,.36,1.6,.31,.27,.75,.29,1.15,.31,1.71,.07,3.41,.13,5.12,.2,2.52,.1,5.52-.05,6.84-2.2,1.08-1.77,.36-4.23-1.21-5.58s-3.77-1.74-5.84-1.65c-2.39,.11-5.26,1.45-5.19,3.84"/>
        <path class="cls-4" d="M10.96,168.71c2.28-.44,4.68-.24,6.85,.58-5.83,1.58-11.8,2.66-17.81,3.21,2.11-4.17,7.87-6,12.01-3.82"/>
        <path class="cls-2" d="M36.21,172.49c.08,.75,1.02,1.03,1.77,1.09,5.15,.41,10.89-1.15,15.15,1.78,1.14,.79,2.11,1.87,3.4,2.35,.96,.35,2,.34,3.02,.33,3.21-.04,6.42-.09,9.63-.13-3.22-.97-5.18-4.32-8.25-5.69-1.41-.63-2.98-.8-4.51-.97-5.23-.57-10.46-1.13-15.69-1.7-2.19-.24-4.89-.24-6.02,1.66"/>
        <path class="cls-3" d="M92.81,175.99l-2.87,3.38c-.31,.37-.65,.83-.51,1.3,.17,.54,.83,.69,1.37,.86,1.98,.62,3.28,2.56,5.2,3.36,2.03,.85,4.43,.25,6.25-.99s3.17-3.03,4.49-4.8c-3.78-2.66-8.42-4.07-13.05-3.97"/>
        <path class="cls-9" d="M104.33,195.09c-.25,2.26-3.47,4.11-2.32,6.07,.31,.53,.88,.85,1.44,1.1,3.23,1.43,6.89,1.31,10.37,1.89s7.22,2.23,8.41,5.55c.49,1.36,.6,3.03,1.79,3.83,.84,.56,1.94,.48,2.95,.4,5.54-.41,11.15,.15,16.5,1.66,2.98,.84,5.9,1.98,8.97,2.35,3.75,.46,7.53-.23,11.27-.78,7.34-1.09,14.76-1.67,22.18-1.74-.36-3.28-3.95-5.16-7.19-5.77-3.24-.61-6.79-.61-9.46-2.54,2.91-4.74,8.75-7.49,14.26-6.7-.26-6.62-.52-13.24-.79-19.86-3.6-1.11-7.49,.54-10.53,2.76s-5.66,5.05-8.99,6.81c-3.8,2.01-8.4,2.45-12.52,1.21-.98-.3-1.99-.69-3-.52-1.88,.31-2.88,2.33-4.3,3.6-3.5,3.14-8.92,1.45-13.45,.18-8.33-2.35-17.22-2.67-25.69-.92"/>
        <path class="cls-5" d="M163.34,43.5c-.89,.85,.63,2.09,1.83,2.36,1.58,.36,3.16,.72,4.73,1.08,.41,.09,.87,.18,1.22-.04,.54-.34,.48-1.13,.36-1.76-.41-2.06-.82-4.12-1.23-6.18-.05-.27-.12-.56-.32-.76-.31-.31-.82-.26-1.25-.17-2.47,.55-4.72,2.07-6.15,4.16"/>
        <path class="cls-2" d="M100.88,89.08c1.66,.27,3.28-.51,4.82-1.18s3.3-1.26,4.86-.65,2.38,3.01,1.02,4c-3.13,.07-6.26,.14-9.39,.21-1.14,.03-2.78-.63-2.3-1.66"/>
        <path class="cls-2" d="M243.01,75.16c1.08-1.16,3.18-.76,4.13,.51s.93,3.04,.43,4.54c-.12,.37-.29,.76-.62,.98-.31,.21-.71,.24-1.08,.25-5.54,.23-11.12-.45-16.45-2,.21-.92,.43-1.83,.64-2.75,4.67-1.03,9.54-1.11,14.24-.25"/>
        <path class="cls-2" d="M282.49,97.65c-3.44,2.21-6.89,4.42-10.33,6.63,2.89,2,6.93,3.45,9.77,1.38,2.55-1.86,2.74-5.62,2.12-8.72"/>
        <path class="cls-6" d="M164.88,133.86l-.08,4.17c0,.37,0,.77,.25,1.05,.21,.23,.54,.3,.84,.35,6.62,1.13,13.76-1.46,18.11-6.59-5.79-.86-11.69-.97-17.51-.35"/>
        <path class="cls-6" d="M231.81,21.31c-.29-2.68,1.76-5.19,4.25-6.25s5.29-.95,7.98-.66,5.4,.74,8.06,.32c.33,2.54,.67,5.13,1.77,7.44s3.11,4.34,5.63,4.79c.59,.11,1.22,.14,1.7,.48,.82,.58,.87,1.76,.8,2.76-.24,3.37-.92,6.71-2.04,9.9-4.74-1.74-9.47-3.48-14.21-5.21-1.24-.45-2.51-.93-3.46-1.85-.89-.86-1.4-2.03-1.98-3.13-1.95-3.69-4.93-6.83-8.5-8.99"/>
        <path class="cls-7" d="M158.43,19.1c.61-1.53-.18-3.21-.66-4.79s-.41-3.71,1.09-4.37c.62-.28,1.4-.24,1.91-.69,.51-.47,.54-1.26,.52-1.95-.05-2.13-.1-4.27-.15-6.4,.49-1.1,2.18-1.14,3.08-.34s1.19,2.08,1.35,3.27,.27,2.45,.94,3.45c1.06,1.57,3.51,1.96,5,.79,.19,.94,.39,1.87,.58,2.81"/>
        <path class="cls-3" d="M91.81,88.52c-1.21-3.29,1.19-6.71,3.44-9.39,2.17-2.59,4.34-5.18,6.51-7.77,.33-.39,.69-.81,1.19-.91,.82-.18,1.53,.53,2.17,1.07,1.88,1.59,4.57,2.16,6.93,1.45"/>
        <path class="cls-6" d="M22.03,176.85c-.84-.32-1.77,.53-1.8,1.43s.56,1.7,1.26,2.26c2.03,1.63,5.17,1.68,7.26,.13,.6-.45,1.16-1.18,.92-1.89-.21-.63-.93-.9-1.57-1.07-2.18-.58-4.43-.86-6.68-.85"/>
        <path class="cls-5" d="M228.96,127.77l-.68-4.55c-.08-.56-.14-1.21,.24-1.63,.33-.37,.88-.42,1.37-.45,3.67-.22,7.33-.44,11-.66,2.31-.14,5.14-.01,6.25,2.02,.6,1.1,.53,2.55,1.39,3.46,.83,.87,2.17,.89,3.35,1.07,3.16,.48,6.03,2.57,7.45,5.43,.22,.45,.42,.95,.33,1.44-.26,1.51-2.44,1.46-3.9,1.01-8.75-2.68-17.51-5.37-26.26-8.05"/>
        <path class="cls-4" d="M232.57,185.04c3.69,1.14,7.39,2.27,11.08,3.41,1.2,.37,2.48,.8,3.23,1.8s.57,2.78-.63,3.16c-.71,.23-1.48-.09-2.23-.05-1.29,.07-2.31,1.3-2.45,2.59s.46,2.56,1.29,3.54c2.82,3.33,7.79,3.66,12.13,3.27s8.95-1.2,12.89,.66c4.21,1.99,6.96,6.77,11.54,7.64-14.17,.02-28.34,.04-42.51,.06-.47,0-.98-.01-1.35-.29-.36-.27-.52-.72-.66-1.15-.85-2.61-1.7-5.21-2.55-7.82-.67-2.04-1.32-4.35-.32-6.25,.43-.81,1.13-1.47,1.45-2.33,.38-1,.19-2.12,0-3.17-.34-1.85-.69-3.7-1.03-5.56"/>
      </g>
      <g id="_Group_trash_bags" data-name="&amp;lt;Group&amp;gt; trash bags">
        <g>
          <path class="cls-8" d="M336.02,137.08c4.26-5.87,9.51-11.01,15.47-15.14,.49-.34,1.02-.68,1.62-.67,1.13,.02,1.8,1.22,2.33,2.21,4.16,7.7,13.09,11.17,20.76,15.38,7.85,4.31,14.96,9.96,20.93,16.63,1.5,1.67,3.01,3.98,2.02,6-.94,1.92-3.5,2.23-5.64,2.28-7.1,.17-14.2,.34-21.31,.51-1.99,.05-4.19,.02-5.68-1.3-.71-.63-1.17-1.49-1.9-2.09-1.05-.87-2.47-1.09-3.76-1.52-5.27-1.75-8.41-7-11.26-11.77s-6.44-9.87-11.9-10.91"/>
          <path class="cls-8" d="M354.42,124.86c-2-2.15-4.54-3.79-7.32-4.74-1.32-.45-2.74-.77-3.83-1.65s-1.71-2.56-.89-3.7c.95-1.33,3.07-1,4.43-.08s2.44,2.29,3.99,2.83c3.07,1.06,6.2-1.57,9.45-1.63,3.32-.05,6.02,2.54,8.3,4.95-4.62,1.37-9.4,2.19-14.21,2.44"/>
        </g>
        <g>
          <path class="cls-8" d="M141.28,136.02c-2.54-.86-5.26,.94-6.8,3.13s-2.4,4.83-4.08,6.91c-2.11,2.6-5.26,4.06-8.09,5.86-4.29,2.73-7.96,6.41-10.69,10.7-.26,.41-.52,.86-.5,1.34,.03,.66,.56,1.18,1.08,1.58,4.15,3.21,9.76,3.69,15,3.5,5.24-.19,10.57-.92,15.66,.33,1.84,.45,3.64,1.16,5.53,1.19s3.97-.84,4.63-2.61c.32-.86,.27-1.8,.22-2.71-.33-5.82-.67-11.65-1-17.47-.17-3.01-.38-6.15-1.92-8.74s-4.85-4.4-7.62-3.22"/>
          <path class="cls-8" d="M141.88,136.01l-5.73-3.45c-2.35-1.41-4.99-3.32-4.95-6.05,3.05,.93,6.5,1.71,9.29,.18,1.05-.58,2.21-1.49,3.3-1,.52,.24,.86,.75,1.31,1.11,1.46,1.19,3.59,.54,5.41,.07,3.84-1,7.86-.94,11.83-.88,.21,0,.44,.01,.61,.14,.37,.27,.23,.85,.02,1.25-1.35,2.51-4.25,3.78-7.03,4.43s-5.71,.88-8.27,2.14c-1.57,.77-3.19,1.95-4.89,1.52"/>
        </g>
      </g>
    </g>
  </g>
</svg>