<?xml version="1.0" encoding="UTF-8"?>
<svg id="Layer_2" data-name="Layer 2" xmlns="http://www.w3.org/2000/svg" viewBox="0 0 122.12 129.56">
  <defs>
    <style>
      .cls-1 {
        fill: #f1f2f2;
      }

      .cls-2 {
        fill: #939598;
      }

      .cls-3 {
        fill: #a7a9ac;
      }

      .cls-4 {
        fill: #d1d3d4;
      }

      .cls-5 {
        stroke-width: 2px;
      }

      .cls-5, .cls-6 {
        fill: #231f20;
        stroke: #231f20;
        stroke-miterlimit: 10;
      }
    </style>
  </defs>
  <g id="fork">
    <g>
      <g id="_Group_body" data-name="&amp;lt;Group&amp;gt;body">
        <path class="cls-3" d="M21.01,52.7c2.09-4.23,4.7-11.35,3.29-19.73-.26-1.57-.64-3.03-1.09-4.38,.21,3.59,.07,6.61-.12,8.86-.47,5.48-.93,10.81-3.04,13.96-.23,.35-1.09,1.58-.78,1.87,.24,.22,1.07-.2,1.74-.59Z"/>
        <path class="cls-3" d="M122.12,125.62v-3.73c-11.58-4.12-21.1-7.98-28.11-10.97-6.69-2.85-12.75-5.66-24.87-11.27-8.58-3.98-12.98-6.01-17.86-8.48-8.73-4.43-15.74-8.46-20.54-11.34-3.16-9.04-6.31-18.09-9.47-27.13-.54,.2-1.07,.39-1.61,.59l9.25,28.31c5.9,3.94,15.25,9.83,27.37,15.92,8.39,4.21,13.91,6.41,32.59,14.17,7.4,3.08,18.89,7.87,33.24,13.93Z"/>
        <path class="cls-4" d="M24.61,84.4s73.61,41.74,90.69,45.15c0,0,6.07,0,6.83-5.31,0,0-84.99-34.15-92.58-44.01l-9.87-26.94c1.85-4.51,4.09-11.72,3.9-20.69C23.22,15.72,14.51,4.01,11.23,0l-1.4,1.09c2.01,2.68,4.48,6.54,6.43,11.56,1.81,4.65,2.62,8.83,2.99,12.01,0,1.37-.07,2.88-.41,2.92-.65,.09-1.7-5.26-3.34-10.33-1.22-3.78-3.26-8.91-6.85-14.77l-1.9,1.39c3.8,5.83,5.65,10.95,6.64,14.49,1.18,4.28,2.29,10.55,1.6,10.76-.2,.06-.53-.42-.77-.84-.75-2.88-1.68-5.96-2.87-9.2-1.96-5.36-4.19-10.02-6.38-13.97-.24,.21-.48,.42-.72,.62-.42,.38-.83,.77-1.25,1.15,2.44,3.63,5.18,8.78,6.62,15.35,.41,1.86,.67,3.63,.82,5.28,.31,2.41,.24,2.91,.12,2.93-.4,.09-1.69-5.17-3.76-10.92C4.96,14.41,3.04,10.42,1.74,7.92l-1.74,1.39c2.46,4.47,5.04,10.55,6.23,18.04,.34,2.17,.54,4.23,.62,6.16,.34,4.02,.69,8.04,1.03,12.06,0,0,.77,5.93,1.81,5.79l5.02,3.07,9.89,29.97Z"/>
      </g>
      <g id="_Group_light_shadow" data-name="&amp;lt;Group&amp;gt; light shadow">
        <path class="cls-2" d="M7.7,42.96c1.36,3.42,3.05,4.07,3.68,4.24,3.47,.92,8.76-3.71,12.19-12.32-.07,2.61-.35,5.76-1.08,9.26-.75,3.61-1.8,6.68-2.82,9.15,.59,1.6,1.17,3.21,1.76,4.81-.59,1.52-1.19,3.39-1.62,5.57-.42,2.16-.58,4.1-.61,5.71-1.5-4.99-2.99-9.97-4.49-14.96-1.9-1.13-3.81-2.27-5.71-3.4-.22-.92-.44-1.85-.66-2.77-.21-1.77-.42-3.54-.63-5.3Z"/>
        <path class="cls-1" d="M23.38,80.68c1.29,.32,2.77,.43,3.69-.38,1.22-1.07,1.01-3.37,1.26-3.36,.16,0,.08,.94,.59,2.19,.34,.84,1,1.95,1.26,1.81,.89-.51-6.1-.16-4.03,4.34l-1.59-1-1.19-3.6Z"/>
        <path class="cls-1" d="M63.91,105.89s15.76,2.28,17.17,1.1l22.97,9.82s2.93,1.75-4.66,6.78c0,0-35.1-16.65-35.47-17.69Z"/>
        <path class="cls-1" d="M106.88,126.79s6.61,2.37,11.78-3.95l3.47,1.41s-.36,4.75-6.83,5.31l-8.41-2.77Z"/>
      </g>
      <g id="_Group_face_1" data-name="&amp;lt;Group&amp;gt; face 1">
        <ellipse class="cls-6" cx="11.33" cy="37.22" rx=".83" ry=".85"/>
        <ellipse class="cls-6" cx="19.63" cy="37.22" rx=".83" ry=".85"/>
        <line class="cls-5" x1="9.36" y1="40.16" x2="21.92" y2="40.16"/>
      </g>
    </g>
  </g>
</svg>