<?xml version="1.0" encoding="UTF-8"?>
<svg id="Layer_2" data-name="Layer 2" xmlns="http://www.w3.org/2000/svg" viewBox="0 0 55.08 93.78">
  <defs>
    <style>
      .cls-1 {
        fill: #edeff3;
      }

      .cls-2, .cls-3 {
        fill: #ede2a4;
      }

      .cls-4 {
        fill: #928e68;
      }

      .cls-5, .cls-6 {
        fill: #a9abb8;
      }

      .cls-7 {
        stroke-width: 2px;
      }

      .cls-7, .cls-8, .cls-6, .cls-9 {
        stroke-miterlimit: 10;
      }

      .cls-7, .cls-9 {
        fill: #231f20;
        stroke: #231f20;
      }

      .cls-8 {
        fill: #d2d3e1;
      }

      .cls-8, .cls-6 {
        stroke: #a9abb8;
      }

      .cls-3 {
        opacity: .6;
      }
    </style>
  </defs>
  <g id="plastic_bubble_tea" data-name="plastic bubble tea">
    <g>
      <g>
        <path class="cls-8" d="M.67,44.6l14.3,47.18s15.29,1.68,27.37,0l12.08-47.18H.67Z"/>
        <path class="cls-8" d="M.67,44.6c.41-2.58,2.1-10.64,10.11-16.01,11.07-7.43,29.14-6.3,37.98,2.53,4.82,4.81,5.56,10.59,5.67,13.48-6.76,.91-14.43,1.59-22.88,1.76-11.74,.23-22.16-.59-30.88-1.76Z"/>
        <ellipse class="cls-6" cx="29.02" cy="90.79" rx="13.76" ry="2.49"/>
        <ellipse class="cls-5" cx="27.27" cy="26.86" rx="5.89" ry="1.24"/>
        <path class="cls-1" d="M5.03,46.68c2.16,.4,4.53,.77,7.07,1.05,2.71,.3,5.24,.46,7.58,.54-.24,3.97-.28,8.31,.01,12.97,.49,7.74,1.8,14.62,3.37,20.47,0,0-6.23,2.18-9.02,0-1.56-4.3-3.04-8.87-4.39-13.72-2.11-7.56-3.59-14.7-4.62-21.3Z"/>
        <path class="cls-1" d="M33.91,30.33l3.19-3.47s9.94,2.69,12.13,8.78l-3.67,2.86s-2.18-5.79-11.65-8.18Z"/>
        <path class="cls-2" d="M26.55,28.09c.69,.02,1.33,0,1.92-.02-.18-8.88-.36-17.77-.54-26.65-.65,.18-1.53,.35-2.57,.38-.61,.02-1.16-.02-1.62-.07,.23,8.74,.47,17.48,.7,26.22,.64,.07,1.34,.12,2.1,.14Z"/>
        <path class="cls-3" d="M26.55,28.09c-.76-.02-1.46-.07-2.1-.14,.16,5.92,.31,11.84,.47,17.76,1.06,.01,2.14,0,3.25-.04,.18,0,.37-.01,.55-.02l-.24-17.57c-.59,.03-1.24,.04-1.92,.02Z"/>
        <path class="cls-3" d="M24.96,47.05c.38,14.18,.75,28.36,1.13,42.54,0,0,1.05,2.69,3.42,0l-.76-42.64c-.58,.02-1.16,.03-1.74,.04-.68,.02-1.37,.03-2.05,.05Z"/>
        <ellipse class="cls-4" cx="25.85" cy=".86" rx="2.1" ry=".86"/>
      </g>
      <g id="_Group_face_1" data-name="&amp;lt;Group&amp;gt; face 1">
        <ellipse class="cls-9" cx="27.26" cy="56.8" rx="1.47" ry="2.01"/>
        <ellipse class="cls-9" cx="42.01" cy="56.8" rx="1.47" ry="2.01"/>
        <line class="cls-7" x1="23.75" y1="63.72" x2="46.07" y2="63.72"/>
      </g>
    </g>
  </g>
</svg>