<?xml version="1.0" encoding="UTF-8"?>
<svg id="Layer_2" data-name="Layer 2" xmlns="http://www.w3.org/2000/svg" viewBox="0 0 55.18 84.19">
  <defs>
    <style>
      .cls-1 {
        fill: #0094b6;
      }

      .cls-2 {
        fill: #c1e6e7;
      }

      .cls-3 {
        fill: #e0f2f4;
      }

      .cls-4 {
        stroke-width: 2px;
      }

      .cls-4, .cls-5, .cls-6, .cls-7 {
        stroke-miterlimit: 10;
      }

      .cls-4, .cls-6 {
        fill: #231f20;
        stroke: #231f20;
      }

      .cls-5 {
        fill: #91b8c1;
      }

      .cls-5, .cls-7 {
        stroke: #91b8c1;
      }

      .cls-7 {
        fill: none;
      }
    </style>
  </defs>
  <g id="plastic_bottle" data-name="plastic bottle">
    <g>
      <g>
        <path class="cls-2" d="M.02,73.08s9.25-27.93,14.64-28.89,4.62-8.47,4.62-8.47c0,0,1.16-21.19,17.14-20.03l5.2-10.4s6.36,0,9.63,4.24l-4.82,9.63s11.36,10.02-4.62,24.08c-1.98,1.79-4.46,4.65-4.52,8.25-.02,1.32,.78,2.02,.86,3.86,.11,2.55-.94,4.51-1.5,5.57-2.01,3.78-5.84,11.02-11.01,20.35-1.41,2.66-4.51,3.56-6.84,2.5-1.24-.56-2.25-2.09-2.63-5.31,0,0-7.93,6.96-8.05-2.93,0,0-8.63,5.49-8.1-2.44Z"/>
        <ellipse class="cls-5" cx="46.41" cy="7.19" rx="1.44" ry="4.95" transform="translate(21.05 46.71) rotate(-66.12)"/>
        <path class="cls-1" d="M41.74,.04c-1.97,3.01-1.93,4.42-1.46,5.14,.92,1.41,3.41,.05,6.64,1.58,3.06,1.45,3.57,3.95,5.16,3.76,.82-.1,1.99-.93,3.1-4.76-.74-.96-1.78-2.06-3.19-3.04C47.9-.14,43.48-.08,41.74,.04Z"/>
        <path class="cls-7" d="M26.16,45.72c1.06,.72,3.09,1.87,5.88,2.21,1.77,.21,3.27,.03,4.31-.19"/>
        <path class="cls-7" d="M17.28,45.92c1.35,1,3.04,2.09,5.1,3.05,3.42,1.61,6.56,2.3,8.89,2.6"/>
        <path class="cls-7" d="M12.8,53.51s-9.72,11.96-7.9,15.48"/>
        <path class="cls-3" d="M35.35,16.93l1,3.77s-14.57,8.02-10.72,23.61c-2.64,.05-5.29,.1-7.93,.15,.94-.92,2.15-2.39,2.66-4.44,.42-1.67,.12-2.69,.11-4.44-.02-2.99,.82-5.21,1.67-7.44,1.12-2.98,2.23-5.91,5.11-8.22,2.88-2.31,6.12-2.87,8.1-3Z"/>
        <path class="cls-7" d="M34.5,18.2s-8.78,1.5-7.87,6.48"/>
      </g>
      <g id="_Group_face_1" data-name="&amp;lt;Group&amp;gt; face 1">
        <ellipse class="cls-6" cx="31.47" cy="26.45" rx="1.27" ry=".97" transform="translate(-5.46 44.52) rotate(-66.12)"/>
        <ellipse class="cls-6" cx="40.41" cy="30.41" rx="1.27" ry=".97" transform="translate(-3.76 55.05) rotate(-66.12)"/>
        <line class="cls-4" x1="27.56" y1="29.54" x2="41.09" y2="35.53"/>
      </g>
    </g>
  </g>
</svg>