<?xml version="1.0" encoding="UTF-8"?>
<svg id="Layer_2" data-name="Layer 2" xmlns="http://www.w3.org/2000/svg" viewBox="0 0 114.76 121.61">
  <defs>
    <style>
      .cls-1 {
        fill: #f7c08e;
      }

      .cls-2 {
        fill: #c3925e;
      }

      .cls-3 {
        fill: #c38b55;
      }

      .cls-4 {
        fill: #904d21;
      }

      .cls-5 {
        fill: #c28957;
      }

      .cls-6 {
        fill: #dba976;
      }

      .cls-7 {
        fill: #ae6a3d;
      }

      .cls-8 {
        stroke-width: 2px;
      }

      .cls-8, .cls-9 {
        fill: #231f20;
      }

      .cls-8, .cls-9, .cls-10 {
        stroke: #231f20;
        stroke-miterlimit: 10;
      }

      .cls-10 {
        fill: none;
      }
    </style>
  </defs>
  <g id="cardbox">
    <g>
      <g>
        <path class="cls-3" d="M3.9,20.82c-.31,20.4-.63,40.8-.94,61.21,11.7,13.19,23.4,26.39,35.1,39.58,1.1-22.01,2.2-44.01,3.3-66.02C28.87,44,16.38,32.41,3.9,20.82Z"/>
        <polygon class="cls-6" points="41.36 55.59 105.54 43.42 101.25 105.58 38.06 121.61 41.36 55.59"/>
        <path class="cls-5" d="M62.11,10.8c5.75-2.55,11.49-5.11,17.24-7.66,11.8,8.27,23.61,16.54,35.41,24.81l-9.22,15.48L62.11,10.8Z"/>
        <polygon class="cls-2" points="3.9 20.82 62.11 10.8 49.47 0 5.45 6.76 3.9 20.82"/>
        <polygon class="cls-1" points="41.36 55.59 54.72 68.59 110.72 58.28 105.54 43.42 41.36 55.59"/>
        <polyline class="cls-6" points="3.9 20.82 0 6.76 34.63 38.1 41.36 55.59"/>
        <polygon class="cls-4" points="62.11 10.8 62.11 51.66 105.54 43.42 62.11 10.8"/>
        <polygon class="cls-7" points="62.11 10.8 13.67 19.14 34.63 38.1 41.36 55.59 62.11 51.66 62.11 10.8"/>
      </g>
      <g id="_Group_face_3" data-name="&amp;lt;Group&amp;gt; face 3">
        <ellipse class="cls-9" cx="70.84" cy="86.07" rx="1.7" ry="2.12"/>
        <ellipse class="cls-9" cx="87.74" cy="83.02" rx="1.7" ry="2.12"/>
        <line class="cls-8" x1="67.65" y1="94.05" x2="93.24" y2="89.43"/>
        <path class="cls-10" d="M86.45,74.89s.8,6.17,7.97,4.64"/>
        <path class="cls-10" d="M64.62,84.91s.87-8.59,8.1-4.94"/>
      </g>
    </g>
  </g>
</svg>