<svg width="192" height="180" viewBox="0 0 192 180" fill="none" xmlns="http://www.w3.org/2000/svg">
<g clip-path="url(#clip0_309_1952)">
<path d="M23.3322 124.06L114.561 178.728L192.006 55.918L100.777 1.25067L23.3322 124.06Z" fill="#D3E2E4"/>
<path d="M110.8 69.0117L158.211 97.4219L182.012 59.6787L134.602 31.2685L110.8 69.0117Z" fill="#AAB7B9"/>
<path d="M49.8596 94.3051L76.133 110.049L91.0543 86.3874L64.7809 70.6434L49.8596 94.3051Z" fill="#AAB7B9"/>
<path d="M32.6648 121.568L58.9382 137.312L73.8595 113.65L47.5861 97.9063L32.6648 121.568Z" fill="#AAB7B9"/>
<path d="M97.532 17.488L125.299 34.1272C126.69 34.9607 128.511 34.5372 129.366 33.1812L129.495 32.9766C130.35 31.6206 129.916 29.8457 128.525 29.0121L100.758 12.373C99.3666 11.5394 97.5458 11.9629 96.6907 13.3189L96.5616 13.5235C95.7065 14.8795 96.141 16.6545 97.532 17.488Z" fill="#AAB7B9"/>
<path d="M92.0065 26.2357L119.774 42.8749C121.165 43.7084 122.986 43.2849 123.841 41.9289L123.97 41.7243C124.825 40.3683 124.391 38.5934 122.999 37.7598L95.2321 21.1206C93.8411 20.2871 92.0203 20.7106 91.1652 22.0666L91.0361 22.2712C90.181 23.6272 90.6155 25.4021 92.0065 26.2357Z" fill="#AAB7B9"/>
<path d="M104.843 45.5055L114.461 51.2689C115.852 52.1025 117.672 51.679 118.528 50.323L118.657 50.1184C119.512 48.7624 119.077 46.9874 117.686 46.1538L108.068 40.3904C106.677 39.5569 104.856 39.9804 104.001 41.3364L103.872 41.541C103.017 42.897 103.452 44.6719 104.843 45.5055Z" fill="#AAB7B9"/>
<path d="M80.7438 44.0943L108.511 60.7335C109.902 61.5671 111.723 61.1436 112.578 59.7876L112.707 59.583C113.562 58.227 113.128 56.452 111.737 55.6184L83.9695 38.9793C82.5784 38.1457 80.7576 38.5692 79.9025 39.9252L79.7734 40.1298C78.9183 41.4858 79.3528 43.2608 80.7438 44.0943Z" fill="#AAB7B9"/>
<path d="M94.1363 94.084L139.349 121.177C140.74 122.011 142.561 121.587 143.416 120.231L143.545 120.027C144.4 118.671 143.966 116.896 142.575 116.062L97.362 88.969C95.9709 88.1354 94.1501 88.5589 93.295 89.9149L93.166 90.1195C92.3108 91.4755 92.7453 93.2505 94.1363 94.084Z" fill="#AAB7B9"/>
<path d="M88.0333 35.4504L97.6512 41.2139C99.0423 42.0474 100.863 41.6239 101.718 40.2679L101.847 40.0633C102.702 38.7073 102.268 36.9323 100.877 36.0988L91.2589 30.3354C89.8679 29.5018 88.047 29.9253 87.1919 31.2813L87.0629 31.4859C86.2078 32.8419 86.6423 34.6169 88.0333 35.4504Z" fill="#AAB7B9"/>
<path d="M124.21 123.444L133.828 129.207C135.219 130.041 137.04 129.617 137.895 128.261L138.024 128.057C138.879 126.701 138.445 124.926 137.054 124.092L127.436 118.329C126.045 117.495 124.224 117.919 123.369 119.275L123.24 119.479C122.385 120.835 122.819 122.61 124.21 123.444Z" fill="#AAB7B9"/>
<path d="M85.515 110.789L96.4293 117.329C97.8203 118.163 99.6412 117.739 100.496 116.383L100.625 116.179C101.48 114.823 101.046 113.048 99.6549 112.214L88.7406 105.674C87.3496 104.84 85.5287 105.264 84.6736 106.62L84.5446 106.824C83.6895 108.18 84.124 109.955 85.515 110.789Z" fill="#AAB7B9"/>
<path d="M89.5871 102.693L117.268 119.281C118.659 120.114 120.48 119.691 121.335 118.335L121.464 118.13C122.319 116.774 121.885 114.999 120.494 114.165L92.8127 97.5781C91.4217 96.7445 89.6008 97.168 88.7457 98.524L88.6167 98.7286C87.7616 100.085 88.1961 101.86 89.5871 102.693Z" fill="#AAB7B9"/>
<path d="M103.138 121.361L129.004 136.861C130.395 137.695 132.216 137.271 133.071 135.915L133.2 135.71C134.055 134.354 133.62 132.579 132.229 131.746L106.363 116.246C104.972 115.413 103.151 115.836 102.296 117.192L102.167 117.397C101.312 118.753 101.747 120.528 103.138 121.361Z" fill="#AAB7B9"/>
<path d="M88.7693 124.312L116.45 140.899C117.841 141.733 119.662 141.309 120.517 139.953L120.646 139.749C121.501 138.393 121.067 136.618 119.676 135.784L91.995 119.197C90.6039 118.363 88.7831 118.787 87.928 120.143L87.799 120.347C86.9439 121.703 87.3783 123.478 88.7693 124.312Z" fill="#AAB7B9"/>
<path d="M74.8763 126.622L118.274 152.628C119.665 153.461 121.486 153.038 122.341 151.682L122.47 151.477C123.325 150.121 122.891 148.346 121.5 147.513L78.1019 121.507C76.7108 120.674 74.89 121.097 74.0349 122.453L73.9059 122.658C73.0508 124.014 73.4852 125.789 74.8763 126.622Z" fill="#AAB7B9"/>
<path d="M85.6512 143.807L113.332 160.395C114.723 161.228 116.544 160.805 117.399 159.449L117.528 159.244C118.383 157.888 117.949 156.113 116.558 155.28L88.8769 138.692C87.4858 137.859 85.665 138.282 84.8099 139.638L84.6809 139.843C83.8258 141.199 84.2602 142.974 85.6512 143.807Z" fill="#AAB7B9"/>
<path d="M64.7207 140.778L92.4016 157.365C93.7926 158.199 95.6135 157.775 96.4686 156.419L96.5976 156.215C97.4527 154.859 97.0183 153.084 95.6272 152.25L67.9463 135.663C66.5553 134.829 64.7344 135.253 63.8793 136.609L63.7503 136.813C62.8952 138.169 63.3297 139.944 64.7207 140.778Z" fill="#AAB7B9"/>
<path d="M68.1653 133.317L79.0796 139.857C80.4707 140.69 82.2915 140.267 83.1466 138.911L83.2756 138.706C84.1307 137.35 83.6963 135.575 82.3053 134.742L71.3909 128.201C69.9999 127.368 68.179 127.791 67.3239 129.147L67.1949 129.352C66.3398 130.708 66.7743 132.483 68.1653 133.317Z" fill="#AAB7B9"/>
<path d="M98.9642 162.039L109.879 168.579C111.27 169.412 113.09 168.989 113.946 167.633L114.075 167.428C114.93 166.072 114.495 164.297 113.104 163.464L102.19 156.924C100.799 156.09 98.9779 156.513 98.1228 157.869L97.9938 158.074C97.1387 159.43 97.5732 161.205 98.9642 162.039Z" fill="#AAB7B9"/>
<path d="M104.958 76.9408L150.171 104.034C151.562 104.868 153.383 104.444 154.238 103.088L154.367 102.883C155.222 101.528 154.788 99.7525 153.397 98.919L108.184 71.8258C106.793 70.9922 104.972 71.4157 104.117 72.7717L103.988 72.9763C103.133 74.3323 103.567 76.1073 104.958 76.9408Z" fill="#AAB7B9"/>
<path d="M71.8364 68.3691L117.049 95.4623C118.44 96.2958 120.261 95.8723 121.116 94.5163L121.245 94.3117C122.1 92.9557 121.666 91.1808 120.275 90.3472L75.062 63.254C73.671 62.4204 71.8501 62.844 70.995 64.1999L70.866 64.4045C70.0109 65.7605 70.4454 67.5355 71.8364 68.3691Z" fill="#AAB7B9"/>
<path d="M124.15 99.7009L145.645 112.582C147.037 113.415 148.857 112.992 149.712 111.636L149.842 111.431C150.697 110.075 150.262 108.3 148.871 107.467L127.376 94.5858C125.985 93.7523 124.164 94.1758 123.309 95.5318L123.18 95.7364C122.325 97.0924 122.759 98.8674 124.15 99.7009Z" fill="#AAB7B9"/>
<path d="M75.8176 58.7361L97.3129 71.6168C98.7039 72.4504 100.525 72.0269 101.38 70.6709L101.509 70.4663C102.364 69.1103 101.93 67.3353 100.538 66.5017L79.0432 53.621C77.6521 52.7874 75.8313 53.211 74.9762 54.5669L74.8472 54.7715C73.9921 56.1275 74.4265 57.9025 75.8176 58.7361Z" fill="#AAB7B9"/>
<path d="M177.76 61.8743L74.5061 0.000854492L0.0132984 118.129L103.267 180.002L177.76 61.8743Z" fill="#D3E2E4"/>
<path d="M130.127 42.6955L76.469 10.5417L53.5785 46.8407L107.236 78.9944L130.127 42.6955Z" fill="#AAB7B9"/>
<path d="M131.344 121.557L101.601 103.734L87.2493 126.493L116.992 144.316L131.344 121.557Z" fill="#AAB7B9"/>
<path d="M114.808 147.772L85.0653 129.949L70.7132 152.708L100.456 170.531L114.808 147.772Z" fill="#AAB7B9"/>
<path d="M167.472 66.4051L135.371 47.1691C133.98 46.3355 132.159 46.759 131.304 48.115L131.296 48.1271C130.441 49.483 130.876 51.258 132.267 52.0916L164.368 71.3276C165.759 72.1612 167.58 71.7376 168.435 70.3817L168.442 70.3696C169.297 69.0136 168.863 67.2387 167.472 66.4051Z" fill="#AAB7B9"/>
<path d="M162.169 74.8403L130.068 55.6043C128.677 54.7707 126.856 55.1942 126.001 56.5502L125.993 56.5622C125.138 57.9182 125.573 59.6932 126.964 60.5268L159.065 79.7628C160.456 80.5963 162.277 80.1728 163.132 78.8168L163.139 78.8048C163.994 77.4488 163.56 75.6738 162.169 74.8403Z" fill="#AAB7B9"/>
<path d="M136.513 70.6139L124.969 63.6963C123.578 62.8627 121.757 63.2863 120.902 64.6422L120.894 64.6543C120.039 66.0103 120.474 67.7852 121.865 68.6188L133.409 75.5364C134.8 76.3699 136.621 75.9464 137.476 74.5904L137.483 74.5784C138.338 73.2224 137.904 71.4474 136.513 70.6139Z" fill="#AAB7B9"/>
<path d="M151.328 92.0083L119.227 72.7722C117.836 71.9387 116.015 72.3622 115.16 73.7182L115.152 73.7302C114.297 75.0862 114.732 76.8612 116.123 77.6947L148.224 96.9308C149.615 97.7643 151.435 97.3408 152.291 95.9848L152.298 95.9728C153.153 94.6168 152.719 92.8418 151.328 92.0083Z" fill="#AAB7B9"/>
<path d="M95.9407 99.1814L44.0977 68.1152C42.7066 67.2817 40.8858 67.7052 40.0307 69.0612L40.0231 69.0732C39.168 70.4292 39.6025 72.2042 40.9935 73.0377L92.8365 104.104C94.2276 104.937 96.0484 104.514 96.9035 103.158L96.9111 103.146C97.7662 101.79 97.3317 100.015 95.9407 99.1814Z" fill="#AAB7B9"/>
<path d="M155.541 82.0021L143.997 75.0845C142.606 74.2509 140.785 74.6744 139.93 76.0304L139.922 76.0425C139.067 77.3985 139.502 79.1734 140.893 80.007L152.437 86.9246C153.828 87.7581 155.649 87.3346 156.504 85.9786L156.511 85.9666C157.366 84.6106 156.932 82.8356 155.541 82.0021Z" fill="#AAB7B9"/>
<path d="M51.0252 83.1803L39.4812 76.2627C38.0902 75.4291 36.2693 75.8527 35.4142 77.2086L35.4066 77.2207C34.5515 78.5767 34.986 80.3517 36.377 81.1852L47.921 88.1028C49.3121 88.9363 51.1329 88.5128 51.988 87.1568L51.9956 87.1448C52.8507 85.7888 52.4162 84.0138 51.0252 83.1803Z" fill="#AAB7B9"/>
<path d="M84.7441 113.507L71.7309 105.709C70.3399 104.875 68.519 105.299 67.6639 106.655L67.6563 106.667C66.8012 108.023 67.2357 109.798 68.6267 110.631L81.64 118.429C83.031 119.263 84.8518 118.839 85.7069 117.483L85.7145 117.471C86.5696 116.115 86.1352 114.34 84.7441 113.507Z" fill="#AAB7B9"/>
<path d="M90.2366 106.674L58.2344 87.4974C56.8434 86.6639 55.0226 87.0874 54.1675 88.4434L54.1599 88.4554C53.3048 89.8114 53.7392 91.5864 55.1303 92.42L87.1324 111.597C88.5235 112.43 90.3443 112.007 91.1994 110.651L91.207 110.639C92.0621 109.283 91.6277 107.508 90.2366 106.674Z" fill="#AAB7B9"/>
<path d="M64.7733 101.544L34.833 83.6023C33.4419 82.7687 31.6211 83.1923 30.766 84.5482L30.7584 84.5603C29.9033 85.9163 30.3377 87.6912 31.7288 88.5248L61.6691 106.466C63.0601 107.3 64.881 106.876 65.7361 105.52L65.7437 105.508C66.5988 104.152 66.1643 102.377 64.7733 101.544Z" fill="#AAB7B9"/>
<path d="M69.9725 115.78L37.9703 96.6029C36.5793 95.7694 34.7584 96.1929 33.9033 97.5489L33.8957 97.5609C33.0406 98.9169 33.4751 100.692 34.8661 101.525L66.8683 120.702C68.2593 121.536 70.0802 121.112 70.9353 119.756L70.9429 119.744C71.798 118.388 71.3635 116.613 69.9725 115.78Z" fill="#AAB7B9"/>
<path d="M75.5079 129.319L25.7268 99.4885C24.3357 98.655 22.5149 99.0785 21.6598 100.434L21.6522 100.447C20.7971 101.803 21.2315 103.577 22.6226 104.411L72.4037 134.242C73.7948 135.075 75.6156 134.652 76.4707 133.296L76.4783 133.284C77.3334 131.928 76.899 130.153 75.5079 129.319Z" fill="#AAB7B9"/>
<path d="M53.0403 126.175L21.0382 106.998C19.6471 106.165 17.8263 106.588 16.9712 107.944L16.9636 107.956C16.1085 109.312 16.5429 111.087 17.934 111.921L49.9362 131.098C51.3272 131.931 53.148 131.508 54.0031 130.152L54.0107 130.14C54.8658 128.784 54.4314 127.009 53.0403 126.175Z" fill="#AAB7B9"/>
<path d="M67.6129 144.077L35.6107 124.901C34.2197 124.067 32.3988 124.491 31.5437 125.847L31.5362 125.859C30.6811 127.215 31.1155 128.99 32.5065 129.823L64.5087 149C65.8998 149.834 67.7206 149.41 68.5757 148.054L68.5833 148.042C69.4384 146.686 69.0039 144.911 67.6129 144.077Z" fill="#AAB7B9"/>
<path d="M72.8323 138.036L59.8191 130.238C58.4281 129.405 56.6072 129.828 55.7521 131.184L55.7445 131.196C54.8894 132.552 55.3239 134.327 56.7149 135.161L69.7282 142.959C71.1192 143.792 72.94 143.369 73.7951 142.013L73.8027 142.001C74.6578 140.645 74.2234 138.87 72.8323 138.036Z" fill="#AAB7B9"/>
<path d="M28.1187 121.097L15.1055 113.299C13.7144 112.466 11.8936 112.889 11.0385 114.245L11.0309 114.257C10.1758 115.613 10.6103 117.388 12.0013 118.222L25.0145 126.02C26.4056 126.853 28.2264 126.43 29.0815 125.074L29.0891 125.062C29.9442 123.706 29.5097 121.931 28.1187 121.097Z" fill="#AAB7B9"/>
<path d="M106.331 82.6847L54.4884 51.6185C53.0974 50.785 51.2765 51.2085 50.4214 52.5645L50.4138 52.5765C49.5587 53.9325 49.9932 55.7075 51.3842 56.541L103.227 87.6072C104.618 88.4408 106.439 88.0173 107.294 86.6613L107.302 86.6492C108.157 85.2933 107.722 83.5183 106.331 82.6847Z" fill="#AAB7B9"/>
<path d="M133.038 109.519L81.1947 78.4528C79.8037 77.6192 77.9828 78.0427 77.1277 79.3987L77.1201 79.4107C76.265 80.7667 76.6995 82.5417 78.0905 83.3753L129.934 114.441C131.325 115.275 133.145 114.851 134.001 113.496L134.008 113.483C134.863 112.127 134.429 110.353 133.038 109.519Z" fill="#AAB7B9"/>
<path d="M73.8319 74.0305L48.8302 59.0486C47.4391 58.215 45.6183 58.6386 44.7632 59.9945L44.7556 60.0066C43.9005 61.3626 44.3349 63.1375 45.726 63.9711L70.7277 78.953C72.1187 79.7866 73.9396 79.363 74.7947 78.0071L74.8022 77.995C75.6573 76.639 75.2229 74.8641 73.8319 74.0305Z" fill="#AAB7B9"/>
<path d="M140.045 102.157L115.043 87.1751C113.652 86.3415 111.831 86.765 110.976 88.121L110.969 88.133C110.114 89.489 110.548 91.264 111.939 92.0976L136.941 107.079C138.332 107.913 140.153 107.49 141.008 106.134L141.015 106.121C141.871 104.766 141.436 102.991 140.045 102.157Z" fill="#AAB7B9"/>
<path d="M83.0145 42.3546C84.039 42.3546 84.8696 41.5703 84.8696 40.6028C84.8696 39.6353 84.039 38.851 83.0145 38.851C81.99 38.851 81.1594 39.6353 81.1594 40.6028C81.1594 41.5703 81.99 42.3546 83.0145 42.3546Z" fill="#221F20" stroke="#221F20" stroke-miterlimit="10"/>
<path d="M98.9275 51.6081C99.952 51.6081 100.783 50.8238 100.783 49.8563C100.783 48.8888 99.952 48.1045 98.9275 48.1045C97.903 48.1045 97.0724 48.8888 97.0724 49.8563C97.0724 50.8238 97.903 51.6081 98.9275 51.6081Z" fill="#221F20" stroke="#221F20" stroke-miterlimit="10"/>
<path d="M75.8696 43.5696L99.9565 57.5701" stroke="#221F20" stroke-width="2" stroke-miterlimit="10"/>
<path d="M102.406 43.838C102.406 43.838 99.6232 48.2882 106.507 52.0603" stroke="#221F20" stroke-miterlimit="10"/>
<path d="M78.4348 35.757C78.4348 35.757 83.971 30.8688 88.0145 37.975" stroke="#221F20" stroke-miterlimit="10"/>
</g>
<defs>
<clipPath id="clip0_309_1952">
<rect width="192" height="180" fill="white"/>
</clipPath>
</defs>
</svg>
